<svg id="그룹_124" data-name="그룹 124" xmlns="http://www.w3.org/2000/svg" viewBox="0 0 58.772 72.195">
  <defs>
    <style>
      .cls-1 {
        fill: #fff;
      }

      .cls-2 {
        fill: #333;
      }

      .cls-3 {
        fill: #459b26;
      }
    </style>
  </defs>
  <g id="그룹_41" data-name="그룹 41" transform="translate(0 20.431)">
    <path id="패스_104" data-name="패스 104" class="cls-1" d="M3.314,26.837l4.131-4.131a2.982,2.982,0,0,1,4.131,0l8.665,8.665a1.4,1.4,0,0,1,0,1.914L15.2,38.324a1.071,1.071,0,0,0-.1.806c.705,2.217,4.433,11.587,17.23,17.834a.77.77,0,0,0,.907-.2l5.642-5.642a1.4,1.4,0,0,1,1.914,0l9.471,9.471a1.4,1.4,0,0,1,0,1.914L44.02,68.752a6.229,6.229,0,0,1-5.642,1.713C29.108,68.551,3.817,60.793,1.5,31.774A6.835,6.835,0,0,1,3.314,26.837Z" transform="translate(0.042 -20.313)"/>
    <path id="패스_105" data-name="패스 105" class="cls-2" d="M39.7,72.089a7.777,7.777,0,0,1-1.511-.2C29.824,70.275,2.418,62.416,0,31.887a7.931,7.931,0,0,1,2.217-6.146h0L6.348,21.61a4.439,4.439,0,0,1,6.247,0l8.665,8.665a2.858,2.858,0,0,1,0,4.03l-4.736,4.736c.907,2.418,4.635,10.58,15.819,16.323l5.239-5.239a2.813,2.813,0,0,1,2.015-.806h0a2.813,2.813,0,0,1,2.015.806L51.084,59.6a2.858,2.858,0,0,1,0,4.03l-6.247,6.247A6.765,6.765,0,0,1,39.7,72.089ZM4.434,27.957a4.712,4.712,0,0,0-1.411,3.728c.705,9.169,5.642,31.235,35.668,37.28a5.018,5.018,0,0,0,4.333-1.31l6.045-6.045-9.27-9.27-5.542,5.542a2.161,2.161,0,0,1-2.62.4C18.54,51.837,14.61,42.366,13.7,39.544a2.056,2.056,0,0,1,.6-2.317l4.937-4.937-8.564-8.564a1.531,1.531,0,0,0-2.015,0Z" transform="translate(0.03 -20.325)"/>
  </g>
  <g id="그룹_42" data-name="그룹 42" transform="translate(36.754 0.101)">
    <path id="패스_106" data-name="패스 106" class="cls-2" d="M38.314,5.138a1.08,1.08,0,0,1-1.108-.907L36.5,1.611a1.149,1.149,0,0,1,2.217-.6l.705,2.62a1.146,1.146,0,0,1-.806,1.411C38.516,5.037,38.415,5.138,38.314,5.138Z" transform="translate(-36.448 -0.148)"/>
  </g>
  <g id="그룹_43" data-name="그룹 43" transform="translate(27.739 5.594)">
    <path id="패스_107" data-name="패스 107" class="cls-2" d="M30.523,9.731a1.144,1.144,0,0,1-.806-.3L27.8,7.514a1.226,1.226,0,0,1,0-1.612,1.226,1.226,0,0,1,1.612,0l1.914,1.914a1.226,1.226,0,0,1,0,1.612A1.144,1.144,0,0,1,30.523,9.731Z" transform="translate(-27.5 -5.6)"/>
  </g>
  <g id="그룹_44" data-name="그룹 44" transform="translate(54.641 5.292)">
    <path id="패스_108" data-name="패스 108" class="cls-2" d="M55.308,9.431a1.144,1.144,0,0,1-.806-.3,1.226,1.226,0,0,1,0-1.612L56.417,5.6a1.226,1.226,0,0,1,1.612,0,1.226,1.226,0,0,1,0,1.612L56.114,9.028A.916.916,0,0,1,55.308,9.431Z" transform="translate(-54.2 -5.3)"/>
  </g>
  <g id="그룹_45" data-name="그룹 45" transform="translate(46.629 0)">
    <path id="패스_109" data-name="패스 109" class="cls-2" d="M47.409,4.937h-.3A1.146,1.146,0,0,1,46.3,3.526l.705-2.62a1.149,1.149,0,1,1,2.217.6l-.705,2.62A1.092,1.092,0,0,1,47.409,4.937Z" transform="translate(-46.248 -0.048)"/>
  </g>
  <g id="그룹_46" data-name="그룹 46" transform="translate(30.862 9.322)">
    <path id="패스_110" data-name="패스 110" class="cls-3" d="M43.3,44.464C40.071,33.885,30.6,31.769,30.6,22A13.045,13.045,0,0,1,43.3,9.3,13.115,13.115,0,0,1,55.991,22c-.1,9.773-9.572,11.889-12.7,22.469" transform="translate(-30.6 -9.3)"/>
  </g>
  <g id="그룹_47" data-name="그룹 47" transform="translate(38.117 16.274)">
    <path id="패스_111" data-name="패스 111" class="cls-1" d="M43.233,17.2a4.334,4.334,0,1,0,4.433,4.333A4.523,4.523,0,0,0,43.233,17.2Z" transform="translate(-37.792 -16.192)"/>
    <path id="패스_112" data-name="패스 112" class="cls-2" d="M43.241,27.082a5.441,5.441,0,1,1,5.441-5.441A5.483,5.483,0,0,1,43.241,27.082Zm0-8.766a3.325,3.325,0,1,0,3.325,3.325A3.29,3.29,0,0,0,43.241,18.316Z" transform="translate(-37.8 -16.2)"/>
  </g>
</svg>
