<svg xmlns="http://www.w3.org/2000/svg" viewBox="0 0 57.43 61">
  <defs>
    <style>
      .cls-1 {
        fill: #fff;
      }

      .cls-2 {
        fill: #333;
      }

      .cls-3 {
        fill: #d85d5d;
      }
    </style>
  </defs>
  <g id="그룹_130" data-name="그룹 130" transform="translate(-5.57 -5.4)">
    <g id="그룹_126" data-name="그룹 126">
      <path id="패스_179" data-name="패스 179" class="cls-1" d="M8.8,21.5l4.1-4.1a2.959,2.959,0,0,1,4.1,0L25.6,26a1.391,1.391,0,0,1,0,1.9l-5,5a.778.778,0,0,0-.2.8c.7,2.2,4.4,11.5,17.1,17.7a.651.651,0,0,0,.9-.2L44,45.6a1.391,1.391,0,0,1,1.9,0L55.3,55a1.391,1.391,0,0,1,0,1.9l-6,6.1a6.183,6.183,0,0,1-5.6,1.7C34.4,62.9,9.3,55.1,7,26.3A6.4,6.4,0,0,1,8.8,21.5Z"/>
      <path id="패스_180" data-name="패스 180" class="cls-2" d="M44.9,66.4a7.719,7.719,0,0,1-1.5-.2C35.1,64.5,8,56.7,5.6,26.5a7.612,7.612,0,0,1,2.3-6.1L12,16.3a4.406,4.406,0,0,1,6.2,0l8.6,8.6a2.9,2.9,0,0,1,0,4l-4.7,4.7C23,36,26.7,44.1,37.8,49.7L43,44.5a2.792,2.792,0,0,1,2-.8h0a2.792,2.792,0,0,1,2,.8l9.4,9.4a2.837,2.837,0,0,1,0,4l-6.2,6.2A7.591,7.591,0,0,1,44.9,66.4ZM9.9,22.5a4.677,4.677,0,0,0-1.4,3.7c.7,9.1,5.6,31,35.4,37a4.98,4.98,0,0,0,4.3-1.3l6-6L45,46.7l-5.5,5.5a2.145,2.145,0,0,1-2.6.4C23.9,46.2,20,36.8,19.1,34a2.04,2.04,0,0,1,.6-2.3l4.9-4.9L16,18.4a1.521,1.521,0,0,0-2,0Z"/>
    </g>
    <g id="그룹_127" data-name="그룹 127">
      <path id="패스_181" data-name="패스 181" class="cls-3" d="M51.4,34.7a1.538,1.538,0,0,1-1.5-1.5A14.724,14.724,0,0,0,35.2,18.5a1.5,1.5,0,0,1,0-3A17.733,17.733,0,0,1,52.9,33.2,1.538,1.538,0,0,1,51.4,34.7Z"/>
    </g>
    <g id="그룹_128" data-name="그룹 128">
      <path id="패스_182" data-name="패스 182" class="cls-3" d="M41.3,34.7a1.538,1.538,0,0,1-1.5-1.5,4.588,4.588,0,0,0-4.6-4.6,1.5,1.5,0,0,1,0-3,7.6,7.6,0,0,1,7.6,7.6A1.538,1.538,0,0,1,41.3,34.7Z"/>
    </g>
    <g id="그룹_129" data-name="그룹 129">
      <path id="패스_183" data-name="패스 183" class="cls-3" d="M61.5,34.7A1.538,1.538,0,0,1,60,33.2,24.8,24.8,0,0,0,35.2,8.4a1.538,1.538,0,0,1-1.5-1.5,1.538,1.538,0,0,1,1.5-1.5A27.869,27.869,0,0,1,63,33.2,1.538,1.538,0,0,1,61.5,34.7Z"/>
    </g>
  </g>
</svg>
