<?xml version="1.0" encoding="utf-8"?>
<!-- Generator: Adobe Illustrator 22.1.0, SVG Export Plug-In . SVG Version: 6.00 Build 0)  -->
<svg version="1.1" id="레이어_1" xmlns="http://www.w3.org/2000/svg" xmlns:xlink="http://www.w3.org/1999/xlink" x="0px"
	 y="0px" viewBox="0 0 296 296" style="enable-background:new 0 0 296 296;" xml:space="preserve">
<style type="text/css">
	.st0{fill:#F2AC1E;}
	.st1{fill:#351B0F;}
	.st2{fill:#138491;}
	.st3{fill:#FBC3AC;}
	.st4{fill:#552B13;}
	.st5{fill:#18B0BF;}
	.st6{fill:#FDD6C3;}
	.st7{fill:#A7DAE8;}
	.st8{fill:#73A9C8;}
	.st9{fill:#FFFFFF;}
	.st10{fill:#78C8DC;}
	.st11{fill:#2C5872;}
	.st12{fill:#4384A8;}
	.st13{fill:#1F3F50;}
	.st14{fill:#BD3925;}
	.st15{fill:#DC4225;}
</style>
<g id="그룹_168" transform="translate(-173.23 -2136.271)">
	<path id="사각형_193" class="st0" d="M321.2,2137.2L321.2,2137.2c81.2,0,147.1,65.8,147.1,147.1l0,0
		c0,81.2-65.8,147.1-147.1,147.1l0,0c-81.2,0-147.1-65.8-147.1-147.1l0,0C174.2,2203,240,2137.2,321.2,2137.2z"/>
	<g id="그룹_163" transform="translate(257.972 2264.589)">
		<path id="패스_187" class="st1" d="M108.7,39.8c-2.2-8.4-6.3-16.1-11.9-22.7C87.6,6.4,76.4,1,63.3,0.9v5.4
			c12.2,0,22.6,4.6,31.2,13.8c5,5.2,8.8,11.6,10.9,18.5C106.5,38.8,107.7,39.2,108.7,39.8L108.7,39.8z"/>
		<path id="패스_188" class="st2" d="M91.6,23.1c4.4,4.5,7.7,10,9.7,16.1c0.2,0.7,0.5,1.5,0.6,2.2v21.8c-0.7,1.3-1.5,2.5-2.2,3.7
			c-8.1,12.5-18.4,20-30.9,22.5c-0.4-0.7-1-1.3-1.7-1.7c-1.1-0.8-2.4-1.4-3.8-1.6v12.1c1.4-0.3,2.7-0.8,3.8-1.7
			c0.8-0.6,1.5-1.4,2-2.3c9.6-0.9,18.9-6.6,28-17.1c3-3.5,5.8-7.2,8.4-11c0.1,0,0.2,0,0.4,0c1.8-0.4,3.5-1.4,4.8-2.7
			c0.3-0.3,0.6-0.7,0.9-1.2c2-2.8,3.1-6.2,3-9.7c0.1-3.5-0.9-6.9-3-9.8c-0.8-1.1-1.8-2-2.9-2.7c-1-0.6-2.2-1-3.3-1.2
			c-2.1-7-5.8-13.3-10.9-18.5C85.9,10.9,75.6,6.3,63.3,6.3v4.3C74.4,10.6,83.8,14.7,91.6,23.1z"/>
		<path id="패스_189" class="st1" d="M101.3,39.1c-2-6-5.3-11.5-9.7-16.1c-7.8-8.3-17.3-12.5-28.3-12.5v39.9
			c9.6,1.3,21.5,0.2,35.8-3.2c0.1,1,0.4,2,0.5,3c0.4,2.8,0.6,5.6,0.6,8.4c0,2.7-0.2,5.4-0.5,8.1c0.8-1.2,1.5-2.4,2.2-3.7V41.4
			C101.7,40.6,101.5,39.8,101.3,39.1L101.3,39.1z"/>
		<path id="패스_190" class="st3" d="M100.2,58.7c0-2.8-0.2-5.6-0.6-8.4c-0.1-1-0.4-2-0.5-3c-14.3,3.4-26.3,4.5-35.8,3.2V86
			c1.4,0.2,2.7,0.8,3.8,1.6c0.7,0.5,1.2,1,1.7,1.7c12.5-2.5,22.8-10,30.9-22.5C100,64.2,100.2,61.5,100.2,58.7L100.2,58.7z"/>
		<path id="패스_191" class="st1" d="M105.5,65.9c-2.6,3.8-5.4,7.5-8.4,11c-1.8,5-4.4,9.6-7.8,13.6c-7.2,8.8-15.9,13.2-26,13.2
			v5.7h6.5c4.9,0,9.9,0.6,14.6,1.9c0.2,0,0.4,0.1,0.6,0.1c5.6,1.6,10.9,4.1,15.6,7.6c1.8,1.3,3.6,2.7,5.2,4.2
			c7.5-4.2,14.2-10.8,19.9-20c-2-1.2-3.7-2.7-5.2-4.5c-5.9-7.1-9.2-19-9.9-35.7c-1.3,1.4-2.9,2.3-4.8,2.7
			C105.8,65.9,105.7,65.9,105.5,65.9L105.5,65.9z"/>
		<path id="패스_192" class="st4" d="M63.3,0.9L63.3,0.9c-13.2,0-24.5,5.4-33.8,16.2c-5.5,6.4-9.5,13.9-11.7,22
			c1-0.4,2.1-0.7,3.2-0.6h0.3c2.1-6.9,5.8-13.2,10.8-18.4c8.6-9.2,19-13.8,31.2-13.8V0.9z"/>
		<path id="패스_193" class="st5" d="M63.3,10.6V6.3c-12.1,0-22.5,4.6-31.2,13.8c-5,5.2-8.7,11.5-10.8,18.4h-0.3
			c-1.1,0-2.2,0.2-3.2,0.6c-1.6,0.7-3.1,1.9-4.1,3.4c-2,2.8-3.1,6.3-3,9.8c-0.1,3.5,0.9,6.9,3,9.7c0.6,0.8,1.2,1.5,2,2.1
			c1.4,1.2,3.3,1.9,5.2,2h0.2c1.2,0,2.4-0.2,3.4-0.7c0,0,0.1,0,0.2-0.1c0,0,0,0,0.1,0L25,40.2c0-0.2,0.1-0.4,0.2-0.6
			c1.9-6.2,5.2-11.9,9.7-16.6C42.8,14.7,52.3,10.5,63.3,10.6z"/>
		<path id="패스_194" class="st4" d="M34.9,23.1c-4.5,4.7-7.8,10.4-9.7,16.6c0,0.2-0.1,0.4-0.2,0.6l-0.2,24.9c0,0,0,0-0.1,0
			c0,0-0.1,0-0.2,0.1c-1.1,0.5-2.2,0.7-3.4,0.7h-0.2c-1.9,0-3.7-0.7-5.2-2C15,81.2,11.3,93.1,4.9,99.9C4,100.9,3,101.7,2,102.5
			c-0.3,0.2-0.7,0.5-1,0.7c1.2,2,2.5,3.9,3.9,5.7c4.2,5.7,9.5,10.5,15.6,14.1c1.6-1.4,3.3-2.7,5-4c5.1-3.6,10.7-6.2,16.7-7.7
			c0.2,0,0.4-0.1,0.6-0.1c4.4-1.1,9-1.6,13.6-1.6h6.9v-5.7h-0.1c-10.3,0-19-4.4-26.2-13.2c-7.2-8.8-10.8-19.4-10.8-31.9
			c0-11.9,3.3-22.1,9.9-30.7c3.7,13,12.8,20.4,27.3,22.5v-40C52.3,10.6,42.8,14.7,34.9,23.1z"/>
		<path id="패스_195" class="st6" d="M61.2,85.8c0.7,0,1.4,0.1,2.1,0.2V50.5C48.8,48.5,39.7,41,36,28c-6.6,8.6-9.9,18.8-9.9,30.7
			c0,12.5,3.6,23.1,10.8,31.9c7.2,8.8,15.9,13.2,26.2,13.2h0.1V98c-0.7,0.1-1.4,0.1-2.1,0.1c-2.1,0.1-4.2-0.6-5.9-1.8
			c-1.5-1-2.4-2.6-2.5-4.4c0.1-1.8,1-3.4,2.5-4.4C57,86.4,59.1,85.7,61.2,85.8L61.2,85.8z"/>
		<path id="패스_196" class="st5" d="M63.3,86c-0.7-0.1-1.4-0.2-2.1-0.2c-2.1-0.1-4.2,0.6-5.9,1.8c-1.5,1-2.4,2.6-2.5,4.4
			c0,1.8,1,3.4,2.5,4.4c1.7,1.2,3.8,1.9,5.9,1.8c0.7,0,1.4,0,2.1-0.1V86z"/>
		<path id="패스_197" class="st3" d="M67.1,96.4c-1.1,0.8-2.5,1.4-3.8,1.7v5.8c10.2,0,18.8-4.5,26-13.2c3.4-4.1,6-8.7,7.8-13.6
			c-9.1,10.5-18.5,16.2-28,17.1C68.7,95,68,95.8,67.1,96.4L67.1,96.4z"/>
		<path id="패스_198" class="st7" d="M42.2,111.3l5.6,15l15.5-16.6l-0.1-0.1h-6.8c-4.6,0-9.1,0.5-13.6,1.6
			C42.6,111.2,42.4,111.3,42.2,111.3L42.2,111.3z"/>
		<path id="패스_199" class="st8" d="M47.9,126.3l-5.6-15c-6,1.5-11.7,4.1-16.7,7.7l21,19.8l-8.7,5.6L60,166.7h3L47.9,126.3
			L47.9,126.3z"/>
		<path id="패스_200" class="st9" d="M63.3,109.6l-15.5,16.6l15.2,40.5h0.3L63.3,109.6z"/>
		<path id="패스_201" class="st10" d="M69.8,109.5h-6.4l-0.1,0.1l15.5,16.7l5.6-14.9C79.6,110.1,74.7,109.5,69.8,109.5L69.8,109.5
			z"/>
		<path id="패스_202" class="st11" d="M25.5,119.1c-1.7,1.2-3.4,2.6-5,4c-0.4,0.3-0.7,0.6-1.1,0.9c-8.3,8.4-13.2,18.1-14.5,29.1
			c-0.3,2.2-0.4,4.4-0.4,6.6v7.1H60l-22.2-22.3l8.7-5.6L25.5,119.1z"/>
		<path id="패스_203" class="st7" d="M63.3,166.7h0.3l15.2-40.4l-15.5-16.7V166.7z"/>
		<path id="패스_204" class="st12" d="M63.6,166.7h2.5l22.2-22.3l-8.7-5.6l21-19.7c-4.7-3.4-10-6-15.6-7.6c-0.2,0-0.4-0.1-0.6-0.1
			l-5.6,14.9L63.6,166.7z"/>
		<path id="패스_205" class="st13" d="M106.5,124c-0.2-0.2-0.4-0.4-0.7-0.6c-1.6-1.5-3.4-2.9-5.2-4.2l-21,19.7l8.7,5.6l-22.2,22.3
			h55.9v-7.1C121.9,145.9,116.8,134,106.5,124L106.5,124z"/>
		<path id="패스_206" class="st14" d="M66.4,124c0-0.8-0.3-1.7-0.9-2.2c-0.6-0.6-1.4-0.9-2.2-0.9v6.3
			C65,127.1,66.4,125.7,66.4,124L66.4,124z"/>
		<path id="패스_207" class="st15" d="M61.1,121.8c-0.6,0.6-0.9,1.4-0.9,2.2c0,1.7,1.4,3.1,3.1,3.1v-6.3
			C62.5,120.9,61.7,121.2,61.1,121.8L61.1,121.8z"/>
		<path id="패스_208" class="st14" d="M65.5,136.5c-0.6-0.6-1.4-0.9-2.2-0.9v6.3c1.7,0,3.1-1.4,3.1-3.1
			C66.5,137.9,66.1,137.1,65.5,136.5L65.5,136.5z"/>
		<path id="패스_209" class="st15" d="M63.3,135.6c-0.8,0-1.6,0.3-2.2,0.9c-0.6,0.6-0.9,1.4-0.9,2.2c0,1.7,1.4,3.1,3.1,3.1
			L63.3,135.6L63.3,135.6z"/>
	</g>
	<g id="그룹_164" transform="translate(173.436 2162.39)">
		<path id="패스_210" class="st11" d="M16,13C6,21,0.9,30.7,0.9,42S6,63,16,71c10,8,22.1,12.1,36.2,12.1c2.1,0,4.1-0.1,6.2-0.3
			c5.7,7.8,16.3,11.2,31.9,10.3c-7.8-3.6-12.9-8.4-15.2-14.2c0.3-0.1,0.7-0.3,1-0.4c4.4-1.9,8.6-4.4,12.4-7.5c10-8,15-17.7,15-29
			c0-11.3-5-21-15-29c-10-8-22.1-12-36.3-12C38.1,0.9,26,5,16,13z"/>
		<path id="패스_211" class="st9" d="M35.6,37.7c-2.9-2.9-7.5-2.9-10.4,0c-2.9,2.9-2.9,7.5,0,10.4l0,0c2.9,2.8,7.6,2.8,10.4-0.2
			C38.4,45.1,38.4,40.5,35.6,37.7z"/>
		<path id="패스_212" class="st9" d="M57.5,37.7c-2.9-2.9-7.5-2.9-10.4,0s-2.9,7.5,0,10.4c2.9,2.8,7.6,2.8,10.4-0.2
			C60.3,45.1,60.3,40.5,57.5,37.7z"/>
		<path id="패스_213" class="st9" d="M79.4,37.7c-2.9-2.9-7.5-2.9-10.4,0s-2.9,7.5,0,10.4c2.8,2.9,7.5,2.9,10.3,0.1
			c1.4-1.4,2.2-3.3,2.2-5.3C81.5,40.9,80.7,39,79.4,37.7L79.4,37.7z"/>
	</g>
</g>
</svg>
