<?xml version="1.0" encoding="utf-8"?>
<!-- Generator: Adobe Illustrator 22.1.0, SVG Export Plug-In . SVG Version: 6.00 Build 0)  -->
<svg version="1.1" id="레이어_1" xmlns="http://www.w3.org/2000/svg" xmlns:xlink="http://www.w3.org/1999/xlink" x="0px"
	 y="0px" viewBox="0 0 296 296" style="enable-background:new 0 0 296 296;" xml:space="preserve">
<style type="text/css">
	.st0{fill:#18B0BF;}
	.st1{fill:#FFFFFF;}
	.st2{fill:#8DC5D7;}
	.st3{fill:#A1DDF8;}
	.st4{fill:#CCCCCC;}
	.st5{fill:#FCBF15;}
	.st6{fill:#505050;}
	.st7{fill:#333333;}
	.st8{fill:#0D2B4C;}
	.st9{fill:#FDBE17;}
	.st10{fill:#8BC6D7;}
	.st11{fill:#747578;}
	.st12{fill:#B0E0E5;}
	.st13{fill:#ACD8EB;}
	.st14{fill:#F26327;}
</style>
<path id="사각형_191" class="st0" d="M148,0.9L148,0.9c81.2,0,147.1,65.8,147.1,147.1v0c0,81.2-65.8,147.1-147.1,147.1h0
	C66.8,295.1,0.9,229.2,0.9,148v0C0.9,66.8,66.8,0.9,148,0.9z"/>
<path id="패스_214" class="st1" d="M182.3,291.7c0-0.2,0.1-0.5,0.1-0.8v-23.3c0.2-1.4-0.8-2.8-2.2-3c-0.2,0-0.5,0-0.7,0H99.9
	c-2,0-3,1-3,3V291c0,1.9,1,2.9,3,2.9h79.5C181.1,293.8,182.1,293.1,182.3,291.7L182.3,291.7z"/>
<path id="패스_215" class="st2" d="M182.3,291.7c-0.3,1.4-1.2,2.1-2.9,2.1H99.9c-2,0-3-1-3-2.9v0.8c0,2,1,3,3,3h79.5
	c1.4,0.2,2.8-0.8,3-2.2C182.5,292.2,182.5,292,182.3,291.7L182.3,291.7L182.3,291.7z"/>
<path id="패스_216" class="st3" d="M175.6,270.9h5.2v-3.2h-5.2V270.9z"/>
<path id="패스_217" class="st3" d="M175.6,272.6v5.1h5.2v-5.1H175.6z"/>
<path id="패스_218" class="st3" d="M180.8,285.9h-5.2v5.1h5.2V285.9z"/>
<path id="패스_219" class="st3" d="M180.8,279.2h-5.2v5.1h5.2V279.2z"/>
<path id="패스_220" class="st3" d="M100,270.9h5.2v-3.2H100V270.9z"/>
<path id="패스_221" class="st3" d="M103.6,272.7v5h5v-5H103.6z"/>
<path id="패스_222" class="st3" d="M105.3,279.4h-6.7v5h6.7V279.4z"/>
<path id="패스_223" class="st3" d="M98.6,285.7v5.5h10.8v-5.5H98.6z"/>
<path id="패스_224" class="st3" d="M173.9,270.9v-3.2h-5.2v3.2H173.9z"/>
<path id="패스_225" class="st3" d="M167.1,270.9v-3.2h-5.2v3.2H167.1z"/>
<path id="패스_226" class="st3" d="M168.7,272.6v5.1h5.2v-5.1H168.7z"/>
<path id="패스_227" class="st3" d="M167.1,277.7v-5.1h-5.2v5.1L167.1,277.7z"/>
<path id="패스_228" class="st3" d="M159.5,270.9v-3.2h-5.2v3.2H159.5z"/>
<path id="패스_229" class="st3" d="M161.9,279.2v5.1h5.2v-5.1H161.9z"/>
<path id="패스_230" class="st3" d="M168.7,279.2v5.1h5.2v-5.1H168.7z"/>
<path id="패스_231" class="st3" d="M173.9,285.9h-5.2v5.1h5.2L173.9,285.9z"/>
<path id="패스_232" class="st3" d="M167.1,285.9h-5.2v5.1h5.2V285.9z"/>
<path id="패스_233" class="st3" d="M152.7,270.9v-3.2h-5.2v3.2H152.7z"/>
<path id="패스_234" class="st3" d="M156.4,272.7h-5v5h5V272.7z"/>
<path id="패스_235" class="st3" d="M149.6,277.7v-5h-5v5L149.6,277.7z"/>
<path id="패스_236" class="st3" d="M142.7,277.7v-5h-5v5L142.7,277.7z"/>
<path id="패스_237" class="st3" d="M145.9,270.9v-3.2h-5.2v3.2H145.9z"/>
<path id="패스_238" class="st3" d="M141.2,284.3h5v-5h-5V284.3z"/>
<path id="패스_239" class="st3" d="M148,279.4v5h5v-5H148z"/>
<path id="패스_240" class="st3" d="M154.7,279.2v6.7h-6.6l0,5.1h11.7l0-11.8H154.7z"/>
<path id="패스_241" class="st3" d="M145.5,291.2v-5.5h-26.8v5.5H145.5z"/>
<path id="패스_242" class="st3" d="M133.9,267.7v3.2h5.2v-3.2H133.9z"/>
<path id="패스_243" class="st3" d="M132.3,270.9v-3.2h-5.2v3.2H132.3z"/>
<path id="패스_244" class="st3" d="M135.9,277.7v-5h-5v5L135.9,277.7z"/>
<path id="패스_245" class="st3" d="M124.1,277.7h5v-5h-5V277.7z"/>
<path id="패스_246" class="st3" d="M125.6,270.9v-3.2h-5.2v3.2H125.6z"/>
<path id="패스_247" class="st3" d="M127.5,279.4v5h5v-5H127.5z"/>
<path id="패스_248" class="st3" d="M125.6,284.3v-5h-5v5L125.6,284.3z"/>
<path id="패스_249" class="st3" d="M139.3,279.4h-5v5h5V279.4z"/>
<path id="패스_250" class="st3" d="M115.4,277.7v-5h-5v5L115.4,277.7z"/>
<path id="패스_251" class="st3" d="M122.2,277.7v-5h-5v5L122.2,277.7z"/>
<path id="패스_252" class="st3" d="M118.8,270.9v-3.2h-5.2v3.2H118.8z"/>
<path id="패스_253" class="st3" d="M112,270.9v-3.2h-5.2v3.2H112z"/>
<path id="패스_254" class="st3" d="M112,279.4h-5v5h5V279.4z"/>
<path id="패스_255" class="st3" d="M113.8,279.4v5h5v-5H113.8z"/>
<path id="패스_256" class="st3" d="M116.6,285.7h-5.4v5.5h5.4V285.7z"/>
<g id="그룹_157" transform="translate(126.727 162.993)">
	<path id="패스_257" class="st4" d="M70.7,107.1h-0.2c-0.1,0-0.2,0-0.2,0h-0.2c-0.1,0-0.2,0-0.2,0v3.4c0.1-0.1,0.3-0.1,0.4-0.1
		c0.1,0,0.3,0,0.4,0.1L70.7,107.1L70.7,107.1z"/>
	<path id="패스_258" class="st1" d="M69.9,107.1h-0.2c-1.5,0.1-2.9,0.7-3.9,1.7c-1.2,1-1.9,2.5-1.9,4v1.8c1.7-0.7,3.6-1.1,5.5-1.2
		v-2.1c0-0.2,0.1-0.5,0.3-0.6c0.1-0.1,0.1-0.1,0.2-0.1L69.9,107.1L69.9,107.1z"/>
	<path id="패스_259" class="st1" d="M74.8,108.8c-1.1-1-2.6-1.6-4.1-1.7v3.4c0.1,0,0.1,0.1,0.2,0.1c0.2,0.2,0.3,0.4,0.3,0.6v2.1
		c1.9,0.1,3.7,0.5,5.5,1.2v-1.8C76.6,111.3,75.9,109.8,74.8,108.8L74.8,108.8z"/>
	<path id="패스_260" class="st4" d="M63.9,114.6v0.8c1.7-0.7,3.6-1.1,5.5-1.2v-0.8C67.5,113.5,65.7,113.9,63.9,114.6z"/>
	<path id="패스_261" class="st1" d="M63.9,115.4v5.2c0,1.6,0.7,3,1.9,4c2.6,2.2,6.4,2.2,9,0c1.2-1,1.9-2.5,1.8-4v-5.2
		c-1.7-0.7-3.6-1.1-5.5-1.2l0,0.1c0,0.2-0.1,0.4-0.3,0.6c-0.1,0.2-0.4,0.3-0.6,0.3c-0.2,0-0.5-0.1-0.6-0.3c-0.2-0.1-0.3-0.4-0.3-0.6
		v-0.2C67.5,114.3,65.7,114.7,63.9,115.4L63.9,115.4z"/>
	<path id="패스_262" class="st4" d="M76.6,115.4v-0.8c-1.8-0.7-3.6-1.1-5.5-1.2v0.8h0C73,114.3,74.9,114.7,76.6,115.4L76.6,115.4z
		"/>
	<path id="패스_263" class="st5" d="M71.2,113.4v-2.1c0-0.2-0.1-0.5-0.3-0.6c-0.1-0.1-0.1-0.1-0.2-0.1c-0.1-0.1-0.3-0.1-0.4-0.1
		c-0.1,0-0.3,0-0.4,0.1c-0.1,0-0.2,0.1-0.2,0.1c-0.2,0.2-0.3,0.4-0.3,0.6v3c0,0.2,0.1,0.5,0.3,0.6c0.2,0.2,0.4,0.3,0.6,0.3
		c0.2,0,0.5-0.1,0.6-0.3c0.2-0.2,0.3-0.4,0.3-0.6L71.2,113.4L71.2,113.4z"/>
</g>
<path id="패스_264" class="st1" d="M217.9,193.9h6.1c0.3-2.6,0.4-5.4,0.4-8.1c0-21.2-7.5-39.3-22.5-54.3
	c-15-15-33.1-22.5-54.3-22.5c-21.2,0-39.3,7.5-54.3,22.5c-15,15-22.5,33.1-22.5,54.3c0,2.7,0.1,5.4,0.4,8.1h6.1
	c-0.3-2.9-0.5-5.8-0.5-8.7c0-19.6,6.9-36.2,20.7-50c13.8-13.8,30.5-20.7,50.1-20.7s36.2,6.9,50,20.8c13.8,13.8,20.7,30.5,20.7,50
	C218.3,188,218.2,191,217.9,193.9L217.9,193.9z"/>
<path id="패스_265" class="st6" d="M213.8,169.2c0.2,0.5,0.3,1,0.3,1.5v37.2c0,0.5-0.1,1-0.3,1.5c1.6,0.1,3.2,0.1,4.7,0h0
	c1.2-0.1,2.4-0.3,3.4-0.4c0.4-0.1,0.7-0.2,1-0.3h0c1-0.3,1.9-0.7,2.8-1.3c1.1-0.7,1.8-1.9,2.1-3.2v-29.3c-0.3-1.2-1-2.4-2-3.2
	c-1.2-1-2.6-1.7-4.2-2c-0.1,0-0.2-0.1-0.3-0.1C218.9,169.1,216.3,169,213.8,169.2L213.8,169.2z"/>
<path id="패스_266" class="st1" d="M214,170.7c0-0.5-0.1-1-0.3-1.5c-0.2-0.4-0.4-0.8-0.8-1.1c-0.7-0.7-1.6-1.1-2.6-1.1l0,0
	c-2,0-3.7,1.6-3.7,3.7c0,0,0,0,0,0v37.2c0,1,0.4,1.9,1.1,2.6c0.7,0.7,1.6,1.1,2.6,1.1l0,0c1,0,1.9-0.4,2.6-1.1
	c0.3-0.3,0.6-0.7,0.8-1.1c0.2-0.5,0.3-1,0.3-1.5L214,170.7L214,170.7z"/>
<path id="패스_267" class="st7" d="M231.2,179.7c-0.6-1.4-1.9-2.3-3.4-2.6v24.3c1.4-0.4,2.6-1.4,3.4-2.6L231.2,179.7L231.2,179.7z
	"/>
<path id="패스_268" class="st6" d="M73.8,169.5c-0.1,0-0.2,0.1-0.3,0.1c-1.5,0.3-3,1-4.2,2c-1,0.8-1.7,2-2,3.2v29.3
	c0.4,2.1,2.1,3.7,4.9,4.5h0c1.4,0.4,2.9,0.7,4.4,0.8h0.1c1.6,0.1,3.2,0.1,4.8,0c-0.2-0.5-0.3-1-0.3-1.5v-37.2c0-0.5,0.1-1,0.3-1.5
	C78.9,168.9,76.3,169,73.8,169.5L73.8,169.5z"/>
<path id="패스_269" class="st7" d="M67.4,177c-1.5,0.3-2.7,1.2-3.4,2.6l-0.1,19.1c0.8,1.3,2,2.2,3.4,2.6V177z"/>
<path id="패스_270" class="st1" d="M81.5,169.1c-0.2,0.5-0.3,1-0.3,1.5v37.2c0,0.5,0.1,1,0.3,1.5c0.2,0.4,0.4,0.8,0.8,1.1
	c0.7,0.7,1.6,1.1,2.6,1.1h0c1,0,1.9-0.4,2.6-1.1c0.7-0.7,1.1-1.6,1.1-2.6v-37.2c0-1-0.4-1.9-1.1-2.6c-0.7-0.7-1.6-1.1-2.6-1.1h0
	c-1,0-1.9,0.4-2.6,1.1C81.9,168.3,81.6,168.7,81.5,169.1L81.5,169.1z"/>
<path id="패스_271" class="st7" d="M72.3,208.5L72.3,208.5l0,4.2h4.4v-3.4C75.2,209.2,73.7,208.9,72.3,208.5z"/>
<path id="패스_272" class="st7" d="M210.5,139.4c0-0.3-0.1-0.5-0.2-0.7c-2.4-3.1-4.9-6-7.7-8.7c-15.2-15.2-33.5-22.8-55-22.8
	c-21.5,0-39.8,7.6-55.1,22.8c-1.1,1.1-2.2,2.2-3.2,3.4c-1.6,1.7-3.1,3.5-4.5,5.4c-0.2,0.2-0.2,0.5-0.2,0.7c0,0.3,0.1,0.5,0.3,0.7
	l4.7,4.6c0.1,0.1,0.3,0.2,0.5,0.3c0.2,0,0.4,0,0.6,0c0.2-0.1,0.4-0.2,0.5-0.4c1.4-1.8,2.8-3.5,4.4-5.2l0,0c0.8-0.9,1.7-1.8,2.6-2.7
	c13.6-13.6,30-20.5,49.3-20.5c19.2,0,35.7,6.8,49.3,20.4c2.5,2.5,4.8,5.1,6.9,7.9c0.1,0.2,0.3,0.3,0.5,0.4c0.2,0.1,0.4,0.1,0.6,0.1
	c0.2,0,0.4-0.1,0.5-0.3l4.8-4.6C210.4,139.9,210.5,139.7,210.5,139.4z"/>
<path class="st8" d="M203.4,156.9c-0.6-0.1-1.1-0.1-1.7-0.1H93.5c-0.6,0-1.1,0-1.7,0.1c-2.6,0.2-4.7,2.3-5,4.9
	c-0.1,0.6-0.1,1.1-0.1,1.7V226h121.8v-62.5c0-0.6,0-1.1-0.2-1.7C208.1,159.2,206,157.1,203.4,156.9z"/>
<rect x="91.8" y="161.8" class="st8" width="111.6" height="59.1"/>
<path id="패스_274" class="st9" d="M203.4,221v-59.1H91.8V221H203.4z"/>
<path id="패스_275" class="st1" d="M201.7,243.4c4.5,0,6.8-2.3,6.8-6.8V226H86.7v10.6c0,4.5,2.3,6.8,6.8,6.8L201.7,243.4
	L201.7,243.4z"/>
<path id="패스_276" class="st1" d="M173.3,261.5v-5.2h-8.6v-7.8h-34.9v7.8H121v5.2H173.3z"/>
<path id="패스_277" class="st10" d="M129.8,243.4v5.1h34.9v-5.1H129.8z"/>
<path id="패스_278" class="st11" d="M151,236.1v-4.4h-9.4v4.4H151z"/>
<path id="패스_279" class="st1" d="M187.8,157l-15.3,0.6l0.1-16.9l-65.2,0.1V221h80.5L187.8,157z"/>
<path id="패스_280" class="st12" d="M172.5,157.6l15.3-0.6l-15.2-16.2L172.5,157.6z"/>
<path id="패스_281" class="st13" d="M178.7,172.9v-1.5h-62.1v1.5H178.7z"/>
<path id="패스_282" class="st13" d="M178.7,197.5V196h-62.1v1.4H178.7z"/>
<path id="패스_283" class="st13" d="M178.7,189.3v-1.4h-62.1v1.4H178.7z"/>
<path id="패스_284" class="st13" d="M178.7,213.9v-1.4h-62.1v1.4H178.7z"/>
<path id="패스_285" class="st13" d="M178.7,205.7v-1.5h-62.1v1.5L178.7,205.7z"/>
<path id="패스_286" class="st13" d="M178.7,181.1v-1.4h-62.1v1.4L178.7,181.1z"/>
<path id="패스_287" class="st13" d="M116.5,163.2v1.4h48.4c0.1,0,0.2-0.1,0.3-0.2c0.1-0.2,0.1-0.3,0.1-0.5c0-0.2,0-0.3-0.1-0.5
	c-0.1-0.1-0.2-0.2-0.3-0.2L116.5,163.2L116.5,163.2z"/>
<g id="그룹_162" transform="translate(364.703 1522.284)">
	<path id="패스_288" class="st14" d="M-157.4-1483.3c-9.9,7.9-14.9,17.6-14.9,28.9s5,21,14.9,28.9c3.8,3,7.9,5.5,12.3,7.4
		c0.3,0.1,0.7,0.3,1,0.4c-2.3,5.8-7.3,10.5-15.1,14.1c15.5,0.9,26.1-2.5,31.8-10.3c2,0.2,4,0.3,6.2,0.3c14.1,0,26.1-4,36.1-12
		c10-7.9,15-17.6,15-28.9c0-11.3-5-21-15-28.9c-10-8-22-12-36.1-12C-135.4-1495.3-147.4-1491.3-157.4-1483.3z"/>
	<path id="패스_289" class="st1" d="M-121.2-1460.9c-2,0-3.8,0.7-5.2,2.1c-2.8,2.9-2.7,7.6,0.2,10.4c2.8,2.7,7.3,2.7,10.2,0
		c2.9-2.9,2.9-7.5,0-10.3C-117.4-1460.1-119.2-1460.9-121.2-1460.9z"/>
	<path id="패스_290" class="st1" d="M-143-1460.9c-2,0-3.8,0.7-5.2,2.1c-2.8,2.9-2.7,7.6,0.2,10.4c2.8,2.7,7.3,2.7,10.2,0
		c2.9-2.9,2.9-7.5,0-10.3C-139.2-1460.1-141-1460.9-143-1460.9z"/>
	<path id="패스_291" class="st1" d="M-92-1453.6c0-4-3.3-7.3-7.4-7.3c-1.9,0-3.8,0.8-5.1,2.1c-2.8,2.9-2.8,7.5,0.1,10.4
		c2.9,2.8,7.4,2.8,10.3,0C-92.8-1449.7-92-1451.6-92-1453.6L-92-1453.6z"/>
</g>
</svg>
