<?xml version="1.0" encoding="utf-8"?>
<!-- Generator: Adobe Illustrator 22.1.0, SVG Export Plug-In . SVG Version: 6.00 Build 0)  -->
<svg version="1.1" id="그룹_58" xmlns="http://www.w3.org/2000/svg" xmlns:xlink="http://www.w3.org/1999/xlink" x="0px" y="0px"
	 viewBox="0 0 182 86" style="enable-background:new 0 0 182 86;" xml:space="preserve">
<style type="text/css">
	.st0{fill:#FFFFFF;}
</style>
<path id="패스_92" class="st0" d="M95.2,53.1c1.3-3.9,4-5.2,7.5-5.7c2.7-0.5,5.4-0.5,8.1-0.2c1,0.2,2,0.3,3.1,0.3
	c3.9-0.2,7.7,0.8,10.9,3.1c-0.3,3.6-0.5,7.4-0.9,11.6c1,0.6,2.3,1.2,3.4,2c1.3,0.8,2.3,1.8,1.5,3.7c-1-0.1-2-0.1-3-0.2
	c-5.9-0.9-11.9-1.1-17.8-0.6c-2.2,0.1-4.4,0.6-6.4,1.5c-1.3,0.7-2.3,0.3-3.5-0.6c-1.9-1.2-2.9-3.4-2.9-5.6c-0.1-1.8,0.1-3.6,0.4-5.4
	C96,55.6,95.8,54.3,95.2,53.1z M98.2,64.1c0.7,0,1.3-0.1,2-0.3c3.7-1.2,7.5-1.7,11.4-1.6c1.7,0,3.3,0.1,5,0c0.8-0.1,1.5-0.2,2.3-0.5
	c-0.1-1.5-0.2-2.8-0.3-4c-0.1-1.3-0.3-2.6-0.6-3.9c-6.3-1.5-12.5-1.9-18.5,0.1c-0.3,1.8-0.5,3.3-0.8,4.8
	C98.6,60.5,98.4,62.3,98.2,64.1L98.2,64.1z"/>
<path id="패스_93" class="st0" d="M59.7,22.2c-2-4.5-3.6-8.5-5.3-12.4c-3.6,1.4-4.6,4.4-5.3,7.3c-1.9,1.4-3.5,1.8-5.4,0.5
	C41,15.9,40.4,14,42,11.4C44.7,7.3,48.1,3.7,52.2,1c0.6,0.2,1.1,0.4,1.7,0.6c3.6,1.2,6,3.4,6.7,7.5c0.5,2.6,2.2,4.9,4.5,6.2
	c4,2.5,4.7,6,3.6,10.2c-5.5,1.8-11,3.5-16.5,5.4c-1.3,0.3-2.5,0.9-3.6,1.6c-0.8,0.6-1.1,1.8-1.8,3.2c2.3,0.1,3.8,0.2,5.5,0.3
	c6.7,0.7,13.5,1.3,20.2,2.1c2.7,0.4,4.8,2.4,5.4,5c-0.2,1.4-1.4,2.4-2.9,2.4c-1.9,0.1-3.7,0.1-5.6-0.1c-6.3-1.1-12.7-1.5-19.1-1.2
	c-3.6,0.1-7.2-0.6-10.4-2.2c-1.8-0.8-3.2-1.9-3.1-4.6c1.4-0.5,2.9-1.1,4.5-1.8c0.3-0.4,0.5-0.9,0.6-1.4c1-4.8,4.7-8.5,9.5-9.5
	C54.1,24,56.8,23.1,59.7,22.2z"/>
<path id="패스_94" class="st0" d="M107.7,25.7c0.7-0.6,1.7-0.5,2.3,0.1c0.1,0.1,0.2,0.2,0.2,0.4c0.8,1.3,1.5,2.8,2.4,4.3
	c0.7-0.1,1.4-0.1,2.2-0.2c2.1-0.4,4.1-0.7,6.1-1.2c1.5-0.3,3-0.8,4.4-1.3c1.5-0.5,2.9-1.2,4.3-1.7c0.7-0.1,1.4-0.2,2.2-0.2
	c-0.1,0.7-0.3,1.3-0.6,2c-0.9,1.5-1.9,2.8-2.9,4.2c-0.7,1.1-1.3,2.3-0.7,3.6c-4.1,2.2-8.5,1.6-13,1.1c-0.5,1.8,0,3.2,0.1,4.5
	c0.2,1.4,0.5,2.9,0.6,4.2c0,0.8-0.1,1.5-0.4,2.3c-0.5,1.1-1,2.2-2.5,2.2c-1.5,0.1-2.8-0.8-3.2-2.3c-0.5-1.3-0.7-2.7-0.7-4.1
	c0-2.9-0.1-5.7-0.6-8.6C107.5,31.9,107.8,28.8,107.7,25.7z"/>
<path id="패스_95" class="st0" d="M2,58.2c4.3-0.9,8.6,1.2,13,0.1c0.6-5.3,0.1-10.5,1.5-15.6c3,4.6,1.8,10,2.9,15.3
	c1.1,0.2,2.2,0.4,3.2,0.4c3.9-0.3,7.8-0.7,11.7-1.2c4.3-0.5,8.6,0.2,13.3,0.7c-0.5,1.2-0.7,2.3-1.3,2.8c-7.1,5.6-14.8,9.2-24.1,8.7
	c-4.3-0.1-8.6-0.7-12.8-1.6c-3.9-0.9-6.9-3-7.6-7.3C1.8,59.7,1.8,58.9,2,58.2z"/>
<path id="패스_96" class="st0" d="M148.3,46.3c0,1.8,0.1,3.5,0,5.2c-0.2,2.6-1,3.4-3.3,3.6c-2.9,0.2-5.6,0.3-8.5,0.3
	c-2.1,0-4-1.2-4.8-3.2c-0.6-1.3-1.2-2.6-1.8-3.7c-1.4-0.1-2.7-0.2-3.8-0.4c-0.8-0.2-1.3-1-1.1-1.8c0.1-0.3,0.2-0.6,0.4-0.8
	c1.1-0.9,2.4-1.5,3.6-2.4c0.5-1.7,0.9-3.4,1.6-5.2c0.7-1.9,1.8-2.6,3.1-2.2c1.7,0.4,2.2,1.4,2,3.5c0,0.5-0.1,0.9-0.1,1.5
	c3.1,0.7,5.9-0.2,8.8-0.9c1-1.9,0.3-3.7,0.2-5.4c2.8-2.5,3.4-2.6,6.8-0.8c-0.5,1.4-1.1,2.9-1.5,4.3c-0.7,1.6-0.3,3.5,1,4.7
	c1.8,1.8,1.4,2.4-1.4,3.2C149.1,45.9,148.9,46,148.3,46.3z M136.5,51.9c2.2,0.8,4.6,0.8,6.8,0.2c0.4-1.9,0.7-3.4-0.1-5.2
	c-2.8-0.1-5.3-0.7-7.8,0.3C135,49,135.9,50.4,136.5,51.9L136.5,51.9z"/>
<path id="패스_97" class="st0" d="M7.4,42.7c-1.8-2.4-1.9-4.9-1.3-7.6c1-4,3.1-7.7,6.1-10.5c0.6-0.5,1.4-0.6,2.1-0.4
	c1,0.5,0.9,1.6,0.5,2.5c-0.9,1.4-1.7,2.9-2.4,4.4c-0.3,0.9-0.4,1.8-0.3,2.7c0.1,1.1,1.1,1.8,2.2,1.7c0.1,0,0.3,0,0.4-0.1
	c2.2-1.1,4.3-2.4,6.2-3.8c2.6-2.2,1.5-7.1-1.7-8.5c-0.9-0.4-1.9-0.4-2.7-0.8c-0.8-0.4-1.5-1-2.1-1.8c-1.3-1.7-0.7-3.3,1.4-3.8
	c2.8-0.8,5.8,0,7.8,2.1c2.2,2.2,4.3,4.6,6.2,7.2c2.1,2.9,1.7,6.2,0.4,9.2c-1.8,5-6,8.8-11.1,10.2c-2.7,0.8-5.1,0.9-7.6-0.6
	C10,43.9,8.7,43.3,7.4,42.7z"/>
<path id="패스_98" class="st0" d="M78.2,65.8c-0.9,3.9-1.5,7.8-0.7,11.4c2,1.6,3.7,3,5.4,4.4c0.5,0.5,0.8,1.2,0.7,2
	c-0.3,1.1-1.4,1.1-2.3,1c-7.5-0.2-15-0.4-22.4-0.4c-2.6,0-5.2,0.6-7.8,0.8c-1.1,0.1-2.2-0.5-2.7-1.6c-0.6-1-0.3-2.3,0.6-3.1
	c1.2-0.8,2.4-1.6,3.7-2.3c1-2.3,2.1-4.4,3-6.7c1-2.7,3.1-4.8,5.7-5.8c2.5-1,4.9-1.8,7.4-2.6C72.2,61.7,75.2,62.4,78.2,65.8z
	 M73.9,77.6c-0.4-3.2,0.1-6.4-1.2-9.6c-4,0-7.9,1.2-11,3.6c-1.9,1.4-3,3.6-2.9,6C63.9,77.8,68.7,78.5,73.9,77.6z"/>
<path id="패스_99" class="st0" d="M102.4,31.3c-3.4-0.4-6.5-0.8-9.4-1.2c-1.1,1.3-1.5,2.5-0.6,3.9c1.7,0,3.5-0.1,5.4,0
	c1.2,0.1,2.4,0.4,3.5,0.9c0.5,0.2,0.7,0.9,1.3,1.6c-3.7,0.9-7.3,0-10.6,1.9c0.1,1,0.3,2.1,0.4,3.2c2.8-0.5,5.2-0.9,7.7-1.3
	c1.1-0.2,2.2-0.2,3.2-0.2c1,0,1.3,0.4,2.7,2.5c-4.6,1.8-10,1-14,4.8c-3.6-1.8-2.4-5.4-3.2-8.5c-0.8,0.1-1.5,0.3-2.3,0.4
	c-0.6,0-1.2,0-1.8-0.1c-0.7-0.2-1.1-1-0.9-1.7c0.1-0.2,0.2-0.4,0.4-0.6c1.3-0.9,2.7-1.7,4-2.6v-4.3c-0.9-0.1-1.8-0.3-2.7-0.6
	c-0.5-0.2-1.2-0.8-1.2-1.2c0-0.7,0.3-1.4,0.8-2c0.5-0.4,1.1-0.6,1.7-0.7c4.2-0.5,8.5-0.1,12.6,1.2C101.4,27.4,102.6,29.3,102.4,31.3
	z"/>
<path id="패스_100" class="st0" d="M149.9,58c-0.1-3,1.2-5.8,3.5-7.6c2.8-2.4,5.5-1.7,7,1.6c0.5,1,0.9,2.1,1.2,3.2
	c0.9,3.7-1.3,7.4-4.9,8.4c-1.8,0.4-3.8,0-5.2-1.2C150,61.3,150,59.7,149.9,58z M156.4,53.5c-1.7,1-2.7,2.8-2.8,4.7
	c-0.1,1.5,1,2.8,2.5,3c1,0.3,2-0.3,2.3-1.2c0-0.1,0-0.2,0.1-0.2C158.9,57.3,158.6,55.2,156.4,53.5z"/>
<path id="패스_101" class="st0" d="M160.2,41.9c-1.1,2.8-2.1,5.3-3.1,8c-0.1,0.2-0.5,0.2-1.1,0.4c-0.5-3.5,0.8-6.8,1-10.1
	c0.2-3.4,0.3-6.9,0.5-10.2c0.9-0.7,1.6-0.4,1.9,0.4c0.4,1.3,0.7,2.5,0.9,3.8c4.5,0.2,9,0.7,13.5-0.5c2.2-0.6,4.5-0.4,6.5,0.6
	c-1.8,2.4-3.4,4.6-5.2,6.8c-0.8,1-2.1,1.5-3.3,1.4c-1.5-0.2-3.1-0.4-4.6-0.4C164.7,41.8,162.3,41.9,160.2,41.9z"/>
<path id="패스_102" class="st0" d="M91.4,54.6c-0.7,1-0.8,1.5-1.1,1.6c-10.1,2.6-20.5,3.6-30.9,3.1c-6-0.5-11.9-2.1-17.3-4.8
	c-1.6-0.8-3-1.9-4.2-3.2c-0.6-0.6-0.6-1.7-0.8-2.5c0.6-0.1,0.9-0.3,1.1-0.2c9.8,3.2,20,3.4,30.1,4c6.5,0.4,12.9,0.9,19.4,1.4
	C88.9,54.1,90.1,54.3,91.4,54.6z"/>
</svg>
