<?xml version="1.0" encoding="utf-8"?>
<!-- Generator: Adobe Illustrator 22.1.0, SVG Export Plug-In . SVG Version: 6.00 Build 0)  -->
<svg version="1.1" id="레이어_1" xmlns="http://www.w3.org/2000/svg" xmlns:xlink="http://www.w3.org/1999/xlink" x="0px"
	 y="0px" viewBox="0 0 334 56" style="enable-background:new 0 0 334 56;" xml:space="preserve">
<style type="text/css">
	.st0{fill:#FFFFFF;}
	.st1{fill:#E4E3E3;}
</style>
<path id="패스_92" class="st0" d="M276.8,34.5c0.8-2.5,2.6-3.4,4.8-3.7c1.7-0.3,3.5-0.3,5.2-0.1c0.6,0.1,1.3,0.2,2,0.2
	c2.5-0.2,5,0.5,7,2c-0.2,2.3-0.3,4.8-0.6,7.5c0.6,0.4,1.5,0.8,2.2,1.3c0.9,0.3,1.4,1.4,1,2.3c0,0,0,0.1-0.1,0.1
	c-0.6-0.1-1.3-0.1-1.9-0.1c-3.8-0.6-7.6-0.7-11.5-0.4c-1.4,0-2.8,0.4-4.1,1c-0.8,0.4-1.5,0.2-2.3-0.4c-1.2-0.8-1.9-2.2-1.8-3.6
	c0-1.2,0-2.3,0.3-3.5C277.2,36.1,277.2,35.3,276.8,34.5z M278.7,41.6c0.4,0,0.9-0.1,1.3-0.2c2.4-0.8,4.9-1.1,7.4-1
	c1.1,0,2.2,0.1,3.2,0c0.5-0.1,1-0.2,1.5-0.3c-0.1-1-0.1-1.8-0.2-2.6c-0.1-0.9-0.2-1.7-0.4-2.5c-3.9-1.1-8-1.1-11.9,0.1
	c-0.2,1.1-0.3,2.2-0.5,3.1C279,39.3,278.8,40.4,278.7,41.6z"/>
<path id="패스_93" class="st0" d="M253.9,14.6c-1.3-2.9-2.3-5.5-3.4-8c-2.3,0.9-3,2.9-3.4,4.7c-1.2,0.9-2.3,1.1-3.5,0.3
	c-1.7-1.1-2.1-2.3-1-4c1.7-2.6,3.9-4.9,6.5-6.7c0.4,0.1,0.7,0.2,1.1,0.4c2.3,0.6,4,2.5,4.3,4.8c0.3,1.7,1.4,3.2,2.9,4
	c2.6,1.6,3,3.9,2.3,6.6c-3.5,1.1-7.1,2.3-10.6,3.5c-0.8,0.2-1.6,0.5-2.3,1c-0.5,0.4-0.7,1.1-1.1,2c1.5,0.1,2.5,0.1,3.6,0.2
	c4.3,0.4,8.7,0.8,13,1.3c1.7,0.2,3.1,1.5,3.5,3.2c-0.1,0.9-0.9,1.5-1.8,1.5c-1.2,0.1-2.4,0.1-3.6-0.1c-4.1-0.7-8.2-1-12.3-0.8
	c-2.3,0.1-4.6-0.4-6.7-1.4c-1.3-0.4-2.1-1.6-2-3c0.9-0.3,1.8-0.7,2.9-1.1c0.2-0.3,0.3-0.6,0.4-0.9c0.6-3.1,3-5.5,6.1-6.1
	C250.3,15.8,252,15.2,253.9,14.6z"/>
<path id="패스_94" class="st0" d="M284.8,16.9c0.4-0.4,1.1-0.4,1.5,0.1c0.1,0.1,0.1,0.1,0.2,0.2c0.5,0.8,1,1.8,1.5,2.8
	c0.4-0.1,0.9-0.1,1.4-0.1c1.3-0.3,2.7-0.4,3.9-0.8c1-0.2,1.9-0.5,2.9-0.8c1-0.3,1.8-0.8,2.8-1.1c0.5-0.1,0.9-0.1,1.4-0.1
	c-0.1,0.4-0.2,0.9-0.4,1.3c-0.6,1-1.2,1.8-1.8,2.7c-0.6,0.6-0.7,1.5-0.4,2.3c-2.7,1.4-5.5,1-8.4,0.7c-0.2,1-0.2,2,0.1,2.9
	c0.1,0.9,0.3,1.8,0.4,2.7c0,0.5-0.1,1-0.3,1.5c-0.3,0.7-0.6,1.4-1.6,1.4c-1,0.1-1.8-0.5-2.1-1.5c-0.3-0.9-0.5-1.8-0.4-2.7
	c0-1.8-0.1-3.7-0.4-5.5C284.8,20.9,284.7,18.9,284.8,16.9z"/>
<path id="패스_95" class="st0" d="M216.7,37.8c2.8-0.6,5.5,0.8,8.4,0.1c0.4-3.4,0.1-6.8,1-10c1.9,3,1.1,6.5,1.8,9.8
	c0.7,0.1,1.4,0.2,2.1,0.3c2.5-0.2,5-0.4,7.5-0.8c2.9-0.2,5.7,0,8.6,0.4c-0.3,0.8-0.4,1.5-0.8,1.8c-4.6,3.6-9.5,5.9-15.5,5.6
	c-2.8-0.1-5.5-0.4-8.2-1c-2.5-0.6-4.4-1.9-4.9-4.7C216.6,38.8,216.6,38.3,216.7,37.8z"/>
<path id="패스_96" class="st0" d="M310.9,30.1c0,1.1,0.1,2.3,0,3.4c-0.1,1.6-0.6,2.2-2.2,2.3c-1.8,0.1-3.6,0.2-5.5,0.2
	c-1.4,0-2.6-0.8-3.1-2c-0.4-0.8-0.8-1.6-1.1-2.4c-0.9-0.1-1.7-0.1-2.5-0.3c-0.5-0.1-0.8-0.6-0.7-1.2c0-0.2,0.1-0.4,0.3-0.5
	c0.7-0.6,1.5-1,2.3-1.5c0.3-1.1,0.6-2.2,1-3.4c0.4-1.2,1.1-1.6,2-1.4c1.1,0.3,1.4,0.9,1.3,2.3c0,0.3-0.1,0.6-0.1,1
	c2,0.4,3.8-0.1,5.6-0.6c0.6-1.2,0.2-2.4,0.1-3.5c1.8-1.6,2.2-1.6,4.4-0.5c-0.3,0.9-0.7,1.8-1,2.8c-0.4,1-0.2,2.3,0.6,3
	c1.1,1.1,0.9,1.5-0.9,2C311.5,29.9,311.4,29.9,310.9,30.1z M303.4,33.7c1.4,0.5,2.9,0.5,4.4,0.1c0.4-1.1,0.3-2.3-0.1-3.4
	c-1.8-0.1-3.4-0.4-5,0.2C302.4,31.9,302.9,32.8,303.4,33.7L303.4,33.7z"/>
<path id="패스_97" class="st0" d="M220.2,27.8c-1-1.4-1.3-3.2-0.8-4.9c0.6-2.6,2-5,3.9-6.8c0.4-0.3,0.9-0.4,1.3-0.3
	c0.6,0.3,0.6,1,0.3,1.6c-0.6,0.9-1.1,1.9-1.5,2.9c-0.2,0.5-0.3,1.1-0.2,1.7c0.1,0.7,0.7,1.2,1.4,1.1c0.1,0,0.2,0,0.2-0.1
	c1.4-0.7,2.7-1.5,4-2.5c1.6-1.4,1-4.6-1.1-5.5c-0.6-0.3-1.2-0.3-1.7-0.5c-0.5-0.3-1-0.7-1.3-1.1c-0.6-0.5-0.6-1.5-0.1-2
	c0.2-0.3,0.6-0.4,0.9-0.4c1.8-0.5,3.7,0,5,1.3c1.4,1.4,2.8,3,4,4.6c1.3,1.8,1.1,4,0.3,5.9c-1.2,3.2-3.9,5.7-7.2,6.6
	c-1.6,0.6-3.4,0.5-4.9-0.4C221.9,28.6,221,28.2,220.2,27.8z"/>
<path id="패스_98" class="st0" d="M265.8,42.7c-0.7,2.4-0.8,4.9-0.4,7.4c1.3,1,2.4,1.9,3.5,2.9c0.3,0.3,0.5,0.8,0.4,1.3
	c-0.2,0.7-0.9,0.7-1.5,0.6c-4.8-0.1-9.6-0.3-14.5-0.3c-1.6,0-3.4,0.4-5,0.5c-0.7,0.1-1.4-0.3-1.7-1c-0.4-0.7-0.2-1.5,0.4-2
	c0.8-0.5,1.6-1,2.4-1.5c0.6-1.5,1.3-2.9,1.9-4.3c0.6-1.7,2-3.1,3.7-3.7c1.6-0.6,3.2-1.1,4.8-1.6C261.9,40.1,263.9,40.5,265.8,42.7z
	 M263.1,50.3c-0.3-2.1,0.1-4.1-0.8-6.2c-2.6,0-5.1,0.8-7.1,2.3c-1.2,0.9-1.9,2.3-1.8,3.9C256.6,50.4,259.7,50.8,263.1,50.3z"/>
<path id="패스_99" class="st0" d="M281.4,20.5c-2.2-0.3-4.2-0.5-6.1-0.8c-0.7,0.6-0.9,1.7-0.4,2.5c1.1,0,2.3-0.1,3.5,0
	c0.8,0.1,1.5,0.3,2.3,0.6c0.3,0.1,0.4,0.6,0.8,1c-2.4,0.6-4.7,0-6.8,1.2c0.1,0.6,0.2,1.3,0.3,2c1.8-0.3,3.4-0.6,4.9-0.8
	c0.7-0.1,1.4-0.1,2.1-0.1c0.6,0,0.8,0.3,1.7,1.6c-3,1.1-6.5,0.6-9,3.1c-2.3-1.1-1.5-3.5-2.1-5.5c-0.5,0.1-1,0.2-1.5,0.3
	c-0.4,0-0.8,0-1.1-0.1c-0.5-0.1-0.7-0.6-0.6-1.1c0-0.1,0.1-0.3,0.2-0.4c0.8-0.6,1.7-1.1,2.6-1.6v-2.8c-0.6-0.1-1.1-0.2-1.7-0.4
	c-0.3-0.1-0.8-0.5-0.8-0.8c0-0.5,0.2-0.9,0.5-1.3c0.3-0.2,0.7-0.4,1.1-0.4c2.7-0.3,5.5-0.1,8.1,0.8C280.7,18,281.5,19.2,281.4,20.5z
	"/>
<path id="패스_100" class="st0" d="M312,37.7c-0.1-1.9,0.8-3.7,2.3-4.9c1.8-1.5,3.6-1.1,4.5,1c0.3,0.7,0.6,1.4,0.8,2.1
	c0.6,2.4-0.8,4.7-3.2,5.4c-1.2,0.3-2.4,0-3.4-0.8C312.1,39.8,312.1,38.7,312,37.7z M316.2,34.7c-1.1,0.6-1.7,1.8-1.8,3
	c0,0.9,0.6,1.8,1.6,1.9c0.6,0.2,1.3-0.2,1.5-0.8c0-0.1,0-0.1,0-0.2C317.9,37.3,317.4,35.7,316.2,34.7L316.2,34.7z"/>
<path id="패스_101" class="st0" d="M318.6,27.3c-0.7,1.8-1.3,3.4-2,5.1c-0.1,0.1-0.3,0.1-0.7,0.3c-0.3-2.3,0.5-4.4,0.6-6.5
	c0.1-2.2,0.2-4.4,0.3-6.6c0.6-0.4,1-0.3,1.2,0.3c0.2,0.8,0.4,1.6,0.6,2.5c2.9,0.1,5.8,0.4,8.7-0.3c1.4-0.4,2.9-0.3,4.2,0.4
	c-1.1,1.5-2.2,3-3.4,4.4c-0.5,0.6-1.3,1-2.2,0.9c-1-0.1-2-0.2-3-0.3C321.5,27.2,320,27.3,318.6,27.3z"/>
<path id="패스_102" class="st0" d="M274.3,35.4c-0.4,0.6-0.5,1-0.7,1c-6.5,1.6-13.2,2.3-19.9,2c-3.9-0.3-7.7-1.4-11.2-3.1
	c-1-0.5-1.9-1.2-2.7-2c-0.4-0.4-0.4-1.1-0.5-1.6c0.4-0.1,0.6-0.2,0.7-0.1c6.3,2.1,12.9,2.2,19.4,2.6c4.2,0.3,8.3,0.6,12.5,0.9
	C272.7,35.1,273.5,35.3,274.3,35.4z"/>
<g id="그룹_93" transform="translate(0.2 0.019)">
	<g id="그룹_91" transform="translate(-0.2 -0.019)">
		<g id="그룹_89" transform="translate(35.748)">
			<path id="패스_135" class="st1" d="M7.2,20.2C7.2,20.2,7.1,20.2,7.2,20.2c-0.3-0.1-0.5,0-0.7,0.3l-0.2,0.2
				c-0.8,0.4-1.4,2.3-1.5,3.1c0,0-0.1,0-0.1,0.1c-0.5-0.9-1.3-1.5-2.2-1.7c0.4,1.4,1.5,5.4,3.1,5.1c0.8-0.2,2.5-3.6,2.5-5.5v-0.1
				C8.2,21.1,7.8,20.4,7.2,20.2z"/>
		</g>
		<path id="패스_136" class="st1" d="M53.6,41c-1.5-0.1-3.1,0.2-4.6,0.6c-0.3,0.1-0.5,0.3-0.7,0.5c0.1,0.4-0.2,1,0.2,1.2
			c0,0,0,0.1,0.1,0.1c0.1,0.1,0.2,0.1,0.4,0.3c0.1,0.1,0.2,0,0.2,0.1s0.1,0.1,0.1,0.1c0.2,0.1,0.4,0.1,0.6,0.2
			c0.1,0,0.2,0.1,0.3,0.1c0.1,0,0.1,0.1,0.2,0.2c0.4,0.2,0.7,0,1,0c1.1,0,0.9-0.1,2-0.2c0.9,0,1.8,0.1,2.7,0.1c0.5,0,1,0,1.5-0.1
			c0.9-0.1,1.8,0.1,2.7,0.1c0.4,0,0.9,0.2,1.4,0.2c0.5-0.1,0.9-0.1,1.4,0c0.2,0,0.3,0,0.5,0.1c0.1,0.1,0.3,0.1,0.4,0.2
			c0.4,0,0.8-0.1,1.2-0.3c0.3,0,0.5-0.1,0.7-0.3c0.1-0.1,0.2-0.3,0.3-0.4c0.1-0.3,0.2-0.7,0.1-1h-0.1c-0.1-0.1-0.1-0.2-0.1-0.2
			c-0.2-0.1-0.3-0.1-0.5-0.1c-0.2-0.1-0.5-0.2-0.7-0.2C61.1,41.3,57.4,41,53.6,41z"/>
		<path id="패스_137" class="st1" d="M34.5,41.7c0.2,0.1,0.4,0.1,0.5,0.2s-0.1,0.3-0.1,0.4c0,0.3,0.1,0.6,0.1,0.9
			c0,0.1,0,0.1-0.1,0.2c-0.1,0.1-0.2,0.2-0.3,0.2c-0.3,0.2-0.6,0.1-0.9,0.2c-0.4,0.1-0.8,0.2-1.3,0.2c-0.8,0-1.5,0-2.3-0.1
			c-0.3,0-0.6,0-0.9,0.1c-0.3,0.1-0.7,0.1-1,0.1C26.3,44,24.5,44,22.7,44c-0.3,0-0.7,0.1-1,0.1c-1.5,0.1-3,0.1-4.5,0.1
			c-0.5,0-1,0.1-1.6,0h-0.8c-1.1,0.1-2.2,0.1-3.4,0.1h-1.3c-1.2,0.1-2.5,0.3-3.7,0.2c-0.9,0-1.8-0.3-2.6-0.7c-0.5-0.3-1-0.7-1.3-1.2
			C2.7,42.3,3,42.1,3.4,42c0.8-0.2,1.6-0.4,2.4-0.5c0.7-0.1,1.4-0.2,2-0.3c7.6-0.6,15.2-0.7,22.8-0.3C32,41.3,33.2,41.5,34.5,41.7z"
			/>
		<path id="패스_138" class="st1" d="M50.5,33.4v0.1c0.1,0.2,0.3,0.3,0.4,0.4h0.5c0-0.1,0.1,0,0.1-0.1c0.1,0,0.3-0.1,0.4-0.2H52
			c0.1-0.2,0.2-0.3,0.4-0.3l0.6-0.8c0-0.1,0-0.2,0.1-0.3c0.1-0.5,0.2-1,0.4-1.4c0-0.2,0.1-0.4,0.1-0.5c0.1,0,0.1,0,0.1-0.1
			c-0.1-0.2,0.1-0.3,0.2-0.4c0.1,0,0.2,0,0.2-0.1v-0.1c0.3,0,0.5,0.2,0.6,0.4h0.3c0,0.1,0.1,0.1,0.1,0.2c0.3,0,0.6,0,0.9,0.1
			c0,0.2,0.2,0.1,0.3,0.3c0,0.2,0.1,0.3,0.2,0.5c0,0.1,0,0.1-0.1,0.2c0.1,0.2,0.2,0.4,0.1,0.6c0,0.2,0,0.5,0.1,0.7
			c-0.1,0.1-0.1,0.3-0.1,0.4c0.1,0.2,0.1,0.5,0.2,0.7c0.2,0.3,0.2,0.6,0.3,0.8v0.3c0.1,0,0,0.2,0.1,0.2c0,0.3,0,0.6-0.1,0.9
			l-0.2,0.2V36c-0.1,0-0.1,0-0.1-0.1c-0.1,0.2-0.3,0.3-0.4,0.4c-0.1-0.1-0.2,0.1-0.2,0.1c-0.1,0,0,0.2-0.1,0.2c-0.1,0-0.2,0-0.3,0.1
			c-0.1,0.1-0.5-0.1-0.6,0.1l-0.1-0.1c-0.1,0.1-0.1,0.1-0.2,0.1c0-0.1,0-0.1-0.1-0.1c-0.1,0.2-0.3,0.3-0.5,0.2
			c-0.1-0.1-0.1-0.2-0.2-0.2c0-0.3-0.1-0.6-0.2-0.9c0.1,0,0.1-0.1,0.1-0.1c-0.1-0.1-0.1-0.3-0.1-0.4c-0.1-0.2-0.2-0.5-0.3-0.6
			c0.1-0.1-0.1-0.1-0.1-0.2c-0.1-0.1-0.1-0.2-0.2-0.2c-0.1,0-0.1,0.1-0.1,0.1c-0.1,0.2-0.3,0.4-0.3,0.6L52.9,35
			c-0.1,0.2-0.2,0.2-0.2,0.4c-0.1,0.1-0.1,0.2-0.2,0.2v0.1c-0.3,0.3-0.5,0.7-0.8,0.9c-0.1,0.2-0.3,0.2-0.4,0.4c-0.2,0-0.4,0-0.5,0.1
			c-0.1-0.1-0.3-0.2-0.4-0.1c0-0.1-0.1-0.1-0.1-0.1l-0.1,0.1c-0.1-0.1-0.3,0-0.4-0.1c-0.3-0.2-0.7-0.4-1.1-0.6c-0.1,0,0-0.2-0.1-0.2
			c-0.1,0-0.1,0-0.2-0.1c0-0.2,0.1-0.3-0.1-0.4l0.1-0.1c0-0.1-0.1-0.1-0.1-0.1c-0.1-0.3-0.2-0.6-0.3-0.9l-0.1-0.1
			c0-0.1,0-0.3-0.1-0.4c-0.1-0.2,0.2-0.4,0.1-0.6c0-0.1,0-0.1,0.1-0.2c0-0.2,0-0.5,0.1-0.7c-0.1,0-0.1-0.1-0.1-0.1
			c0.1-0.2,0.1-0.4,0.1-0.6c0.1-0.2,0.2-0.3,0.2-0.5l-0.1-0.1c0.1-0.1,0.1-0.3,0.2-0.4c0-0.1,0-0.1-0.1-0.1c0-0.1,0.1-0.2,0.2-0.2
			c0.1-0.2,0.2-0.4,0.4-0.6l-0.1-0.1c0.1-0.2,0.3-0.2,0.5-0.2c0.2,0,0.3,0.1,0.5,0.2c0.1,0.1,0,0.2,0.1,0.4H50v0.1c0,0,0,0.1,0,0.1
			c0,0,0,0,0,0c0.1,0.2,0.1,0.3,0.1,0.5c0,0.1,0.1,0.1,0.1,0.1c-0.1,0.1,0.1,0.2,0.1,0.3c-0.1,0.1,0,0.3-0.1,0.4
			c0.1,0.3,0.1,0.6,0.2,0.8C50.3,33,50.4,33.2,50.5,33.4z"/>
		<path id="패스_139" class="st1" d="M30,35.3c0,0,0.2,0.2,0.3,0.2c0.1,0.1,0.2,0.2,0.3,0.3l0.2,0.1l0.1,0.2l0.2,0.2
			c0.2,0.1,0.2-0.1,0.4,0.2c0.1,0,0.1,0,0.1,0.1l0.1-0.1c0.1,0.1,0.2,0.2,0.3,0.2c0.2,0,0.3,0.1,0.5,0.2c0.1,0,0.1,0.1,0.1,0.1
			c0.2,0.1,0.3,0.2,0.4,0.1c0.1,0,0.1,0,0.1,0.1l0.1-0.1c0.1-0.1,0.2,0.1,0.3,0.1c0.1,0,0.1,0.1,0.1,0.1h0.1
			c0.1,0.1,0.6-0.1,0.8,0.1c0.6,0,1.2,0,1.8-0.1c0-0.1,0.2,0,0.2-0.1l0.1,0.1c0.2,0.1,0.5-0.2,0.7-0.1l0.1-0.1
			c0.1-0.1,0.3,0.2,0.4,0c0,0.1,0.1,0.1,0.1,0.1v-0.1c0.2-0.1,0.4-0.1,0.5-0.2h0.2l0.1-0.1c0.3-0.1,0.6-0.3,0.9-0.4
			c0.1-0.1,0.2-0.1,0.2-0.2h0.2l0.2-0.2c0.2,0.1,0.3-0.2,0.5-0.3c0-0.1,0-0.1,0.1-0.1l0.1,0.1c0.1-0.1,0.1-0.1,0.2-0.2
			c0.2,0,0.3-0.2,0.4-0.3h0.1l0.1-0.1h0.1c0.2-0.1,0.3-0.3,0.5-0.4c0-0.1,0-0.1,0.1-0.1c0.1,0.1,0.1-0.1,0.2-0.2s0.2-0.2,0.3-0.1
			c0,0.1,0.2-0.2,0.2-0.2c0.1,0.1,0.3-0.5,0.3-0.5L42,32.1c-0.2,0.3-0.8,1.1-1.2,1.2c0,0.3-0.3,0.3-0.5,0.4c0,0.1,0,0.1-0.1,0.1
			c-0.2,0.1-0.3,0.2-0.4,0.3c0-0.1-0.1-0.1-0.1,0c0,0.1-0.2,0.1-0.2,0.2c-0.2,0.1-0.2,0.2-0.3,0.3l-0.1-0.1
			c-0.2,0.2-0.5,0.2-0.6,0.4c-0.3,0.1-0.6,0.2-0.9,0.3c-0.1,0-0.1,0-0.1-0.1c-0.1,0.1-0.3,0-0.3,0.1c-0.3,0-0.7,0-1,0.1
			c0-0.1-0.2,0-0.2-0.1c-0.3,0.1-0.6-0.1-0.9-0.1c-0.1-0.1-0.2-0.1-0.2-0.2c-0.2,0.1-0.5,0-0.6-0.2c-0.2,0-0.3-0.2-0.5-0.2v-0.1
			l-0.1-0.1c0-0.2,0.2-0.2,0.3-0.2c0.1-0.2,0.4-0.1,0.5-0.3c0-0.1,0.2-0.2,0.2-0.2c0.1-0.1,0.1-0.2,0.2-0.2c0.2-0.1,0.1-0.2,0.3-0.3
			c0-0.1,0.2-0.2,0.1-0.2c0.2-0.2,0.2-0.3,0.3-0.6c0.1-0.1,0.2-0.3,0.3-0.5c0.1-0.1,0-0.3,0.1-0.3c0.1-0.4-0.1-0.6-0.1-0.9l-0.1-0.1
			c0-0.2-0.1-0.3-0.1-0.4c-0.2-0.2-0.2-0.2-0.3-0.4l-0.1-0.1h-0.1c-0.1-0.1-0.2-0.2-0.2-0.3c-0.2-0.1-0.5-0.2-0.7-0.3l-0.1,0.1
			l-0.1-0.1l-0.1,0.1c0-0.2-0.2,0-0.2-0.1c-0.1,0-0.3,0-0.4,0.1c-0.4-0.1-0.7,0.1-1.1-0.1c0,0.1-0.2-0.1-0.2,0.1
			c-0.1,0.1-0.3,0.1-0.4,0.1h-0.2c-0.2,0.2-0.4,0.3-0.7,0.3c-0.1,0,0,0.2-0.1,0.2h-0.1c-0.3,0.3-0.6,0.6-0.9,0.8
			c0,0.1-0.1,0.1-0.1,0.2c0,0.1-0.1,0.1-0.1,0.1c0,0.1,0,0.2-0.1,0.2c0,0.1,0,0.1,0.1,0.1c0,0.1-0.1,0.1-0.2,0.2
			c-0.1,0.2-0.1,0.4-0.2,0.5c0,0.3-0.1,0.7-0.2,1c0,0.3,0.1,0.6,0.1,0.8c0.2,0.1-0.1,0.1,0.1,0.3c0.1,0,0.1,0.1,0.1,0.2
			c0.1,0.1,0.3,0.2,0.2,0.3c0,0.1,0.1,0.1,0.2,0.1c0.1,0.1-0.1,0.2,0.1,0.3c0,0.1,0.2,0,0.2,0.1L30,35.3z M33.8,31.9
			c-0.1,0.1,0,0.2-0.1,0.2l0.1,0.1c-0.1,0.6-0.4,1.1-0.9,1.5c-0.1,0-0.1,0-0.1-0.1c0-0.1-0.1-0.3-0.1-0.4c0-0.1-0.1-0.1-0.1-0.1
			c0.1-0.1-0.1-0.2,0-0.4c-0.1,0-0.1-0.1-0.1-0.1c0.2-0.1,0.1-0.4,0.2-0.5l-0.1-0.1c0.1-0.1,0.2-0.3,0.3-0.4v-0.1
			c0.3-0.2,0.5-0.3,0.8-0.4c0.1,0,0.1,0,0.1,0.1C34,31.5,33.9,31.7,33.8,31.9L33.8,31.9z"/>
		<path id="패스_140" class="st1" d="M44,31.4v0.2c0.4,0.4,0.3,1,0.6,1.5c-0.1,0.2-0.1,0.4-0.1,0.5c0,0,0.1,0.1,0.2,0.1
			c-0.1,0.4,0.2,0.7,0.1,1c0,0.1-0.1,0.1-0.1,0.2c0,0.1,0,0.2,0.1,0.2l-0.1,0.1l0.1,0.1l-0.1,0.1c0.1,0,0.1,0.1,0.1,0.2
			c-0.1,0.2,0.1,0.4-0.1,0.5c0.1,0,0.1,0.1,0.1,0.2c-0.2,0.2-0.1,0.5-0.3,0.7l0.1,0.1l-0.1,0.1L44.5,37c-0.1,0-0.1,0.1-0.1,0.2
			c0.1,0.2,0.2,0.3,0.1,0.4l0.1,0.1c-0.2,0.1-0.3,0.3-0.3,0.5c0,0-0.1,0.1-0.1,0.2c0,0.1,0.1,0.1,0.1,0.2c-0.1,0.2-0.2,0.3-0.3,0.4
			c0,0.1,0.1,0.2-0.1,0.3l0.1,0.1c0,0.2-0.1,0.3-0.2,0.5c0.1,0,0.1,0.1,0.1,0.2c-0.2,0.2-0.4,0.3-0.4,0.6c-0.1,0.2-0.3,0.3-0.4,0.5
			c0.1,0.2-0.2,0.2-0.2,0.3c0,0.2-0.2,0.1-0.1,0.2l0.1,0.1h-0.1c-0.1,0.2-0.1,0.2-0.2,0.2c0,0.1,0,0.2-0.1,0.2
			c-0.1,0.1-0.2,0.2-0.3,0.4c0.1,0.1-0.2,0.2-0.2,0.2c-0.1,0.1-0.2,0.2-0.2,0.3c-0.1,0-0.2,0-0.2,0.1V43C41.5,43,41.5,43,41.4,43
			c-0.5,0.6-1.3,0.8-1.8,1.4c-0.1,0-0.3,0.1-0.4,0.2c-0.2,0.1-0.1,0.3-0.2,0.2c0-0.1-0.2,0.1-0.3,0.1c-0.2,0.1-0.4,0.1-0.5,0
			c0-0.1-0.1-0.1-0.2-0.1L38,44.8c-0.1-0.1-0.2-0.2-0.3-0.2c-0.1-0.1,0.1-0.2,0-0.2l0.1-0.1c0-0.1-0.1-0.1-0.2-0.1
			c-0.1-0.2,0.2-0.1,0.1-0.2h-0.3c-0.1-0.2-0.2-0.2-0.3-0.3c0-0.2,0.3-0.1,0.3-0.3c0.2,0,0.1,0,0.2-0.1v-0.2
			c0.2-0.1,0.1-0.2,0.2-0.2c0,0.1,0.1,0,0.1,0s0.2,0,0.2-0.1c0-0.1,0-0.2,0.1-0.2h0.2c0.3-0.3,0.1-0.1,0.4-0.4v-0.2
			c0.1-0.1,0.1-0.2,0.2-0.3c0,0.1,0,0.2,0.1,0.2c0.2-0.1,0.1-0.2,0.1-0.4c0,0,0.1-0.1,0.2-0.1c0,0.1,0.1,0,0.1,0
			c0,0.1,0.1-0.2,0.2-0.2c0.2-0.3,0.1,0.1,0.3-0.4c0.1-0.1,0.2-0.1,0.2-0.2c0,0,0.2-0.1,0.1-0.2c0-0.1,0-0.1-0.1,0
			c0.1-0.2,0.3-0.3,0.3-0.5c0.2,0.1,0.1-0.2,0.2-0.2c-0.1,0.1-0.2-0.1-0.2,0h0.2c0.2-0.1-0.2-0.1-0.1-0.3c0-0.1,0-0.1-0.1-0.1
			c0-0.1,0-0.1,0.1-0.1l0.1,0.1c0.1-0.1-0.1-0.3,0.1-0.4v-0.2c0.2-0.2,0.1-0.1,0.2-0.3l-0.1-0.1c0,0.1,0.2-0.1,0.1-0.1v-0.2
			c0.2-0.1,0.2-0.5,0.2-0.7c0,0.2-0.2-0.3,0-0.3c0.2-0.3,0.1-0.7,0.1-1c-0.2-0.1,0.1-0.2,0.1-0.3c-0.1,0-0.2,0-0.2-0.1
			c0,0,0.1-0.1,0.1-0.2c0-0.1,0-0.2-0.1-0.1c0-0.1,0-0.2,0.1-0.2c0-0.1,0-0.2-0.1-0.1c0,0,0.1-0.1,0.1-0.2c0-0.1-0.1-0.1-0.2-0.1
			c0.1-0.3-0.3-0.5-0.2-0.8c-0.1,0-0.1-0.1-0.1-0.1c0.2-0.2-0.1-0.5,0.1-0.7c-0.2-0.1-0.1-0.2-0.1-0.3c0.1-0.1-0.1-0.2-0.1-0.2
			c-0.1-0.3-0.2-0.6-0.2-0.9c-0.1,0.1-0.2-0.9-0.4-1.4c-0.2-0.3-0.1-0.6-0.2-0.8c0.1,0,0.2,0,0.2-0.1c-0.1-0.2,0.1-0.3,0.2-0.5
			c0.2,0,0.3-0.1,0.4,0c0.2-0.1,0.1-0.2,0.1-0.3c0.3-0.1,0.5-0.1,0.8-0.1c0,0.1,0,0.2,0.1,0.2c0.2-0.1,0.3,0.1,0.5,0.1
			c0,0.1,0,0.2,0.1,0.2c0.1,0,0.2,0,0.3,0.1c0.1,0,0.2,0,0.2-0.1l0.1,0.1l0.1-0.1c0.1,0,0.1,0.1,0.2,0.1c0.1,0.1,0.1,0.3,0.3,0.2
			C43.4,30.6,43.7,31,44,31.4z"/>
		<g id="그룹_90" transform="translate(9.037 2.631)">
			<path id="패스_141" class="st1" d="M3.5,30.1c0-0.1-0.2-0.2-0.3-0.2S3,30.1,3,30c-0.1,0.1-0.1,0.2-0.3,0.3
				c-0.1,0-0.1,0-0.2,0.1c-0.1,0.2-0.1,0.2,0.1,0.6c0.1,0,0.2,0.4,0.2,0.4c-0.1-0.2,0.2,0.3,0.3,0.4h0.1c0.1,0,0,0.1,0,0.1L3.4,32
				c0,0.1,0.1,0.1,0,0.2c0.2,0,0.3,0.1,0.4,0.2c0.1,0,0,0.1,0,0.1c0.1,0,0.1,0.1,0.1,0C4,32.4,4,32.5,4,32.5H4
				c0,0.1,0.1,0.1,0.1,0.1c0.2,0.2,0.8,0.5,1,0.7l0.1-0.1c0.1,0.1,0.4,0.2,0.4,0.3l0.1-0.1c0.2,0.1,0.4,0.2,0.6,0.2
				c0.1-0.1-0.1-0.1,0.1-0.2c0.1,0.1,0.2,0.2,0.3,0.3c0.1,0,0.2,0,0.3,0.1c0.2,0.2,0.5,0.1,0.8,0.2l0.1,0.1L7.8,34l0.1,0.1
				C8,34,8.1,34.1,8.2,34L8.3,34L8.3,34C8.4,34,8.4,34,8.4,34.1c0.2,0.1,0.4,0.1,0.6,0c0,0.1,0.1,0.1,0.1,0.1
				c0.1-0.1,0.1-0.1,0.2-0.1c0.2,0.1,0.2,0.1,0.3,0.1v0.1c0.2-0.1,0.3-0.1,0.5-0.1c0.1-0.1,0.2,0.1,0.2-0.1l0.1,0.1
				c0.2-0.1,0.4-0.1,0.6-0.1v0.1c0.1-0.1,0.1,0,0.1,0c0.2-0.1,0.5-0.1,0.6-0.2c0.2,0.1,0.2,0.1,0.4,0.1c0.1,0,0.2,0.1,0.2,0.1
				c0.2-0.1,0.4-0.2,0.6-0.1c0.3-0.1,0.5-0.2,0.7-0.3c0.1,0,0.1,0.1,0.2,0.1c0.1-0.1,0.1,0,0.2-0.1c0.2-0.1,0.4-0.2,0.6-0.3
				c0,0.1,0.2-0.1,0.2,0c0.1-0.1,0.1-0.1,0.1-0.1c0.1,0.1,0.2-0.1,0.3-0.1c0.1-0.1,0.1-0.1,0.1-0.1c0.2-0.1,0.1-0.1,0.3-0.2
				c0.2-0.1,0.3-0.4,0.6-0.5c0-0.1,0.2-0.2,0.3-0.3c0-0.1,0.1-0.1,0.1,0L16,32.1c0.1-0.1,0.1-0.2,0.1-0.1c0-0.1,0.1-0.2,0.1-0.2
				c0.2-0.1,0.2-0.5,0.4-0.5c0-0.1,0-0.1,0.1-0.1c0.1-0.1,0.1-0.3,0.1-0.4c0-0.1,0-0.1,0.1-0.1c0.1-0.2,0.1-0.5,0.2-0.7
				c-0.1,0,0-0.1,0-0.1C17,30,17,30,17,29.9c-0.1,0,0-0.1,0-0.1l0.1-0.1c-0.1,0,0-0.2-0.1-0.2l0.1-0.1c-0.1-0.2,0.1-0.4-0.1-0.6
				l0.1-0.1c-0.1-0.1-0.1-0.3,0-0.4c0,0,0,0,0,0c-0.1-0.1,0-0.1,0-0.2c-0.1-0.1,0-0.2-0.1-0.2c0.1-0.2-0.1-0.3,0-0.4
				c0-0.1-0.1-0.2-0.2-0.3c0-0.1,0-0.1,0.1-0.2c-0.1,0-0.1,0-0.1-0.1c0.1-0.1,0-0.2,0-0.3c-0.1,0-0.1-0.1-0.1-0.2
				c0-0.2-0.1-0.4-0.3-0.6c0.1-0.1-0.1-0.5-0.1-0.6l-0.1-0.1c-0.1-0.1-0.1-0.2-0.2-0.3v-0.1c-0.1,0-0.1,0-0.1-0.1v-0.1l0.2,0.4
				c-0.1-0.1-0.1-0.2-0.1-0.3c-0.1-0.3-0.3-0.5-0.5-0.7c-0.1,0.1,0-0.2-0.1-0.1c-0.1-0.2-0.2-0.4-0.4-0.5v-0.1h-0.1
				c-0.1,0-0.1-0.1-0.1-0.1c-0.3-0.2-1.4-0.3-1.5-0.6c-0.1,0-0.2-0.1-0.3,0.1l-0.1-0.1c-0.3,0.2-0.5-0.1-0.7-0.2h-0.1
				c-0.1-0.2-0.2,0-0.3,0c0,0-0.1-0.1-0.2-0.1c-0.3,0.1-0.5,0-0.7,0.3v-0.1l0.5,1c0.1,0.3,0.2,0.7,0.3,1c0.1,0,0.1,0.1,0.2,0.2v0.1
				c0.1,0.1,0.2,0.3,0.2,0.4c-0.1,0-0.1,0.1-0.1,0.1c0.1,0.2,0.1,0.4,0.1,0.6c0.1,0.1,0,0.1,0.1,0.2l-0.1,0.1c0,0.1,0,0.1,0,0.2
				c0.1,0.2,0,0.1,0.2,0.2c-0.1,0.2,0.1,0.4-0.1,0.6c0.1,0.1,0.1-0.1,0.1,0.1c0,0.1,0,0.1-0.1,0.1c0,0.1,0,0.1,0.1,0.1
				c0.1,0.1-0.1,0.2,0,0.3c0.1,0,0,0.2,0.1,0.2c0,0.1,0.2,0.1,0,0.2c-0.1,0,0,0.2-0.1,0.3c0.1,0.1,0,0.3,0,0.3c0.1,0,0.1-0.1,0.1,0
				s0,0.1-0.1,0.1c0.1,0,0.1,0.1,0,0.2c0,0.2-0.1,0.2-0.2,0.4c-0.1,0.3,0.1,0.5-0.1,0.6c0.1,0.1,0,0.2-0.1,0.2s-0.1,0.2-0.1,0.2
				c-0.1,0.1-0.1,0.2-0.2,0.4c-0.1,0.1-0.2,0.2-0.3,0.2c0,0.1,0,0.1-0.1,0.1c0,0.1-0.1,0.1-0.1,0c-0.1,0.1-0.4,0.2-0.4,0.3v0.1
				c-0.2,0.1-0.2,0.1-0.4,0.2c-0.2,0.1-0.3,0.1-0.5,0.2C10.3,31.9,10.2,32,10,32c-0.1,0.1-0.1,0.1-0.2,0.1c-0.1,0-0.2,0.1-0.3,0
				c-0.1,0-0.1,0.1-0.2,0.1H9.3v-0.1c-0.1,0.1-0.2,0-0.4,0.1v-0.1c-0.1,0.1-0.2,0-0.3,0.1c-0.2,0-0.3-0.1-0.5-0.1
				c0-0.1,0-0.1-0.1-0.1L8,32.2c0-0.1-0.4,0-0.4,0H7.5v-0.1l-0.1,0.1c-0.1-0.1-0.5-0.1-0.6-0.2c-0.1,0.1-0.2,0.1-0.3,0
				c-0.3,0-0.6-0.1-0.9-0.2l-0.1-0.1c-0.1,0.1-0.3,0-0.4-0.1c-0.1,0-0.1,0-0.2-0.1c-0.1-0.1-0.4-0.1-0.4-0.2
				c-0.1-0.1-0.2-0.1-0.2-0.2C4.3,31.2,4,30.9,4,30.9H3.8l-0.1-0.2l-0.2-0.2C3.6,30.1,3.5,30.2,3.5,30.1z"/>
			<path id="패스_142" class="st1" d="M7.1,23.5h0.2c0.3,0.3,0.9,0.2,1.3,0.4c0.2-0.1,0.3-0.1,0.5-0.1l0.1,0.1
				c0.4-0.1,0.5,0.1,0.8,0.1c0.1,0,0.1-0.1,0.2-0.1c0.1,0,0.1,0,0.1,0.1l0.1-0.1l0.1,0.1l0.1-0.1c0,0.1,0.1,0.1,0.1,0.1
				c0.2-0.1,0.3,0.1,0.4-0.1c0.1,0.1,0.1,0.1,0.2,0.1c0.2-0.2,0.3,0,0.5-0.1l0.1,0.1l0.1-0.1h-0.1c0-0.1,0.1-0.1,0.2-0.1
				c0.1,0.1,0.2,0.2,0.3,0.1l0.1,0.1c0.1-0.1-0.7-0.1,0.6-0.2c0.1-0.1,0.1-0.1,0.2-0.1c0.1,0.1,0.1,0.1,0.2,0.1l0.5-0.2
				c0.1,0,0.2,0.1,0.3,0l0.1,0.1c0.2,0,0.3,0,0.5-0.1c0,0.1-0.1-0.1-0.1-0.1c0.2-0.1,0.4-0.2,0.6-0.1c0.2,0,0.3-0.2,0.5-0.2
				c0.1,0.1,0.3-0.1,0.4-0.1s0.1-0.1,0.2,0v0.1c0.1-0.1,0.1-0.1,0.1-0.1c0.1,0,0.2,0,0.3-0.1c0,0,0.1,0.1,0.1,0c0,0,0,0,0,0
				c0.1,0.1,0.2,0.1,0.3,0.1c0,0.1,0.2-0.1,0.1,0c0.1,0,0.2-0.1,0.3,0c0.1-0.1,0.1-0.1,0.1-0.1l0.1,0.1c0.1,0,0.1,0,0.1-0.1
				c0.7-0.1,1-0.4,1.7-0.4c0.1-0.1,0.3-0.1,0.4-0.2c0.1-0.1,0.2,0.1,0.3-0.1c-0.1-0.1,0.2-0.1,0.2-0.1c0.2,0,0.3-0.3,0.3-0.4
				c-0.1-0.1,0-0.1,0-0.2h0.1c0-0.1-0.1-0.4,0-0.5c0-0.1-0.2-0.1-0.1-0.1l-0.1-0.1c0-0.1,0.1-0.2,0.1-0.2c-0.1-0.2-0.2,0-0.3-0.1
				l0.1-0.2c0-0.1-0.3-0.2-0.4-0.3c-0.1,0.1-0.1,0.1-0.2,0.1l-0.1-0.1c-0.1,0.1-0.2,0-0.2,0.1c0.1,0.1-0.1,0.1-0.1,0.1
				c-0.1,0.1-0.1,0.1-0.1,0.1c0,0-0.1-0.1-0.2-0.1c-0.1,0.1-0.1,0.1-0.1,0.1c-0.4,0.1-0.8,0-1.2-0.1c-0.1,0-0.1,0-0.2,0.1
				c0.1,0.1-0.1,0.1,0,0.1c0.1,0.1-0.2-0.1-0.2,0c-0.3,0-0.8,0.1-0.7,0c-0.2,0-0.4,0.1-0.5,0c-0.1,0.2-0.2-0.1-0.3,0
				c0.1,0-0.1-0.1-0.1,0v0.1c-0.2,0.1-0.2-0.1-0.3-0.1c-0.1,0-0.1-0.1-0.1-0.1c-0.1,0-0.1-0.1-0.1,0l0.1,0.1
				c-0.1,0.1-0.2-0.2-0.3-0.1c-0.1,0-0.1-0.1-0.2-0.1C14.9,21,14.7,21,14.5,21l-0.1-0.1c0.1,0-0.1,0.1-0.1,0.1h-0.1
				c-0.2,0.1-0.4,0.1-0.6,0.1c0.1,0.1-0.2-0.2-0.2-0.1c-0.3,0.1-0.6-0.1-0.9-0.1c0-0.1-0.2,0.1-0.3,0c0-0.1,0.1-0.1,0-0.1
				c-0.1,0.1-0.2,0-0.2,0.1c-0.1,0-0.1,0-0.1-0.1c-0.1,0-0.1,0-0.2,0.1c-0.1,0-0.1,0-0.1-0.1c-0.1,0.1-0.2,0.1-0.2,0.2
				c-0.1,0-0.1-0.1-0.1-0.1c-0.3,0.1-0.4-0.2-0.7-0.1c0-0.1-0.1-0.1-0.1-0.1c-0.2,0.2-0.5,0-0.7,0.1c-0.1-0.1-0.2-0.1-0.3-0.1
				c-0.3,0-0.3-0.2-0.4-0.2c-0.3-0.1-0.5-0.1-0.8-0.1c0.1-0.1-0.8-0.1-1.2-0.2c-0.2-0.1-0.5,0-0.7-0.1c0,0.1,0,0.1-0.1,0.1
				c-0.2-0.1-0.3,0.1-0.5,0.2c-0.1,0.1-0.2,0.2-0.1,0.3c-0.1,0.1-0.1,0.2-0.2,0.2c-0.1,0.3-0.1,0.2-0.2,0.4c0.1,0,0.1,0,0.1,0.1
				c-0.1,0.2,0.1,0.3,0,0.4c0.1,0,0.1,0,0.1,0.1c-0.1,0.1,0,0.2,0.1,0.3c0,0.1,0,0.1-0.1,0.1l0.1,0.1l-0.1,0.1c0,0,0.1,0.1,0,0.1
				c0,0,0,0,0,0c0.1,0.1,0.2,0.1,0.2,0.2C6.2,23,6.6,23.3,7.1,23.5z"/>
		</g>
	</g>
	<g id="그룹_92" transform="translate(70.51 4.289)">
		<path id="패스_143" class="st1" d="M8.5,28.8c0.2-0.2,3.4-4.4,3.4-4.4l-1.5-2.2c-0.7,0.1-1.4,0.3-2.1,0.3
			c-0.8,0-5.2-0.2-5.2-0.2l0.4,1.9c0,0,4.3-0.3,5.2-0.3c-1.5,2.8-6.2,10-6.2,10l1.3,0.5c0,0,1.5-1.7,3.8-4.6
			c1.1,1.3,2.1,2.8,2.9,4.3l0.1,0.2l1.6-2.4l0-0.1C11,30.8,9.8,29.8,8.5,28.8z"/>
		<path id="패스_144" class="st1" d="M13.1,27.5c-1.3-0.1-2.7-0.2-2.7-0.2l0.2,2.1c0,0,2.4-0.4,2.6-0.5c0.2,3.1,0.2,9.3,0.2,9.3
			l1.8-0.9v-0.1c0-0.6,0.6-15.9,0.6-15.9l-2.9-0.6C12.9,20.8,13,23.1,13.1,27.5z"/>
		<path id="패스_145" class="st1" d="M17,39.3l1.9-1l0.7-17.7l-3.2-0.3C16.5,20.2,17,36.1,17,39.3z"/>
		<path id="패스_146" class="st1" d="M113.1,39.3l2-1l0.7-17.8l-3.3-0.3C112.6,20.2,113.1,36.1,113.1,39.3z"/>
		<path id="패스_147" class="st1" d="M96,20.4l-3.3-0.3c0,0,0.5,15.8,0.6,19l2-1l0.4-9.3c1,0.2,3.1,0.5,3.1,0.5
			c0.1-0.6,0.2-2,0.2-2s-2.1,0.2-3.2,0.3L96,20.4z"/>
		<path id="패스_148" class="st1" d="M25.1,29c0,0,4.6-2.1,6.7-3.2c1.8,1,4.9,2.8,6,3.4l0.1,0.1l1.1-2.2L33.4,25
			c0.4-0.2,4.2-2.1,4.2-2.1l-2-1.8c-1.7,0.7-10.7,0.3-10.7,0.3l0.2,1.5c0,0,6.4,0.1,7,0.1c-2.6,2.1-5.4,3.9-8.3,5.5L25.1,29z"/>
		<path id="패스_149" class="st1" d="M22.2,30.1l0.6,1.7c0,0,2.8-0.1,6.8-0.2c0.4,4.2,0.5,5.5,0.5,7.7l2.6-1.2
			c0,0,0.4-4.9,0.4-6.4h7.2l0.2-1.5C30.8,30.4,22.2,30.1,22.2,30.1z"/>
		<path id="패스_150" class="st1" d="M133.8,30.1l-0.1-1.7c0,0-7.4,0.4-9.9,0.3c-0.1-0.4-0.2-5.2-0.2-5.8c4.8-0.2,9.7,0.1,9.7,0.1
			l0.2-1.8l-12.9,0.1l0.3,8.9L133.8,30.1z"/>
		<path id="패스_151" class="st1" d="M128.7,35.6c0-0.1,0.2-4.5,0.2-4.5l-3.4-0.3c0,0,0.3,3.7,0.4,4.8c-2.9,0-8-0.2-8-0.2l0.2,1.8
			c0,0,9.9-0.2,17.9-0.1l0.1-1.7C136.1,35.4,132.8,35.6,128.7,35.6z"/>
		<path id="패스_152" class="st1" d="M71.2,29.5l0.5-8.2L68.9,21l0.1,3c-0.9,0.1-2.8,0-3.5,0l-0.1-2.6l-2.8-0.3l0.8,8.2
			C63.3,29.5,68.1,29.3,71.2,29.5z M65.5,25.6c1.2,0,2.8,0,3.5,0.1l0.1,2.5l-3.5,0.1L65.5,25.6z"/>
		<path id="패스_153" class="st1" d="M75.1,23.2c-0.8-0.2-2.2-0.4-2.5-0.4l0.1,1.9l2.5-0.2c0,0.6,0.1,1.3,0.1,1.9
			c-0.8-0.1-2.1,0.1-2.7-0.1L72.4,28l2.8-0.3c0,0.9,0.1,1.9,0.1,3.1l2-0.8c0.1-0.8,0.7-6.7,0.9-9.6L75,20.2
			C75,21.2,75,22.2,75.1,23.2z"/>
		<path id="패스_154" class="st1" d="M69.5,37.1l-0.2-1.5c3.1,0.1,7.5-0.1,7.5-0.1l0.5-4c-2.7,0.2-11.4,0.1-11.4,0.1l0.4,1.6
			c1.4,0,7-0.1,8.2-0.1l-0.1,1.4c-1.7,0-6.2-0.1-8.1-0.2l0.9,4.4c3.6-0.1,10.6-0.1,10.6-0.1l0.2-1.7C75,37.1,72.2,37.2,69.5,37.1z"
			/>
		<path id="패스_155" class="st1" d="M91.3,24.4l-1.8-2.1c-0.8,0.2-1.6,0.3-2.4,0.3c-2-0.1-4.3-0.1-5.6-0.2l0.4,2
			c3.2-0.2,5.8-0.4,5.8-0.4c-0.9,1.6-4.7,6.7-7.1,9.9l1.3,0.6c0.9-0.9,2.6-2.6,4.3-4.5c1.4,1.4,2.7,2.8,3.9,4.3l1.3-2.6
			c-1.2-0.9-3-2.1-4.2-2.8C88.8,27.1,90.4,25.4,91.3,24.4z"/>
		<path id="패스_156" class="st1" d="M108.8,22.5l0.1-1.4c-1.9,0-5.9-0.3-6.9-0.3l0.3,1.8C102.3,22.6,106.8,22.6,108.8,22.5z"/>
		<path id="패스_157" class="st1" d="M110.5,25.8l-1.8-1.8c-0.8,0.2-1.7,0.3-2.6,0.3c-2.1-0.1-3.9-0.2-5.3-0.2l0.4,2
			c2-0.2,5.5-0.5,5.5-0.5c-2.1,3-4.3,5.8-6.7,8.5l1.3,0.6c1.1-1,2.7-2.4,4.1-3.9c1.3,1.2,2.6,2.5,3.8,3.9l1.4-2.5
			c-1.3-0.9-3-2-4-2.6C108.7,27.6,110.5,25.8,110.5,25.8z"/>
		<path id="패스_158" class="st1" d="M57.8,27.9l-0.1-1.6c-1.5,0.2-7.6,0.2-9.7,0.1V25c2.9,0,6.1,0.1,9.6,0.2v-1.6
			c-2.9,0.1-5.3,0.2-9.5,0.1v-1.1c2.5,0.1,6.7,0.1,9.6,0l0.1-1.5c-5.7,0.1-11.1,0.2-12.7-0.1l0.3,6.9C47.1,27.8,52.7,27.8,57.8,27.9
			z"/>
		<path id="패스_159" class="st1" d="M44.9,32.9l0.3,1.5c5-0.2,9.8-0.1,9.8-0.1s0.2,3.8,0.2,4.9l2.4-1.2l0.6-5.2
			C58.2,32.9,47.6,32.9,44.9,32.9z"/>
		<path id="패스_160" class="st1" d="M42.6,29.6l0.6,1.7c9-0.4,17.3-0.2,17.3-0.2l0.2-1.5C50.9,29.9,42.6,29.6,42.6,29.6z"/>
	</g>
</g>
</svg>
