<?xml version="1.0" encoding="utf-8"?>
<!-- Generator: Adobe Illustrator 22.1.0, SVG Export Plug-In . SVG Version: 6.00 Build 0)  -->
<svg version="1.1" id="레이어_1" xmlns="http://www.w3.org/2000/svg" xmlns:xlink="http://www.w3.org/1999/xlink" x="0px"
	 y="0px" viewBox="0 0 286 190" style="enable-background:new 0 0 286 190;" xml:space="preserve">
<style type="text/css">
	.st0{fill:none;stroke:#FFFFFF;stroke-width:1.5;}
	.st1{fill:#FFFFFF;}
</style>
<g id="Group-64" transform="translate(1.121 0.845)">
	<path id="Stroke-14" class="st0" d="M271.9,59.5c0.4-0.1,0.7-0.3,1-0.6c-0.5-0.1-1-0.2-1.5-0.3C271.5,59,271.7,59.3,271.9,59.5"/>
	<path id="Stroke-16" class="st0" d="M54.4,156.8l-0.7-0.7c-0.3-0.3-0.4-0.7-0.5-1.1c-0.1-0.5-0.4-0.9-0.7-1.3
		c-0.1-0.1-0.5-0.3-0.7-0.1c-0.3,0.3-0.7,0.5-1,0.7c-0.4,0.1-0.8,0.2-1.1,0.4c0,0-0.6,0.9-0.8,1s-1.1,0.7-1.3,0.5
		c-0.4-0.2-0.7-0.4-1.1-0.5c-0.4-0.2-0.8-0.5-1.2-0.7c-0.2-0.1-0.3-0.4-0.3-0.6c0-0.4,0-0.8,0.1-0.9l0.6-0.6
		c0.2-0.2,0.5-0.5,0.4-0.7s-0.1-0.8-0.2-0.9s-0.5-0.4-0.5-0.5c-0.4-0.2-0.8-0.3-1.2-0.3c-0.3,0.1-0.7,0.1-1-0.1
		c-0.1-0.1-0.5-0.7-0.9-1.1s-0.6-0.7-0.9-1s-0.2-0.3-0.2-0.7s0-1,0-1c-0.4-0.2-0.8-0.5-1.2-0.8c-0.2-0.2-0.8-0.4-1-0.6
		c-0.4-0.4-0.7-0.9-0.9-1.4c-0.2-0.4-0.5-0.7-0.7-1c-0.2-0.2-0.7-1.2-0.9-1.7c-0.2-0.3-0.3-0.7-0.4-1.1c-0.3-0.2-0.7-0.5-1-0.7
		c-0.3-0.1-0.6-0.3-0.9-0.5c-0.2-0.3-0.3-0.7-0.4-1.1c0-0.2-0.5-0.5-0.9-0.5c-0.5,0-1-0.1-1.5-0.3c-0.2-0.1-1.1-0.7-1.4-0.8
		s-3.2,0-3.2,0s-1.1-0.7-1.8-1.2c-1-0.7-1.9-1.4-2.8-2.2c-0.5-0.5-0.9-1.2-1.1-1.4s-0.9-0.4-1.1-0.7c-0.3-0.2-0.7-0.3-1-0.4
		c0,0-0.3-0.3-0.8-0.8c-0.3-0.3-0.5-0.7-0.5-1.2c-0.2-0.4-0.3-0.7-0.4-1.1v-0.6c0,0-0.6-0.6-0.8-0.8s-0.4-1-0.7-1.2
		s-0.7-0.9-0.7-0.9l-0.8-1.3l-0.5-0.9l-0.2-1c0,0-0.2-1.1-0.5-1.3c-0.3-0.2-0.5-0.4-0.6-0.6c0,0-0.7-0.5-0.9-0.8
		c-0.2-0.3-0.5-0.6-0.7-1v-1.1c0,0-0.2-1.6,0.3-1.9c0.4-0.2,0.7-0.5,1-0.8l0.7-0.5c0.1-0.3,0.1-0.5,0.1-0.8
		c-0.1-0.2-0.3-0.9-0.3-0.9l-0.8-1c0,0-0.7-1.3-0.2-1.8c0.3-0.4,0.5-1,0.5-1.5l0.9-0.9v-3c-0.2-0.3-0.4-0.6-0.7-0.9
		c-0.3-0.3-0.6-0.7-0.8-1.1c0-0.1-0.1-0.5,0-0.6s0.8-0.5,0.8-0.8c-0.1-0.4-0.2-0.7-0.4-1c-0.2-0.6-0.2-1.2,0.1-1.7
		c0.3-0.6,0.8-1,0.8-1.1c0.1-0.3,0.2-0.6,0.3-0.9c0-0.5-0.1-0.9,0.1-0.9c0.2,0,0.4,0.1,0.6,0.2c0.5,0.2,1,0.3,1.5,0.2
		c0.4-0.1,1.6-1,1.7-1s0.6-0.8,0.6-0.8l0.5-0.8c0,0,0.1-0.7,0.1-1s0.2-0.4,0.2-0.8c0-0.4-0.1-0.7-0.2-1c0-0.3,0.1-0.6,0.2-0.9
		c0.1-0.1,0.5-0.4,0.5-0.4c0.2-0.1,0.4-0.1,0.6-0.1c0.4,0,0.7-0.1,1.1-0.2l0.8-0.5l0.9-0.9l1.3-1.2l1.1-0.2l0.8-1.4l1.2-1.2l0.3-0.3
		l1-0.4l1.3-0.4l0.5-0.9l-0.1-2.2l1.9-1.9l0.9-0.9l1.3-0.1l0.8-0.1l1,0.4l1.1-0.6v-0.7l1.7-1l1.3-1.3l1.5-1.1l0.8-1.3l0.3-0.9
		l0.8-0.3l0.5-0.5l0.5-1l0.8-0.8l0.1-0.7l0.5-0.4v-1.2L45,62l0.8-0.8l0.5-1v-1l-0.4-0.4l-0.4-0.4l0.1-1l-0.3-0.9l0.4-0.8l1.3-0.2
		l1.4,0h1l0.4-0.8l0.1-1.4l1-0.4h1.8l0.4-0.4l0.8,0.2l1,0.1l0.7-0.7l1.4-1.1l1.8-1l0.8-0.8l0.5-0.5v-1l0.7-0.7v-0.9l0.8-0.6
		l-0.4-0.9L61.1,44l0.4-0.9l1.1-1.1c0.6,0.1,1.1,0.2,1.6,0.5l0.9,0.9l1,0.4l0.7-0.7l1.1-0.8l0.6-0.6l1.1,0.5l0.3,0.9h0.5l0.5-0.5
		l0.9-0.9l0.2-0.9l1-0.1l1.4-0.6l1.7-1.7l0.7-0.7l1.3,0.2h2.4l1.6-0.8c0,0,1.5-1.6,1.9-1.6s1-0.6,1-0.6l0.9-0.2l0.8-0.8l1-0.2h0.8
		v0.8l1,0.5l1.1,0.6h2.1l1.1-0.4h0.7v-0.5l0.7-1.1l2.3-0.2l1.5-0.8l0.8-1.2l2.8-0.3l1.3,0.3l1.5-0.6l2.3-0.6l2-0.9l2-0.6l1.9-0.5
		l1.1-0.5l-0.3-0.9v-0.9l0.3-0.6l0.7-0.5l1.2-0.2h0.9L119,24l1.2-0.6l0.7-0.7l0.3-1.3l1.7-0.5h1.7l1.1,0.2l1,0.6l1.2,0.1h3.7
		l2.4,0.3l1.1-0.3h0.8l0.3-0.9l0.7-0.7l1.1-0.4l1.6,0.5h2.5l1.1-0.2l0.6-0.6l1-0.2l0.3-0.3l0.6-0.5l1.2-0.3h2.7l0.7-0.7l1.2,0.4
		l0.4,0.4l2.3-0.1l0.6-0.6v-0.8l0.2-0.8l0.4-0.5l1-0.5l0.5-0.5h0.6l0.6-0.6l0.9,0.2h3.4l0.7-0.3l0.4-0.4h3.3l0.7,0l0.3,0.3h2.8
		l0.4-1.9l0.5-1.4l1-2.1l0.7-0.7l0.5-0.5V6.1l0.6-0.4l0.5,0.7v1.4h1.6l0.6-0.6l0.4,0.4l0.2,1v0.6l0.5,0.5l1.1,0.4l0.8,0.3l1,0.4
		l1.2-0.4l1.1-0.5c0.1-0.8,0.3-1.6,0.7-2.3c0.5-0.5,1.6-0.8,1.9-0.5l1.2,1.2l0.5,0.5l1.1-0.1l1-1l1.9-0.5h2.7l1.3-0.5l2.6-0.3
		l0.8-0.2l1.7-1.6c0,0,1.6-1.2,1.9-0.9l1,1l1,1h0.8c0.6-0.4,1.2-0.7,1.8-1h5.2c0,0,0.3-1.4,0.5-1.4s0.7-1.2,0.7-1.2h1.4
		c0.3,0,0.9,0.5,0.9,0.5l0.8,0.4l0.5,0.3l0.9-0.9h2.1l0.6,0.7l0.8,0.8l1.4,0.3l1.4,0.8l0.9,0.9h0.7l1.9-1l1.9-0.2l0.8-0.8l1.2-0.1
		l0.9-0.4l0.4,0.4l1.4,0.8l0.8,1.3l0.4,1.1c0.3,0.3,0.4,0.7,0.4,1.1c-0.1,0.7-0.3,1.3-0.5,1.9l0.5,1.3l0.8,1.3l0.7,0.7l1.8,0.5l1,1
		l0.6,0.8c0.6-0.1,1.2-0.1,1.8,0c0.2,0.2,1.2,0.9,1.2,1.2c0.1,0.5,0.2,1,0.4,1.5V19l0.8-0.6l1.7,0.3l0.7-0.3l0.5-0.5l0.8-0.2
		l0.9-0.5l0.9,0l0.7-0.3l1.4,0.3l0.7,0.7l1,0.1h2.4l1.8,1.8l1.5,1v1.1l-0.6,0.6c0,0-0.5,1.6-0.3,1.8l0.9,0.9h1.4l0.9,0.4l0.8,0.4
		l0.9,1.6v1.1l-0.7,1.3l0,1.1l-0.4,1.5v1.6l-2.1,2.1v1.5l0.2,0.8l0.7,0.2h0.8l0.2,1.1l0.7,1.3l1.2,0.7l1.5,0.6h0.8l0,1.2l-0.5,0.5
		l-1.3,0.1c0,0-0.6,0.3-0.4,0.4l0.7,0.7l1.4,0.3v1l0.3,0.7h1c0,0,0.8-0.4,0.6-0.6s0-1.6,0-1.6l0.5-0.5l0.5-0.5c0,0-0.4,0.1-0.4-0.4
		c0-0.4-0.1-0.7-0.3-1l0.3-1.1l0.8-0.3l0.9,0.3l0.5,1.1l-0.1,1.1l0,0.6l0.8,0.8l1.8,0.8c0.7,0,1.4,0.1,2.2,0.2l1,1l-0.5,1.5
		l-0.7,0.7l-0.8-0.3l-0.8-0.8l-0.5-0.5H273l-0.8-0.8l-0.9-0.5h-1.1c-0.6,1-1.2,1.9-1.9,2.8c-0.4,0.8-0.7,1.6-0.8,2.5v3.3l0.9,1.5
		l1.2,0.6l1.2,0.4c0.2,0.3,0.2,0.6,0.2,1c0,0.5,0.1,1.7,0.1,1.7l-0.8,1.6l-0.4,0.4l-0.9-1l-0.8-0.7l-0.6-0.6l0.4-1v-1.2l-0.7-0.7
		h-0.9l-1,0.4l-0.1,2.2l-0.4,1.7l-0.7,1.7l-1.1,2.6v1.6l-0.6,1.5l-0.9,1.3v0.8l0.7,1.9l-0.1,1.4l-0.6,0.6l-0.8,1.1l-3.3,0.7l-2,1.1
		l-1.8,1.3l-0.6,2l-0.9,0.9l-1,0.3l-0.8,2.5l-0.8,0.8l-0.5,1.6l0.4,2.1v1l-1.1,1.1l-2.5,2.8l-0.6,1.6l-0.5,0.8l-0.8,0.8l-1.1,0.6
		l-0.7,0.7l-1.1,0.8l-1,1H239v0.6l1.2,1.2l0.7,1l-0.3,1.3l-0.5,1l-0.9,1.1l-0.5,1.9l-2.5,1.2l-1.4,0.8l-3-0.1l-1.2,0.4l-1.2,0.7
		c0,0-3,0.2-3.2,0.2c-0.5-0.1-0.9-0.3-1.4-0.5l-0.9,0.2l-1,0.3l-0.6-0.6l-0.9-0.9l-2-0.3l-1.4,1.3l-1.2,1.7l-1.3,1.3l-0.8,0.8
		l-0.3,1l-1.5,1.2l-1.1,0.3l-0.7,0.6l-0.9,0.1l-0.4,1.2l-0.7,1.3l-0.8,0.8l-1.2,0.4L206,122l-1.1-0.6l-0.7-0.3l-1.1,0.5l-1.2,0.4
		h-1.3l-1.8,1l-1.5,0.3l-1.7,0.8H194l-1.6,0.5l-0.7,0.7l-1.6,0.6l-3.9,0h-1.5l-0.5,0.5l-0.5-0.5l-0.7-0.7l-1.5,0.5
		c-0.4-0.1-0.8-0.3-1.1-0.5l-0.9-0.9l-0.7,0.7l-0.3,0.8l-0.8,0.7l-3.3-0.1l-0.9,0.5h-0.5l-0.5,2l-0.3,1.4l-0.8,0.8l-0.7,0.7l-2.3,1
		l-1.5,0.3l-0.7,0.7l-0.8,0.8L165,135l0,2.4l-0.9,0.3l-1.6,0.2h-1.4l-1.3,0.5l-1.6,1.1l-1.4-0.3l-0.9-0.9l-0.3-0.8l-0.3-1.1
		l-0.6-0.6l-2.1,0l-1.4,0.4l-1.3,0.4l-1.4,0.2h-0.7l-0.3,0.3l-0.4,0.8v0.4h-0.8l-0.8-0.8v-1.4h-2.8l-1,1l-0.8,0.8l-0.7,0.7l-0.8-0.2
		v-0.7l-1-0.4l-1.6,0.5l-1.4,0.3H134l-0.7-0.7l-1.2-0.2l-0.9,0.3l-1,1l-0.6,1.2l-1.2,1.2l-1.1,0.5h-3.3l-0.3-0.3l-1.2,0.4h-1.8
		l-0.8,0.8l-0.7,0.7l-0.4,0.4h-0.8l-0.6-0.6l-0.7,0.7l-1,0.5h-0.8l-1-1.4l-0.8-0.8l-0.6-0.6l-0.3-0.8l0-1.3c0,0-2.5-1.6-3.2-1.6
		h-1.2l-1.9,1.2c-1.4,0.6-2.8,1.1-4.3,1.4h-2.2l-0.7-1.6l-1.2-1.2l-1.9-1.2h-1.2l-3.6,0.8l-3.2,1.8l-1.9,1.4l-1.6,0.7h-1.5l-1.7,0.3
		l-2.4-1.8l-0.6-0.6h-1.5c-0.4,0.1-0.8,0.2-1.1,0.4l-1,1l-0.8-0.8l-1.6-0.9h-1.5l-1.6-0.3l-0.8-0.8l-0.5-0.5l-2.3,0.8l-1.5,0.8
		l-0.8,1.2l-0.5,1.1l-1,0.5l-0.7,0.7l-0.6,0.6h-0.8l-0.8,0.4l-1.4,1.4l-1,1l-0.3,1l-0.2,1.8l-0.5,1l-0.4,1.4v1.9l0.8,0.8l0.4,1.2
		v0.9l-0.7,0.9L54.4,156.8z"/>
	<path id="Stroke-18" class="st0" d="M276.4,22.3l-0.3-0.5l-0.3-0.3l-0.5-0.3l0.2-0.7l0.9-0.7l1-0.2l1.2,0.4l0.7,0.7l0.6,0.9
		c0,0,0.3,0.4,0.1,0.5c-0.1,0.2-0.2,0.3-0.4,0.5l-0.1,0.5l0.3,0.5l1.1,0.2h0.7l0.7-0.6h0.4v0.6c0,0-0.1,0.5-0.3,0.5
		s-0.7,0.5-0.7,0.5l-0.1,0.8l0.5,1.5l0.2,1l0.2,0.6l0.5,0.6l0.2,1.5l-0.4,0.9l-0.6,0.4l-0.3,0.7l-0.3,0.7l-0.4,0.4h-0.7l-0.8-0.6h-1
		l-0.4,0.4h-1l-0.8-0.8l-1.5-0.1l-0.5-0.8l-0.5-1.8l-0.2-0.8l-0.7-1.2l-0.5-0.7v-0.9l1-0.8l0.6-1v-0.6l0.7-0.6l0.6-0.1l0.5-0.7
		L276.4,22.3z"/>
	<path id="Stroke-20" class="st0" d="M78.6,139.3V138c-0.2-0.6-0.4-1.3-0.7-1.9c-0.1-0.6-0.1-1.1-0.1-1.7c0-0.7,0.2-1.4,0.5-2
		c0.4-0.4,0.7-0.9,1-1.4c0.1-0.5,0-1.1-0.3-1.6c-0.2-0.2-1.1-1-0.8-1.3s0.8-1,0.9-1.1s0.6-0.5,0.4-1c-0.2-0.4-0.4-0.8-0.4-1.2v-0.9
		c0-0.2-0.4-1.2-0.4-1.5s-0.2-1.3-0.2-2.1v-2.3c-0.2-0.5-0.3-1-0.4-1.5c0.1-0.8,0.2-1.6,0.4-2.4c0.4-1,0.9-2,1.4-2.9
		c0.4-0.7,0.9-1.3,1.3-2c0.1-0.1,0.6-0.7,1-0.4s1.5,1.8,1.6,2s1,1.1,1.1,1.2s1.1,1,1.3,1c0.7,0,1.5,0,2.2,0c0.1-0.1,1-0.9,1-1.3
		s0.1-2.3,0.1-2.4c0.5-0.9,1.4-1.5,2.4-1.6l2-0.2c0,0,1-0.6,1-0.8c0.5-1.1,0.8-2.2,1-3.4c0-1.2,0.1-2.3,0.2-3.5l0.6-0.6
		c0,0,0.1-1.5,0.1-1.7s0.5-1,0.8-1c0.6-0.2,1.2-0.5,1.7-1c0.3-0.3,1-0.6,0.8-1.1s-0.5-1.5-0.5-1.5s0.8-1.2,1.1-1.5s0.4-1.2,0.5-1.7
		c0.1-0.6,0.2-1.1,0.5-1.7c0.2-0.2,0.6-1.1,0.9-1.2c1,0,1.9,0,2.9,0.1c0.3,0,1.8-0.2,1.9-0.2s1.3-0.2,1.3-0.2
		c0.4-0.2,0.9-0.3,1.4-0.5c0.2,0,1-0.3,1.2-0.3s1.6,0.5,1.6,0.5s0.5,0.6,0.7,0.6s0.8,0.3,1.1,0l0.3-0.3c0.5-0.2,1-0.3,1.5-0.4
		c0.5,0.1,0.9,0.3,1.3,0.6c0.2,0.2,0.8,0.7,1.2,0.5c0.6-0.1,1.1-0.3,1.7-0.5c0.4-0.3,0.9-0.6,1.5-0.8c0.2,0,1.2-0.5,1.6-0.5
		c0.8,0,1.6,0.2,2.4,0.4c0.5,0.2,1,0.4,1.5,0.6h1.5c0.2,0,1.5-0.7,1.6-0.7s0.9-0.4,1.1-0.4s1.7-0.1,1.7-0.1c0.7-0.1,1.4-0.3,2.1-0.4
		c0.4-0.2,1.1-0.4,1.1-0.4s3-2.4,3.2-2.5s2.7-1.6,2.9-1.9s1.5-1.2,1.8-1.6c0.3-0.3,0.7-0.4,1.2-0.5c0.8,0.1,1.5,0.1,2.3,0
		c0.2-0.2,1.6-1.1,1.9-1.4s1.9-1.3,2.4-1.7s0.7-1.1,1.3-1.3s1.4-0.6,1.4-0.6h1.6l2-0.4l1.6-0.9l0.9-0.9l0.8-1.8l0.7-1.6l2.4-4.4
		l1.1-1.3l0.6-0.8l1.5-1.4l1-0.5l1.2-1.2c0,0,0.9-0.6,0.9-0.7s0.6-0.6,0.6-0.6l-0.1-0.8l-0.2-0.7l-0.6-1.4l-0.1-0.7l-0.2-1.1
		l0.4-0.6l0.2-1.5v-1.7l-0.1-1.5l-0.6-1l-0.6-0.8l-0.8-1.6l-0.3-0.8l0.4-1.3l0.1-1.5l-0.3-1.1L169,38l-1.3-1.5l-1-1.1l-0.6-1
		l-1.4-1.7l-0.6-1.5l-0.4-1.4l0.2-1.4l0.2-0.5l0.1-0.7l-0.4-1.5l-0.5-1l-0.6-0.6l-1.1-0.6c0,0-0.9-0.1-1-0.1l-2.4,0l-0.6-0.7l-0.5-1
		l-0.8-1.2l0.1-1.2l0.5-0.9l0.6-1.6l0.3-1.1V14"/>
	<path id="Stroke-22" class="st0" d="M54.4,52.9c0,0,0.1,1.5,0.1,1.8s0.4,1.3,0.4,1.5c0,0.5,0,1,0.1,1.5c0.1,0.5,0.2,1.1,0.1,1.6
		c0,0,0.1,1.8,0.1,2.7v1.8c0.4,0.8,0.9,1.7,1.4,2.4c0.5,0.9,0.7,1.9,0.6,2.9c-0.1,0.6-0.1,1.2,0,1.8c0.3,0.6,0.8,1.1,1.3,1.6
		c0.8,0.5,1.6,0.9,2.5,1.2c0.3,0,1.2,0.8,1.2,1.3s0.1,2.6,0.1,2.6c0,0.7,0.1,1.5,0.3,2.2C63,80,64,81.3,64,81.3s2.9,2.4,4,3
		s3.8,2.5,4.1,2.8s4,2.8,4.5,2.8c0.9,0.3,1.7,0.7,2.5,1.2c0.2,0,0.9,0.2,1.1,0.2h1.5c0.5,0.3,1,0.7,1.5,1.1c0.3,0.3,1,0.3,1.3,0.3
		s1.6-0.2,1.9-0.2c0.7,0,1.4-0.2,2.1-0.4c0.2-0.2,1-0.3,1.1-0.2s2.1,1,2.4,1.3s6.3,0.3,7,0.3c0.4,0,0.7-0.1,1-0.3"/>
	<path id="Stroke-24" class="st0" d="M26,82.1c0,0,1.9,2,2,2.2c0.9,1.1,1.7,2.3,2.4,3.5c0.1,0.4,1.1,1.7,1.3,2.1
		c0.2,0.5,0.5,0.9,0.8,1.3c0.2,0.2,0.6,0.6,0.9,0.4c0.3-0.2,0.6-0.4,1-0.6c0.2,0,0.8,0.1,1,0.1s0.8,0.5,1,0.7
		c0.2,0.3,0.3,0.5,0.4,0.8c0,0,1.1,0.1,1.3,0.1s1.4-0.4,1.6-0.4s0.8-0.2,1-0.2c0.6,0,1.1,0.1,1.6,0.3c0.2,0.2,0.8,0.5,1,0.6l0.7,0.7
		c0.1,0.1,0.7,0.4,0.7,0.4s0.6-0.4,0.6-0.6c0.1-0.3,0.3-0.6,0.5-0.9l0.6-0.6c0,0,0.6-0.2,0.7-0.1s1.6,1.5,1.8,1.7
		c0.5,0.5,1,1.2,1.3,1.9c0,0.4,0.3,1.4,0.3,1.7c0.1,0.5,0.4,0.9,0.6,1.3c0,0,0.9,1.1,1.1,1.2s0.7,0.7,0.7,1s0.1,1,0.1,1
		c-0.3,0.8-0.6,1.6-0.9,2.4c-0.2,0.2-1.6,2.8-1.6,2.8c-0.7,0.8-1.4,1.5-2.3,2.1c-0.6,0.3-5.6,2.3-6.1,2.6s-5.3,2-5.8,2.3
		c-0.4,0.3-0.7,0.6-1,1c-0.2,0.3-0.3,0.5-0.4,0.8c0,0.2,0,1.6,0,1.6c0.2,0.3,0.3,0.6,0.4,1c0,0.1,0.1,0.9,0.1,0.9s0,1.2-0.3,1
		c-0.3-0.2-0.6-0.5-0.9-0.7c0,0-1.7-1.2-1.9-1.5c-0.3-0.3-1.8-1.3-2.1-1.5s-2.6-1.9-2.6-1.9l-1.8-1c0,0-2.7-1.5-3-1.8
		s-1.8-1.1-2.1-1.4s-1.1-0.2-1.6-0.1c-0.7,0.2-1.4,0.6-2,1c-0.5,0.3-1.8,0.9-2.2,1.1c-0.5,0.2-0.9,0.3-1.4,0.4c-0.2,0-0.3,0-0.5-0.1
		"/>
	<path id="Stroke-26" class="st0" d="M52.9,100.5c0.5-0.1,1.1-0.2,1.6-0.4c0.3-0.3,1.7-0.5,1.9-0.7c0.4-0.2,0.9-0.3,1.3-0.4
		c0.4-0.1,0.7-0.2,1.1-0.3c0.4-0.1,2.2-0.2,2.3,0.1s0.5,1,0.8,1s0.8-0.5,1-0.7c0.6-0.8,1.2-1.6,1.7-2.5c0,0,1.1-2,1.4-2.2
		s1.1-1.2,1.2-1.4s1,0,1,0s3.7,0.2,4,0.2s2.7,0,3,0h2.4c0.4,0,0.9-0.1,1.2-0.3c0.1-0.1,0.6-0.4,0.6-0.7c0-0.4-0.1-0.7-0.1-1.1"/>
	<path id="Stroke-28" class="st0" d="M48.8,108.5l0.7,0.7c0.2,0.2,1.1,0.8,1.3,0.9s0.7,0.3,0.9,0.5c0.2,0.2,0.3,0.6,0.3,0.9v1.9
		c0,0-0.1,1.1,0.2,1.4s1,1.2,1,1.2s1.7,1.7,2.2,2.2s1,0.8,0.9,1s0.1,0.8-0.2,1.1s-2.1,1.7-2.5,2c-0.3,0.3-0.5,0.8-0.6,1.2
		c0,0.2,0.1,3,0.1,3l-0.1,1.6c-0.2,0.6-0.4,1.2-0.8,1.7c-0.5,0.7-1.4,1.9-1.7,2.3s-0.6,0.5-0.6,1s0,1.8,0,1.8s-0.1,1.2,0.2,1.6
		s1,1.5,1.2,1.7s0.1,1,0.1,1l-0.1,2.3c0.4,0.3,0.8,0.6,1.3,0.7c0.5,0.1,1,0.2,1.4,0.4c0.6,0.3,1.3,0.6,1.8,0.9
		c0.3,0.3,1.1,1.2,1.1,1.2l0.2,0.2"/>
	<path id="Stroke-30" class="st0" d="M136.8,84.7h2.3c0.6,0,1.3,0,1.9,0.1c0.4,0.1,0.9,0.2,1.3,0.4c0.1,0.1,1.8,1.5,2,2.1
		s0.6,1.6,0.8,1.9s0.3,1,0.3,1s1.8,1.3,2.2,1.7l1.7,1.8l1.1,1.1c0.1,0.1,0.4,0.6,0.4,0.7c0.2,0.1,0.5,0.1,0.8,0.1
		c0.4,0,0.8,0,1.1,0.3c0.3,0.3,0.7,0.7,0.7,1.1c0,0.4,0.1,0.8,0.2,1.2l0.2,1l0.3,0.8c0,0,1.9,2,2.1,2.2c0.5,0.4,0.8,0.9,1.1,1.4
		c0.1,0.6,0.6,4.3,0.8,4.8c0.2,0.6,0.3,1.3,0.4,1.9c0.1,0.4,0.2,0.8,0.4,1.1l0.2,2.5c0.2,0.3,0.4,0.6,0.7,0.9c0.6,0.5,1.2,1,1.8,1.5
		c0.3,0.3,1.5,1.3,1.6,1.9s0.4,0.6,0.6,0.7c0.3,0.3,0.6,0.5,0.9,0.6c0.2,0,0.7,0.2,0.9,1c0.2,1,0.3,2.1,0.3,3.2
		c0,0.3-0.1,1.5,0.2,1.8c0.3,0.3,0.4,0.6,0.4,1c0,0.4,0.2,3.6,0.2,3.6v3.6"/>
	<path id="Stroke-32" class="st0" d="M142.9,80.4c0.4,0.3,0.9,0.6,1.4,0.7c0.5,0.1,0.9,0.2,1.4,0.5h2.8l3.7-0.2l0.8-0.3l1.9-0.4
		c0,0,1.7-1.1,1.8-1.3s1.3-1.4,1.3-1.4c0.3-0.1,0.5-0.1,0.8-0.1h4.2c0,0,1.8-0.3,2-0.3s0.8-0.5,0.8-0.5s2.1-2.3,2.3-2.4
		c0.6-0.5,1.3-1,2-1.4c0.5-0.2,1.1-0.4,1.7-0.5c0.3,0,1.5-0.3,2.1-0.3h2.5"/>
	<path id="Stroke-34" class="st0" d="M176.1,72.3c0,0-0.1-0.9,0.2-1.3c0.6-0.6,1.4-1,2.1-1.4c0.4-0.1,0.8-0.1,1.2-0.2l2.5,0.1
		l1.5-0.2c0,0,1.8-1.1,2.1-1.4c1-0.9,2.1-1.8,3.2-2.7c1.1-0.7,2.1-1.4,3.1-2.2c0,0,2.7-1,3.6-1.4c1-0.4,2-0.8,3.1-1.1
		c0.2,0,1.7-0.2,2.4-0.2c0.7-0.1,1.5-0.2,2.2-0.4l0.6,0c0,0,2.8,1.5,3.2,1.7c0.7,0.2,1.4,0.3,2.1,0.4c0.2,0,3.8-0.3,4.1-0.5
		s2.4-1.3,2.4-1.3s3.4-2.2,3.6-2.3s2.1-1.6,2.6-2.2s1.2-1.3,1.5-1.3s2.5,0.1,2.8-0.1s1.7-0.3,2.1-0.6s1.3-0.6,1.7-1
		c0.4-0.4,1-0.6,1.5-0.7h2.3c0.5-0.2,0.9-0.5,1.2-1c0.1-0.4,0.4-1,0.6-1.4s0.1-0.7,0.5-0.7h1.2l1.2-0.2c0,0,1.2-0.8,1.4-0.9
		s1.4-1.5,1.4-1.5s1.8-0.5,1.8-0.6c0.4-0.1,0.8-0.2,1.2-0.3c0,0,0.9-0.3,1-0.3s0.8-0.1,0.8-0.4c0-0.4,0.1-0.7,0.2-1.1
		c0,0,0.6-0.2,1.1-0.3c0.7-0.1,1.4-0.2,2.2-0.2c0,0,0.8-0.6,1-0.7l1.5-1.5c0,0,1.2-1.6,1.7-1.7s2.3-0.7,2.4-0.7
		c0.4-0.1,0.9-0.3,1.2-0.5c0.1-0.1,0.9,0,1-0.1c0.6-0.1,1.2-0.1,1.8-0.1c0.2,0,1-0.1,1-0.1"/>
	<path id="Stroke-36" class="st0" d="M229,53.5l0.5,0.5c0.5,0.3,1,0.6,1.5,1c0.2,0.2,0.8,0.6,1.1,1s0.6,1.4,0.8,1.5s0.3,1.3,0.8,1.8
		s0.7,0.3,0.8,1c-0.1,1.2-0.4,2.4-0.8,3.6c-0.1,0.4-2.1,2.8-2.1,3.6s0,2.2,0,2.2c0,0.9,0,1.9-0.1,2.8c-0.1,0.5-0.9,1.7-1.1,2.1
		c-0.1,0.6-0.4,1.3-0.8,1.8c-0.5,0.5-2,1.6-1.7,2.2c0.4,0.7,0.9,1.4,1.4,2c0.6,0.5,1.3,0.8,2,1c0.5,0,1.1-0.4,1.3,0.2s0.5,1.8,1,2.1
		s2.1,0.9,2.7,1.2s1.1,0.3,1.5,0.7s1.4,1.7,1.8,2.1c0.9,1.1,1.6,2.3,2.4,3.5c0.7,0.9,1.3,1.9,1.8,2.9c0.4,1,0.3,1.7,0.6,2.1
		s0.2,0.5,0.2,0.5"/>
	<path id="Stroke-38" class="st0" d="M176.1,72.3c0,0-0.1,0.2,0.3,0.6s1.2,1,1.5,1.2s0.9,0.6,1,0.7c0.4,0.2,0.9,0.4,1.4,0.5
		c0.5,0,1,0.1,1.5,0.3c0.3,0.1,0.6,0.3,0.9,0.5c0.3,0.3,0.4,0.6,0.5,1c0,0.3,0.2,1,0.2,1.1c0,0.4,0.1,0.8,0.2,1.2
		c0.1,0.1,0.8,0.4,0.9,0.6s0.9,0,1.3,0.2c0.4,0.2,0.8,0.2,1.2,0.2c0.3-0.2,0.7-0.5,1-0.8c0.1-0.1,1.1,0,1.1,0
		c0.1,0.2,0.2,0.4,0.4,0.6c0.2,0.2,0.5,0.7,0.7,0.7c0.2,0.1,0.5,0.1,0.7,0.2c0,0,0.8-0.7,0.9-0.8c0.4-0.2,0.9-0.2,1.3-0.1
		c0.4,0.1,0.8,0.2,1.2,0.3c0.3,0,0.6,0.1,0.9,0.3c0.2,0.2,0.7,0.8,0.8,0.8c0.3,0.1,0.6,0.2,0.9,0.4c0.5,0,1.1,0,1.6,0.1
		c0.4,0.1,0.8,0.2,1.1,0.3l1,0.4l0.8,0.3l1.4,0.9l0.7,0.9l1,0.6l0.9,0.4c0,0,1.2,0.3,1.3,0.7S207,88,207,88l0,1c0,0,1.1,1.7,1.2,1.8
		s1.3,1.6,1.3,1.6l0.9,1l0.9,1.2c0,0,0.7,0.9,0.8,1.1s0.6,1,0.6,1s0.2,0.4,0.4,0.8s0.7,0.6,0.6,1.1c0,0.4-0.1,0.8-0.1,1.2
		c0,0-1.1,1.2-1,1.8c0,0.4,0.2,0.8,0.4,1.1c0,0,0.8,0.7,1.3,1.2s1.4,1.2,1.6,1.4c0.2,0.3,0.5,0.6,0.8,0.8c0.1,0,1-0.2,1.3,0
		c0.3,0.2,0.5,0.5,0.6,0.9l0.4,0.8c0.1,0.2,0.2,0.3,0.3,0.5c0.1,0.1,1,0.7,1.1,1.1c0.1,0.3,0.2,0.6,0.2,0.8c0,0,0,0.2,0,0.2"/>
	<path id="Stroke-40" class="st0" d="M192.5,7.3l0.1,3.4c-0.1,1-0.1,2,0,3c0.2,0.5,0.4,1,0.5,1.5c0,0.2,0.1,0.9,0.1,0.9
		s2,1.5,2.4,1.9c0.3,0.3,0.6,0.7,0.8,1.1c0,0.1,0.3,1.2,0.3,1.2l0,1.2l1.3,1.7l1.6,1.5l1.6,1.5l1.4,1.3c0.2,0.3,0.4,0.7,0.4,1.1
		c0,0.6,0.2,2.7,0.2,2.7c0.1,0.4,0.1,0.8,0.1,1.2c0,0.6-0.1,1.3-0.3,1.9c-0.2,0.4-0.4,0.8-0.6,1.2l-0.2,0.8v1.5
		c-0.1,0.3-0.2,0.6-0.4,0.9c-0.2,0.2-0.9,1-1,1.1c-0.2,0.2-0.3,0.5-0.4,0.8c0,0.6,0,1.2,0,1.8l0.1,1l0.4,0.9c0,0-0.1,1.2-0.1,1.6
		s-0.1,1.4-0.1,1.4l-0.7,1l-0.7,1.2l-0.1,0.7l0,2.5l-0.1,1.2l0.2,1.1l0.7,0.5l1.1,0.9l1.1,1.3l0.6,0.8l0.2,0.7l0.1,0.8"/>
	<path id="Stroke-42" class="st0" d="M65.4,17C65.4,17,65.5,17,65.4,17c-0.1-0.2-0.1-0.2-0.1-0.3v-0.4h-0.2L65,16.2l0.2-0.2l0.2-0.2
		l-0.1-0.1l0-0.3l-0.1-0.1v-0.2L65,14.9l-0.1-0.1h-0.3v-0.2l-0.1-0.1l-0.2-0.2l-0.1-0.4l0-0.4l-0.1-0.1l-0.2-0.2v-0.7
		c0,0-0.4-0.5-0.5-0.5s-0.4-0.4-0.4-0.4l-0.1-0.2l-0.3-0.1l-0.2-0.2l-0.2-0.4l-0.4-0.4L61.4,10l-0.2-0.1h-0.9
		c-0.2-0.3-0.4-0.6-0.7-0.8c-0.2-0.1-0.1-0.3-0.1-0.3l0.3-0.1L60,8.6l-0.1-0.4C59.9,8.1,60,7.9,60,7.7c0-0.1,0.3-0.2,0.3-0.2
		l0.2,0.2l0.3,0.1c0,0,0.6,0.1,0.7,0.1c0.2,0,0.4,0.1,0.5,0.2c0.1,0.1,0.2,0.3,0.3,0.4c0,0-0.1,0.4,0,0.5c0.1,0.1,0.1,0.2,0.1,0.3
		h0.5c0,0,0-0.4-0.1-0.4s-0.2-0.2-0.3-0.4c-0.1-0.1-0.2-0.2-0.2-0.3c-0.1-0.1-0.1-0.2-0.1-0.3c0-0.1,0-0.2,0-0.2l0.5,0l0.4,0
		l0.3-0.4l0.3,0l0.5,0.3h0.5l0.7,0l0.2,0.2L65.6,8l0.2,0.2L66,8.2l0.2-0.1l0.4,0l0.3,0.2l0.3,0l0.3,0c0,0,0.2-0.4,0.3-0.4
		c0.2,0,0.3-0.1,0.5-0.2c0.1-0.1,0.2-0.1,0.3-0.1c0.1-0.1,0.2-0.2,0.3-0.2c0,0,0.3-0.3,0.3-0.3c0-0.1,0-0.1,0.1-0.2l-0.1-0.2
		c0,0-0.1-0.1,0-0.1h0.7l0.6-0.2l0.2,0l0.6-0.1l0,0.2v0.2l0.6,0L72.3,7l0.2,0.2c0,0.1,0,0.1-0.1,0.2c-0.1,0.1-0.3,0.1-0.4,0.2
		l-0.4,0.2c-0.1,0-0.2,0.1-0.3,0.1c0,0.1-0.1,0.3,0,0.4c0,0,0.3,0.3,0.3,0.4s0.5,0.4,0.5,0.4l0.3,0.2l0.1,0.4l-0.1,0.4l-0.1,0.3
		l-0.1,0.4l-0.2,0L72,10.6l-0.3-0.1l-0.5,0.1l-0.4,0.2l-0.2-0.1l-0.3-0.1l-0.4,0.2l0,0.3l0.1,0.2l-0.1,0.2c-0.2,0-0.3-0.1-0.5-0.1
		c-0.1,0-0.2-0.1-0.3-0.1l-0.5-0.1l-0.6,0h-0.5l-0.2,0.4L67,11.9c0,0-0.2,0.2-0.2,0.2s-0.3,0.4-0.3,0.4l-0.1,0.3l0,0.4l0.2,0.5
		c0,0,0.1,0,0.1,0.1v0.6l0,0.2l0.1,0.3L67,15h0.2l0.1-0.1l0.7,0.2l0.2,0.4c0,0,0.3,0.3,0.3,0.3s0,0.3,0,0.3l-0.1,0.4l0.2,0.2l0,0.2
		h-0.4L68.1,17h-0.4l-0.3-0.2h-0.2l-0.2,0L66.5,17L66,17.1h-0.2l-0.3,0L65.4,17z"/>
	<path id="Stroke-44" class="st0" d="M58.6,8.2h-0.2l-0.1,0.1h-0.4l-0.2-0.2l-0.3-0.2l0-0.2l-0.2-0.1l-0.3-0.2l-0.2-0.2l-0.1-0.1
		L56.5,7l-0.2-0.1H56l-0.2-0.2l-0.1-0.2l0-0.2l-0.1-0.1l-0.2-0.1L55.2,6c0,0-0.3-0.1-0.4-0.2c-0.1-0.1-0.2-0.1-0.3-0.2
		c0-0.1-0.1-0.1-0.1-0.2c0,0,0-0.2,0-0.3c0,0,0-0.1,0-0.1l-0.3-0.1h-0.8c0,0-0.1,0-0.1-0.1c-0.1-0.1-0.2-0.1-0.3-0.2l-0.2-0.2
		l0.1-0.2c0.1,0,0.2,0,0.3,0.1c0,0,0.3,0.1,0.3,0.1c0.1,0,0.1,0.1,0.2,0.1l0.2-0.1l0.6-0.2c0.1,0,0.2-0.1,0.3-0.1
		c0,0,0.2-0.1,0.2-0.1V3.9l-0.2-0.2l-0.2-0.2l-0.1-0.1l-0.3-0.1L54,3.2l-0.2,0.2l-0.1,0.1l-0.3-0.1l-0.2-0.2C53.2,3.2,53,3,53,3
		s0-0.3,0-0.3l0.1-0.2l0-0.1l0-0.4l-0.1-0.1l-0.3-0.1l-0.2-0.2l-0.2-0.2c0,0-0.1-0.1,0-0.2c0-0.1,0.1-0.2,0.1-0.4l0.1-0.1l0.2,0
		l0.1,0.1c0,0,0.1,0.3,0.1,0.3c0,0,0.2,0.1,0.2,0.1l0.2,0.2c0,0.1,0,0.1,0,0.2v0.2L53.4,2h0.2L54,2.1l0.8,0L55,2.3l0.1,0.1l0.5,0
		l0.2,0.2l0.5,0h0.3l0.3,0.1l0.3,0L57.4,3l0.1,0.2L58,3.5l0.3,0.3L58.5,4l0.1,0.2l0.1,0.1l0,0.2l-0.1,0.1l-0.1-0.2l-0.1-0.1
		l-0.1-0.1l-0.3,0h-0.4l-0.2,0.2l-0.2,0.4l0.2,0.1L58,4.8l0.5,0.1l0.2,0.2L59,5.7l-0.1,0.6l-0.1,0.1v0.3L59,7l0.1,0.5v0.3
		c0,0-0.1,0.3-0.1,0.3l-0.3,0.1l-0.1,0.1L58.6,8.2z"/>
	<path id="Stroke-46" class="st0" d="M62.1,13.2H62l-0.1,0.1l-0.1,0h-0.2l-0.1,0c0,0,0-0.1,0-0.1c0.1,0,0.1,0,0.2-0.1l0.1-0.1l0-0.1
		l0-0.2l0.1-0.1l0.1-0.1l0.2,0l0,0.1c0.1,0,0.1,0,0.2,0c0,0,0.1,0,0.1,0v0.1l0,0.1l0.1,0v0.1c0,0,0,0.1,0,0.1s-0.1,0-0.1,0l-0.1,0.1
		l-0.1,0.1l-0.1,0.1l-0.1,0.1h-0.1l0-0.1l0-0.1l-0.1,0c0,0,0-0.1,0.1-0.1S62.1,13.3,62.1,13.2L62.1,13.2z"/>
	<path id="Stroke-48" class="st0" d="M47.7,170.9l-0.1-0.1h-0.1l-0.1-0.1l-0.2-0.2l-0.3-0.1v-0.4l-0.1-0.2l-0.1-0.2l-0.4-0.4
		l-0.4-0.2l-0.2-0.2l-0.2-0.2l-0.2-0.2l-0.1-0.2l0.1-0.2l0.2-0.2c0,0,0.2-0.4,0.2-0.4s0.4-0.5,0.4-0.5s0.1-0.2,0.2-0.2
		c0.1,0,0.2-0.1,0.3-0.1l0.4-0.3l0.2-0.2l0.3-0.3l0.3,0L48,166l0.5,0h0.2l0.2,0.2l0.2,0.1v0.4l0.1,0.2l0.3,0.2l0.1,0.3l0.2,0.2
		l0.3,0.2l0.4,0.2l0.3,0.3l0.2,0.4v0.4L51,169v0.3l0,0l-0.1,0.1l-0.3-0.1l-0.3-0.1l-0.1-0.2h-0.6l-0.1,0.1h-0.2l-0.2,0.2l-0.1,0.2
		l0.2,0.2l0,0.2l0.1,0.1l0.3,0.1l-0.2,0.2l-0.2,0.2l-0.2,0.1l-0.2,0.1l0,0.2h-0.2l0.1-0.2v-0.1h-0.5l-0.1,0.1l0,0.1l-0.2,0.1
		L47.7,170.9z"/>
	<path id="Stroke-50" class="st0" d="M46.4,182.5l0,0.6l-0.2,0.2l-0.3,0.3l0,0.3c-0.1,0.1-0.2,0.3-0.3,0.4c0,0.1,0,0.2-0.1,0.3
		c-0.1,0.1-0.2,0.3-0.2,0.4l0.1,0.4v0.8c0,0,0,0.4,0,0.4s0.1,0.3,0.1,0.3l0.3,0.3l0.1,0.1l0.2,0.2l0.2,0.2l0.2-0.1l0.2-0.1l0.2-0.3
		l0.1-0.5l0.1-0.3l0.1-0.4v-0.8l-0.1-0.3l-0.1-0.4l0-0.4l0.1-0.3v-0.7l-0.2-0.4l-0.2-0.2L46.4,182.5z"/>
	<path id="Stroke-52" class="st0" d="M94.6,35v2.2c0,0-0.2,2.1,0.5,2.4c0.4,0.2,0.8,0.5,1.1,0.8c0,0,0.3,0.5,0.5,0.5
		s1.6-0.3,1.6-0.3l1.6-0.2l1.3-0.7l1.1-0.6h0.6l0.2,0.7l-0.1,3.9l0.3,1.2l0.7,0.7l0.1,3.3l0.3,1.4l0.5,1.6l0.1,2.7l-0.2,1.4
		l-0.1,2.1l0,2.4l0.7,2.3l0.2,2.4l1.1,1.6l2.3,4.2l1.6,1.5l1.4,1.4l1.8,1.4h2l1.4-0.5l1.9-0.1h1.3l2.9,0.9l1.8,0.8h0.9l2.9,1.8
		l1.5,1.8l1.4,1.8l0.7,1.3l0.2,3.3l-0.4,3l-1,5.5c0,0,1.2,3.8,1.2,3.9s0.1,1.3,0.1,1.3l-0.4,1.8l-0.6,0.9l-0.6,0.8l-0.2,0.6l0,1.2
		l1.2,1.9l0.5,1.5v1.2l0.1,7.3l-0.5,2.3v2.1l0.3,3.3l0.9,2.8l0.6,1.3l1.4,3.5l0.9,1.3l0.3,1.3l-0.2,1.1l-0.6,1.7l-0.2,0.4"/>
	<path id="Stroke-54" class="st0" d="M8,106.9h0.5l0.1,0l0,0l0-0.1l0.1,0v-0.1l0-0.1l0,0v-0.3l-0.1-0.1l-0.1-0.2l-0.1,0l0-0.1
		l-0.1-0.1l-0.1,0l0-0.1L8,105.5l-0.1-0.1l-0.1-0.1l-0.3-0.2l-0.2-0.1l-0.1,0l0-0.1L7,104.6l-0.2-0.1l-0.2,0.1l-0.4,0.2l-0.1,0.1
		l0,0.1l-0.1,0l0,0l-0.1,0l-0.1,0L5.7,105L5.6,105l0,0.1l-0.1,0.1l-0.1,0l0,0l-0.1-0.1l0,0l-0.1,0l-0.1,0l-0.1,0.1l-0.1,0.1l-0.1,0
		l0,0V105l0,0l-0.1,0l-0.1,0H4.6l-0.2,0l0,0l-0.1,0l-0.1-0.1l-0.1,0l0,0.1v0.1l0,0.2l-0.1,0.1l0,0.1l0,0.2l-0.1,0v0.1l-0.1,0.1
		L3.6,106l0,0l-0.2,0L3.3,106l-0.2-0.1l-0.1,0l0-0.1l0,0l-0.2,0l-0.1-0.1l-0.1,0l-0.1,0l-0.1,0l-0.1,0.1l-0.3,0l-0.1,0.1H1.9l0,0.1
		H1.8l0-0.1l-0.1,0l0,0l-0.1,0.1l-0.1,0H0.9l-0.1-0.1l-0.1,0v0.1l0.1,0.1l0,0.4l-0.1,0.1l0,0l0.1,0l0,0l0.1,0l0.5,0.4l0.1,0.1
		l0.1,0.1l0.1,0.2l0.1,0.1l0.2,0.1v0.1h0.1l0,0.1l-0.1,0.1l-0.2,0v0.3H2l0.1,0.1l0.1,0l0.1,0v-0.1l-0.1,0v-0.1l0.1,0l0,0.1l0.1,0
		h0.1l0.1-0.1l0.1,0l0.1,0.1l0,0.1l0.1,0h0.1l0.1-0.1l0-0.1l0.1-0.1l0.1-0.1h0.1l0.5,0l0,0.1v0.1l0.3,0l0.2,0v0l0.1,0h0.5l0.1-0.1
		l0.2-0.2l0.2,0h0.1l0,0.1l0,0l0,0.2l0.2,0l0.1,0l0-0.1l0.1,0l0.1,0v-0.3l0.1-0.1v-0.1l0.1-0.1v-0.2l0.1-0.1l0-0.3l0.2,0v0l0.1,0
		l0-0.1l-0.1-0.1l0,0v-0.1h0.2l0,0.1h0.3l0-0.1l0.1-0.1v-0.1l0.1,0l0.1,0.1l0.1,0l0,0.1l0,0h0.3v-0.1h0.1v0l0.2,0l0,0.1l0.1,0l0,0.1
		L8,106.9z"/>
	<path id="Stroke-56" class="st0" d="M4.3,109.2H3.8l0-0.2v-0.1l0.1,0l0-0.2H4l0-0.2h0.1v-0.1h0.1v0h0.1l0-0.1l0.1-0.1l0.1,0l0,0.1
		h0.1l0.2,0.2l0,0.1l0,0v0.1l-0.1,0l-0.2,0l0,0.2l-0.1,0L4.4,109l-0.1,0L4.3,109.2z"/>
	<path id="Stroke-58" class="st0" d="M6.4,109.5v-0.2l0,0l0-0.1H6.3v-0.1l0.1,0l0.1-0.1l0,0h0.1l0,0.1l0,0l0,0.2v0.5h0.1l0,0.1
		l0.1,0l0,0v0l0.1,0v-0.1l0.1,0l0-0.2l0.3-0.2l0.1-0.1l0.2,0c0,0,0.1,0,0.1,0.1l0.1,0.1l0.1,0.2v0.2L7.9,110l-0.1,0.1l0,0.1l0,0
		l-0.1,0.1l-0.1,0l-0.1,0.1l0,0l-0.1,0l-0.1,0.1l-0.2,0L7,110.3l-0.1-0.2l0-0.1l0,0H6.7l0,0.1l-0.1,0v0.2H6.5l-0.1-0.1l-0.1-0.1V110
		h0.2l0-0.1l-0.1,0l-0.1-0.1l0-0.1L6.4,109.5z"/>
	<path id="Stroke-60" class="st0" d="M31.2,67.8C31.2,67.8,31.2,67.8,31.2,67.8c0-0.1,0-0.1,0-0.1l0,0l0,0l0,0l0,0l0,0l0,0.1l0,0
		h0.1l0,0l0,0l0,0h0.1l0,0l0,0h0.1l0,0v0h0l0,0l0.1,0l0,0h0.1v0h0.1l0,0l0,0h0.1h0l0,0h0l0,0h0l0,0l0,0l0,0l0,0h0l0,0h0.2l0,0l0.2,0
		h0v0v0H33v0H33v0h0.1v0l0,0v0h0l0,0h0.2v0l0,0h0l0,0h0v0h0l0,0v0h0v0h0.2v0h0.1v0h0v0h0v0h0v0h0v0h0v0h0l0,0h0v0h0v0h0l0,0v0h0v0.1
		h0v0h0v0h0l0,0v0l0,0v0h0v0h0v0.1h0v0.2h0v0h0V69l0,0v0.1h0v0.1l0,0v0l0,0v0.1l0,0v0.1l0,0v0.1l0,0v0.1l0,0v0.1h0v0.1h0V70h-0.1v0
		h0v0h0v0.1h0v0.1h0v0.1l-0.1,0v0.1h0v0.1h0v0.1h0v0.1l0,0v0h0v0h0v0h0v0h0v0.1h0v0h0v-0.1h0v0l0,0v-0.1h0v-0.1h0v0h0v-0.1h0v0l0,0
		v0h0l0,0h-0.1v0h-0.2v0h-0.1v0l0,0v0h0v0.1h0v0.2l0,0v0h0v0.1h0v0h0v0h0v0h0v0h0v0h0v0h0.1v0h0v0h0.1v0h0v0h0v0.1h0v0h-0.1l0,0h0
		l0,0h0v0h-0.1v0h0l0,0l0,0h0v0h0V71h0v0.1h0v0.1h0v0h-0.2v0h0v0l0,0v-0.1l0,0v-0.1l0,0v-0.1h-0.1l0,0H33l0,0l-0.5,0v0h-0.1v0h0v0h0
		v0h0v0.1h0V71h-0.1l0,0l0,0v-0.1h-0.1v0h0v0h0V71h0v0h-0.1L32,71h-0.1v0l0,0v-0.1h-0.1v0h0v0h-0.1v0h0v-0.2h-0.2l0,0h-0.1v0l0,0v0
		h0v0h0l0,0h0l0,0h-0.1l0,0v0h0v0h0l0,0h0v0h0v0h0v-0.1h0v-0.1l0,0v-0.2v-0.1h-0.1v-0.1H31v0l0,0h0v-0.3h0v0h0v0h0.2v0l0,0v-0.1l0,0
		v0h0v0h0l0,0h-0.1v0h0v0.1h0v0.1l0,0v0.2h-0.1v0h-0.1v0l0,0v0h-0.1l0,0v-0.1h0.1v0h0.1l0,0l0,0v-0.1h0v-0.2l0,0v0l0.1,0v0l0,0l0,0
		v0h0v0l0,0v0h0v0h0v0h0v-0.1h0v-0.1h0v-0.1l0,0H31v-0.1l0,0v-0.1l0,0v-0.1h0v0h0v0v-0.1l0,0h0.3l0,0h0v0h0v0v0h-0.1L31.2,67.8
		L31.2,67.8L31.2,67.8l-0.1,0.1v0h0v-0.1L31.2,67.8L31.2,67.8L31.2,67.8L31.2,67.8L31.2,67.8L31.2,67.8z"/>
	<path id="Stroke-62" class="st0" d="M33.1,71.5L33.1,71.5L33.1,71.5l0.1-0.1l0,0v0l0,0v-0.1l0,0H33v0.1l0,0v0.1L33.1,71.5
		L33.1,71.5L33.1,71.5L33.1,71.5L33.1,71.5z"/>
</g>
<circle class="st1" cx="215.6" cy="35.9" r="7.4"/>
</svg>
