<?xml version="1.0" encoding="utf-8"?>
<!-- Generator: Adobe Illustrator 22.1.0, SVG Export Plug-In . SVG Version: 6.00 Build 0)  -->
<svg version="1.1" id="레이어_1" xmlns="http://www.w3.org/2000/svg" xmlns:xlink="http://www.w3.org/1999/xlink" x="0px"
	 y="0px" viewBox="0 0 400 44" style="enable-background:new 0 0 400 44;" xml:space="preserve">
<style type="text/css">
	.st0{fill:#EEEEEE;}
	.st1{fill:#CCCCCC;}
</style>
<g>
	<path class="st0" d="M387.1,0C369,4.7,350.9,41.5,332,41.5H68C49.1,41.5,31,4.7,12.9,0H387.1z"/>
	<path class="st1" d="M390.8,0c-9.3,0-19,10.4-28.4,20.5C352.5,31.1,342.4,42,332,42H68c-10.4,0-20.6-10.9-30.4-21.5
		C28.2,10.4,18.5,0,9.2,0h5.4c7.9,2.8,15.6,11.1,23.7,19.8C48,30.2,58,41,68,41h264c10,0,20-10.8,29.7-21.2
		c8.1-8.7,15.8-17,23.7-19.8H390.8z"/>
</g>
</svg>
