<?xml version="1.0" encoding="utf-8"?>
<!-- Generator: Adobe Illustrator 22.1.0, SVG Export Plug-In . SVG Version: 6.00 Build 0)  -->
<svg version="1.1" id="레이어_1" xmlns="http://www.w3.org/2000/svg" xmlns:xlink="http://www.w3.org/1999/xlink" x="0px"
	 y="0px" viewBox="0 0 190 46" style="enable-background:new 0 0 190 46;" xml:space="preserve">
<style type="text/css">
	.st0{enable-background:new    ;}
	.st1{fill:#FFFFFF;}
</style>
<g class="st0">
	<path class="st1" d="M21.3,27.2c0,0.5-0.1,0.9-0.3,1.2c-0.2,0.3-0.6,0.5-1.2,0.5L8.3,29.1c0,0.3,0,0.6-0.1,0.8s-0.1,0.4-0.3,0.6
		c-0.1,0.2-0.4,0.3-0.7,0.3c-0.3,0-0.6,0-0.9-0.1c-0.1,0-0.2-0.1-0.4-0.2c-0.1-0.1-0.2-0.3-0.2-0.5l-0.1-1.3L5,13.1l-0.8-1.5
		c-0.1-0.3-0.1-0.5,0-0.6c0.2-0.2,0.4-0.3,0.6-0.5c0.3-0.2,0.6-0.3,0.8-0.3c0.2,0,0.4,0,0.5,0.1l1.1,1.2l12.7-0.2
		c0.2,0,0.4,0,0.7,0.1c0.2,0,0.4,0.1,0.5,0.2c0.1,0.1,0.2,0.2,0.2,0.4c0.1,0.2,0.1,0.4,0.1,0.7V27.2z M18.7,14.5
		c0-0.3,0-0.6-0.1-0.7c-0.1-0.1-0.3-0.1-0.7-0.1l-9.3,0.2c-0.4,0-0.7,0.1-0.8,0.3c-0.1,0.2-0.1,0.4-0.1,0.7l0.4,12l9.7-0.3
		c0.3,0,0.5-0.1,0.7-0.2c0.1-0.2,0.2-0.4,0.2-0.8V14.5z M31.3,20.6l1.9-0.1c0.4,0,0.8,0,1.1-0.1c0.3-0.1,0.8-0.2,1.4-0.4
		c0.3-0.1,0.5-0.2,0.7-0.2c0.2-0.1,0.4-0.1,0.5-0.1c0.2,0,0.3,0,0.5,0c0.2,0,0.3,0.1,0.6,0.2l1.5,0.9c0.2,0.1,0.3,0.3,0.3,0.5
		c0,0.2,0,0.4-0.2,0.6l-0.2,0.3c-0.2,0.2-0.4,0.4-0.6,0.4c-0.2,0.1-0.5,0.1-0.7,0c-0.2,0-0.4,0-0.8-0.1c-0.3,0-0.5,0-0.6,0h-5.4
		v14.6c0,0.4-0.1,0.8-0.2,1.3c-0.2,0.4-0.3,0.8-0.5,1.2c-0.2,0.4-0.4,0.7-0.6,1s-0.3,0.5-0.4,0.6c-0.1,0.2-0.3,0.2-0.5,0.2
		c-0.2,0-0.3-0.1-0.3-0.3V5.5c0-0.5-0.1-1-0.4-1.3c-0.3-0.3-0.6-0.7-1-1c-0.3-0.2-0.3-0.5-0.1-1s0.5-0.5,0.9-0.4L30,2.7
		c0.6,0.3,1,0.6,1.1,0.8s0.2,0.6,0.2,1.1V20.6z"/>
	<path class="st1" d="M44.6,13.8c1.6-1.6,3.8-2.5,6.6-2.5c1.3,0,2.6,0.2,3.7,0.7c1.1,0.4,2,1,2.9,1.8c0.8,0.8,1.4,1.7,1.8,2.7
		c0.4,1.1,0.7,2.2,0.7,3.5s-0.2,2.4-0.7,3.5c-0.4,1.1-1.1,2-1.8,2.7c-0.8,0.8-1.8,1.4-2.9,1.8c-1.1,0.4-2.3,0.6-3.6,0.6
		c-1.3,0-2.5-0.2-3.6-0.6c-1.1-0.4-2.1-1-2.9-1.7c-0.8-0.8-1.4-1.7-1.8-2.7c-0.4-1.1-0.7-2.3-0.7-3.6C42.2,17.5,43,15.4,44.6,13.8z
		 M46.5,15.4c-1.1,1.2-1.7,2.8-1.7,4.6c0,1.8,0.6,3.4,1.7,4.6c1.1,1.2,2.7,1.8,4.7,1.8c2,0,3.5-0.6,4.6-1.8c1.1-1.2,1.7-2.7,1.7-4.6
		c0-1.8-0.5-3.4-1.6-4.6c-1.1-1.2-2.6-1.9-4.7-1.9C49.2,13.5,47.7,14.2,46.5,15.4z M71.3,37.2c0,0.4-0.1,0.8-0.2,1.3
		c-0.2,0.4-0.3,0.8-0.5,1.2c-0.2,0.4-0.4,0.7-0.6,1c-0.2,0.3-0.3,0.5-0.4,0.6c-0.1,0.2-0.3,0.2-0.5,0.2c-0.2,0-0.3-0.1-0.3-0.3V5.5
		c0-0.5-0.1-1-0.4-1.3s-0.6-0.7-1-1C67,3,67,2.6,67.2,2.2c0.2-0.4,0.5-0.5,0.9-0.4L70,2.7c0.6,0.3,1,0.6,1.1,0.8
		c0.1,0.2,0.2,0.6,0.2,1.1V37.2z"/>
	<path class="st1" d="M87.9,16.4c-0.2-0.2-0.2-0.4-0.2-0.8l0.1-0.8l2.6,0.3c0.7,0.1,1.1,0.3,1.2,0.7c0.2,0.4,0.2,0.7,0.2,0.9v10.6
		c0.7-0.2,1.4-0.4,2-0.6c0.7-0.2,1.4-0.4,2-0.7c0.1,0,0.2,0,0.5,0.1c0.2,0.1,0.4,0.2,0.6,0.3c0.3,0.2,0.4,0.4,0.5,0.7
		c0.1,0.3,0,0.5-0.3,0.6c-1.9,0.8-3.9,1.5-6,1.9s-4.1,0.7-6,1c-0.8,0.1-1.9,0.2-3.1,0.3c-1.2,0.1-2.2,0.1-3,0.1c-0.3,0-0.6,0-0.9,0
		c-0.4,0-0.7-0.1-1.1-0.3c-0.1-0.1-0.2-0.2-0.3-0.4c0-0.2,0-0.4,0-0.7l0.2-1.3c0.7,0.2,1.4,0.3,2.2,0.3c0.8,0,1.6,0,2.5,0v-8.7
		c0-0.5,0-0.9-0.1-1.2s-0.3-0.4-0.8-0.6c-0.2-0.1-0.4-0.2-0.6-0.3S80,17.4,80,17l0.1-0.8l2.6,0.3c0.7,0.1,1.1,0.3,1.2,0.7
		c0.2,0.4,0.2,0.7,0.2,0.9v10.4l0.8-0.1c0.7,0,1.4-0.1,2.1-0.2c0.7-0.1,1.5-0.2,2.3-0.4v-9.3c0-0.5,0-0.9-0.1-1.2s-0.3-0.4-0.8-0.6
		C88.3,16.7,88.1,16.6,87.9,16.4z M80.6,13.9c-0.7,0.1-1.2,0.1-1.7,0c-0.4-0.1-0.8-0.2-1-0.3c-0.2-0.1-0.3-0.2-0.3-0.3
		c0-0.1,0-0.3,0-0.5l0.2-1.6c1,0.2,2,0.3,3.1,0.4c1.1,0.1,2.1,0.1,3,0.1c0.8,0,1.5,0,2,0c0.6,0,1.1,0,1.7-0.1c0.5-0.1,1-0.1,1.6-0.2
		c0.5-0.1,1.1-0.1,1.8-0.3c0.9-0.1,1.5-0.2,1.8-0.1c0.3,0,0.6,0.1,0.9,0.3l1,0.6c0.3,0.3,0.5,0.5,0.6,0.6s0,0.4-0.2,0.8
		c-0.2,0.3-0.3,0.5-0.4,0.6c-0.1,0.1-0.3,0.1-0.6,0c-0.3-0.1-0.6-0.1-1-0.2c-0.4-0.1-0.8-0.1-1.3-0.2c-0.8-0.1-1.7-0.1-2.6-0.1
		c-0.9,0-1.9,0-3,0.1L80.6,13.9z M102.3,35.5c0,0.4-0.1,0.8-0.2,1.3c-0.2,0.4-0.3,0.8-0.5,1.2c-0.2,0.4-0.4,0.7-0.6,1
		c-0.2,0.3-0.3,0.5-0.4,0.6c-0.1,0.2-0.3,0.2-0.5,0.2c-0.2,0-0.3-0.1-0.3-0.3V20.9L96,21.1c-0.3,0-0.6,0-0.8-0.1
		c-0.2-0.1-0.4-0.2-0.5-0.5l-0.9-1.3c-0.1-0.2-0.1-0.3,0-0.5c0.2-0.2,0.4-0.3,0.7-0.2l1,0.2c0.2,0.1,0.5,0.1,0.8,0.1
		c0.3,0,0.6,0,0.7,0l2.7-0.1V8.3c0-0.3,0-0.5-0.1-0.8c-0.1-0.2-0.2-0.4-0.3-0.6c-0.1-0.2-0.3-0.3-0.5-0.5s-0.3-0.3-0.5-0.5
		c-0.3-0.2-0.3-0.5-0.1-1c0.2-0.4,0.5-0.5,0.9-0.4l1.8,0.8c0.6,0.3,1,0.6,1.1,0.8c0.1,0.2,0.2,0.6,0.2,1.2V35.5z M109.7,37.2
		c0,0.4-0.1,0.8-0.2,1.3c-0.2,0.4-0.3,0.8-0.5,1.2c-0.2,0.4-0.4,0.7-0.6,1c-0.2,0.3-0.3,0.5-0.4,0.6c-0.1,0.2-0.3,0.2-0.5,0.2
		c-0.2,0-0.3-0.1-0.3-0.3V5.5c0-0.5-0.1-1-0.4-1.3s-0.6-0.7-1-1c-0.3-0.2-0.3-0.5-0.1-1c0.2-0.4,0.5-0.5,0.9-0.4l1.8,0.8
		c0.6,0.3,1,0.6,1.2,0.8s0.2,0.6,0.2,1.1V37.2z"/>
	<path class="st1" d="M119.4,13.8c1.6-1.6,3.8-2.5,6.6-2.5c1.3,0,2.6,0.2,3.7,0.7c1.1,0.4,2,1,2.9,1.8c0.8,0.8,1.4,1.7,1.8,2.7
		c0.4,1.1,0.7,2.2,0.7,3.5s-0.2,2.4-0.7,3.5c-0.4,1.1-1.1,2-1.8,2.7c-0.8,0.8-1.8,1.4-2.9,1.8c-1.1,0.4-2.3,0.6-3.6,0.6
		c-1.3,0-2.5-0.2-3.6-0.6c-1.1-0.4-2.1-1-2.9-1.7c-0.8-0.8-1.4-1.7-1.8-2.7c-0.4-1.1-0.7-2.3-0.7-3.6
		C116.9,17.5,117.7,15.4,119.4,13.8z M121.3,15.4c-1.1,1.2-1.7,2.8-1.7,4.6c0,1.8,0.6,3.4,1.7,4.6c1.1,1.2,2.7,1.8,4.7,1.8
		c2,0,3.5-0.6,4.6-1.8c1.1-1.2,1.7-2.7,1.7-4.6c0-1.8-0.5-3.4-1.6-4.6c-1.1-1.2-2.6-1.9-4.7-1.9C124,13.5,122.4,14.2,121.3,15.4z
		 M146,37.2c0,0.4-0.1,0.8-0.2,1.3c-0.2,0.4-0.3,0.8-0.5,1.2c-0.2,0.4-0.4,0.7-0.6,1c-0.2,0.3-0.3,0.5-0.4,0.6
		c-0.1,0.2-0.3,0.2-0.5,0.2c-0.2,0-0.3-0.1-0.3-0.3V5.5c0-0.5-0.1-1-0.4-1.3c-0.3-0.3-0.6-0.7-1-1c-0.3-0.2-0.3-0.5-0.1-1
		c0.2-0.4,0.5-0.5,0.9-0.4l1.8,0.8c0.6,0.3,1,0.6,1.1,0.8s0.2,0.6,0.2,1.1V37.2z"/>
	<path class="st1" d="M165.1,17.3c-0.2,0.6-0.4,1.1-0.7,1.7l5.8,5.7c0.2,0.2,0.4,0.4,0.5,0.5c0.2,0.1,0.3,0.3,0.5,0.4
		c0.2,0.1,0.3,0.3,0.5,0.4c0.2,0.1,0.4,0.2,0.6,0.3c0.4,0.3,0.7,0.5,0.9,0.7c0.2,0.2,0.4,0.6,0.6,1.2l0.3,1.3c0.1,0.4,0.1,0.6,0,0.8
		c-0.1,0.2-0.2,0.3-0.4,0.4c-0.3,0.1-0.5,0.2-0.7,0.2c-0.2,0-0.4-0.2-0.6-0.4l-9-9.9c-1,1.8-2.3,3.6-3.8,5.4
		c-1.5,1.8-3.2,3.4-5.1,4.7c-0.2,0.2-0.4,0.3-0.6,0.4c-0.2,0.1-0.3,0.1-0.4,0.1c-0.3,0.1-0.5,0-0.7-0.1c-0.2-0.1-0.4-0.3-0.5-0.7
		c-0.1-0.1-0.1-0.3,0-0.5c0.1-0.2,0.2-0.3,0.3-0.4c1.6-1.1,3-2.3,4.2-3.7s2.3-2.8,3.2-4.2c0.9-1.4,1.6-2.7,2.1-4s0.8-2.4,1-3.3
		c0-0.2,0-0.3,0-0.5c0-0.2-0.1-0.3-0.3-0.5c-0.2-0.1-0.4-0.3-0.7-0.5c-0.3-0.2-0.6-0.4-0.9-0.6l-4.5,0.4c-0.6,0.1-1.2,0-1.6,0
		c-0.4-0.1-0.7-0.2-0.8-0.3c-0.2-0.1-0.3-0.2-0.4-0.3c-0.1-0.1-0.1-0.3,0-0.6l0.2-1.7c1,0.2,2,0.3,2.9,0.4s1.9,0.1,2.8,0.1
		c0.4,0,0.7,0,1,0s0.7,0,1,0c0.3,0,0.7,0,1.1,0c0.4,0,0.9-0.1,1.4-0.1c0.4,0,0.9,0,1.5-0.1c0.6-0.1,1.2-0.1,1.8-0.1
		c0.6-0.1,1.1-0.1,1.5-0.1c0.4,0,0.8-0.1,0.9-0.1c0.4,0,0.8,0,1.1-0.1c0.3,0,0.6,0,0.8,0c0.2,0,0.4,0,0.5,0.1c0.1,0,0.3,0.1,0.4,0.1
		l1,0.6c0.4,0.3,0.7,0.6,0.8,0.7c0.1,0.2,0.1,0.4-0.1,0.8c-0.2,0.3-0.3,0.5-0.5,0.6c-0.2,0.1-0.4,0.1-0.7,0c-0.1,0-0.2,0-0.4-0.1
		c-0.2,0-0.3-0.1-0.5-0.1c-0.2,0-0.4-0.1-0.7-0.1c-0.2,0-0.4-0.1-0.6-0.1c-1.3-0.1-2.3-0.1-3.3-0.1c-0.9,0-2,0-3.4,0h-0.2
		c0.3,0.2,0.5,0.4,0.8,0.5c0.3,0.2,0.4,0.4,0.5,0.5c0.1,0.2,0.1,0.5,0.1,0.9c0,0.4-0.1,1-0.3,1.6C165.5,16.2,165.3,16.7,165.1,17.3z
		 M183.4,37.2c0,0.4-0.1,0.8-0.2,1.3c-0.2,0.4-0.3,0.8-0.5,1.2c-0.2,0.4-0.4,0.7-0.5,1c-0.2,0.3-0.3,0.5-0.4,0.6
		c-0.1,0.2-0.3,0.2-0.5,0.2c-0.2,0-0.3-0.1-0.3-0.3V5.5c0-0.5-0.1-1-0.4-1.3s-0.6-0.7-1-1c-0.3-0.2-0.3-0.5-0.1-1
		c0.2-0.4,0.5-0.5,0.9-0.4l1.8,0.8c0.6,0.3,1,0.6,1.1,0.8s0.2,0.6,0.2,1.1V37.2z"/>
</g>
</svg>
