<?xml version="1.0" encoding="utf-8"?>
<!-- Generator: Adobe Illustrator 22.1.0, SVG Export Plug-In . SVG Version: 6.00 Build 0)  -->
<svg version="1.1" id="레이어_1" xmlns="http://www.w3.org/2000/svg" xmlns:xlink="http://www.w3.org/1999/xlink" x="0px"
	 y="0px" viewBox="0 0 156 46" style="enable-background:new 0 0 156 46;" xml:space="preserve">
<style type="text/css">
	.st0{enable-background:new    ;}
	.st1{fill:#FFFFFF;}
</style>
<g class="st0">
	<path class="st1" d="M20,6.2c0.3,0,0.5,0,0.6,0.1c0.2,0.1,0.3,0.2,0.5,0.3c0.1,0.1,0.2,0.2,0.3,0.3c0.1,0.1,0.1,0.2,0.1,0.3
		l-0.2,1.3c-0.1,1-0.4,2.1-0.7,3.4c-0.3,1.3-0.7,2.7-1.2,4.1c-0.5,1.4-1,2.9-1.6,4.3c-0.6,1.5-1.2,2.8-1.7,4
		c-0.2,0.3-0.4,0.6-0.7,0.7c-0.3,0.1-0.6,0.1-0.8,0c-0.2-0.1-0.4-0.2-0.5-0.4c-0.1-0.2-0.1-0.5,0.1-0.8c0.4-0.9,0.9-1.9,1.3-3.2
		c0.5-1.3,0.9-2.6,1.3-3.9c0.4-1.4,0.8-2.8,1.1-4.2s0.5-2.7,0.7-3.9c-0.3,0-0.6,0-0.9,0c-0.3,0-0.6,0-0.9,0c-0.3,0-0.6,0-0.9,0
		c-0.3,0-0.7,0-1.1,0c-0.9,0-2.1,0.1-3.5,0.2C10,8.9,8.6,9,7.3,9.1c-0.7,0.1-1.2,0.1-1.6,0C5.4,9,5.2,8.9,5,8.8
		C4.9,8.8,4.7,8.6,4.6,8.5S4.5,8,4.6,7.7l0.3-1.5c1,0.2,1.8,0.3,2.6,0.4c0.8,0.1,1.8,0.1,3,0.1c0.8,0,1.6,0,2.2,0
		c0.7,0,1.4,0,2.1-0.1L19,6.2L20,6.2z M18.3,28.8c1.6-1.3,3.6-2,6.2-2c1.1,0,2.2,0.2,3.3,0.5c1,0.4,1.9,0.8,2.7,1.5
		c0.8,0.6,1.4,1.4,1.8,2.4c0.4,1,0.7,2.1,0.7,3.3c0,2.3-0.8,4.1-2.4,5.5c-1.6,1.4-3.6,2.1-6,2.1c-2.5,0-4.6-0.7-6.2-2.1
		c-1.6-1.4-2.4-3.2-2.4-5.5C16,32.1,16.7,30.1,18.3,28.8z M20,30.7c-0.9,1-1.4,2.3-1.4,3.8c0,1.4,0.5,2.7,1.4,3.7
		c1,1,2.4,1.6,4.4,1.6c2,0,3.5-0.5,4.4-1.6c0.9-1,1.3-2.3,1.3-3.7c0-1.5-0.5-2.8-1.4-3.8c-0.9-1-2.4-1.6-4.3-1.6
		C22.5,29.2,21,29.7,20,30.7z M33.6,22.1c0,0.4-0.1,0.8-0.2,1.3c-0.2,0.4-0.3,0.8-0.5,1.2c-0.2,0.4-0.4,0.7-0.6,1
		c-0.2,0.3-0.3,0.5-0.4,0.6c-0.1,0.2-0.3,0.3-0.5,0.3c-0.2,0-0.3-0.2-0.3-0.4v-6.6l-7.9,0.4c-0.3,0-0.6,0-0.8-0.1
		c-0.2-0.1-0.3-0.2-0.4-0.5L21.2,18c-0.1-0.2-0.1-0.3,0-0.5c0.1-0.2,0.4-0.3,0.7-0.2l1,0.3c0.2,0.1,0.4,0.1,0.7,0.1
		c0.3,0,0.6,0,0.7,0l6.7-0.2V12l-6.6,0.3c-0.3,0-0.6,0-0.8-0.1c-0.2-0.1-0.3-0.2-0.4-0.4l-0.9-1.4c-0.1-0.2-0.1-0.3,0-0.5
		c0.2-0.2,0.4-0.3,0.7-0.2l1,0.2c0.2,0.1,0.4,0.1,0.7,0.1c0.3,0,0.6,0,0.7,0L31,9.9V5.5c0-0.5-0.1-1-0.4-1.3s-0.6-0.7-1-1
		c-0.3-0.2-0.3-0.5-0.1-1c0.2-0.4,0.5-0.5,0.9-0.4l1.8,0.8c0.6,0.3,1,0.6,1.1,0.8s0.2,0.6,0.2,1.1V22.1z"/>
	<path class="st1" d="M47.3,9.7c-1.5,0.1-2.9,0.1-4.2,0.2c-0.7,0-1.2,0-1.7,0c-0.4,0-0.8-0.1-1-0.3c-0.2-0.1-0.3-0.2-0.3-0.4
		c0-0.1,0-0.3,0-0.6l0.2-1.6c1,0.2,2,0.3,3,0.4c1,0.1,2,0.1,2.9,0.1c0.7,0,1.3,0,2,0s1.3,0,2,0V5.2c0-0.6-0.1-1-0.2-1.2
		c-0.1-0.2-0.4-0.5-0.7-0.8c-0.2-0.1-0.2-0.4,0-0.7s0.4-0.5,0.6-0.4l1.6,0.5c0.6,0.2,1,0.5,1.1,0.8c0.1,0.3,0.2,0.7,0.2,1.2v3
		c1.3-0.1,2.5-0.1,3.7-0.3c1.2-0.1,1.9-0.2,2.2-0.3c0.9-0.1,1.5-0.2,1.8-0.1c0.3,0,0.6,0.1,0.9,0.3l1.1,0.6C62.9,8,63,8.3,63.1,8.4
		c0,0.2,0,0.4-0.2,0.8s-0.3,0.6-0.4,0.7c-0.1,0.1-0.3,0.1-0.6,0c-0.1,0-0.3,0-0.5-0.1S61,9.7,60.8,9.7c-0.2-0.1-0.4-0.1-0.6-0.1
		c-0.2,0-0.4-0.1-0.6-0.1c-0.6,0-1.3,0-2-0.1c-0.7,0-1.3,0-2,0c-0.7,0-1.4,0.1-2,0.1c-0.7,0-1.4,0.1-2,0.1
		C50.3,9.6,48.8,9.7,47.3,9.7z M45.9,13.7c1.5-1.3,3.3-1.9,5.6-1.9c2.2,0,4,0.6,5.4,1.9c1.5,1.3,2.2,3,2.2,5.1
		c0,2.1-0.7,3.8-2.1,5.1c-1.4,1.3-3.2,1.9-5.5,1.9s-4.2-0.6-5.6-1.9c-1.5-1.3-2.2-3-2.2-5.1C43.7,16.6,44.4,14.9,45.9,13.7z
		 M47.7,15.4c-0.9,0.9-1.3,2-1.3,3.3c0,1.3,0.5,2.5,1.4,3.4c1,0.9,2.2,1.4,3.8,1.4c1.8,0,3.1-0.5,3.9-1.4c0.8-0.9,1.2-2.1,1.2-3.4
		c0-1.3-0.4-2.4-1.3-3.3c-0.9-0.9-2.1-1.4-3.8-1.4C49.8,14.1,48.6,14.5,47.7,15.4z M70.6,39.1c0,0.5-0.1,0.9-0.3,1.2
		c-0.2,0.3-0.6,0.5-1.3,0.5l-15,0.2c0,0.3,0,0.6-0.1,0.8c-0.1,0.2-0.2,0.4-0.3,0.5c-0.1,0.2-0.4,0.3-0.7,0.4c-0.3,0.1-0.6,0-0.8-0.1
		c-0.1,0-0.3-0.1-0.4-0.2s-0.2-0.3-0.2-0.4l-0.1-1.4l-0.8-9.1L50.1,30c-0.1-0.2-0.1-0.4,0-0.6c0.2-0.2,0.4-0.3,0.6-0.5
		c0.3-0.2,0.5-0.3,0.7-0.3c0.2,0,0.4,0,0.5,0.1L53,30l16.1-0.3c0.1,0,0.2,0,0.3,0c0.1,0,0.2,0,0.3,0c0.1,0,0.2,0,0.3,0
		c0.1,0,0.2,0.1,0.2,0.1c0.1,0.1,0.1,0.2,0.2,0.4c0.1,0.2,0.1,0.4,0.1,0.7V39.1z M68,32.8c0-0.4,0-0.6-0.1-0.7S67.6,32,67.2,32
		l-12.9,0.2c-0.2,0-0.4,0-0.5,0.1c-0.1,0.1-0.2,0.1-0.2,0.2c-0.1,0.1-0.1,0.2-0.1,0.3s0,0.2,0,0.4l0.5,5.6l13.1-0.2
		c0.3,0,0.5-0.1,0.7-0.3c0.2-0.2,0.2-0.4,0.2-0.8V32.8z M71,23.3c0,0.4-0.1,0.8-0.2,1.3c-0.2,0.4-0.3,0.8-0.5,1.2
		c-0.2,0.4-0.4,0.7-0.6,1s-0.3,0.5-0.4,0.6c-0.1,0.2-0.3,0.2-0.5,0.2c-0.2,0-0.3-0.2-0.3-0.4v-8.9l-6,0.3c-0.3,0-0.6,0-0.8-0.1
		c-0.2-0.1-0.4-0.2-0.5-0.5l-0.9-1.3c-0.1-0.2-0.1-0.4,0-0.5c0.2-0.2,0.4-0.3,0.7-0.2l1,0.2c0.2,0.1,0.5,0.1,0.8,0.1
		c0.3,0,0.6,0,0.7,0l5-0.2V5.5c0-0.5-0.1-1-0.4-1.3s-0.6-0.7-1-1c-0.3-0.2-0.3-0.5-0.1-1c0.2-0.4,0.5-0.5,0.9-0.4l1.8,0.8
		c0.6,0.3,1,0.6,1.2,0.8S71,4.1,71,4.6V23.3z"/>
	<path class="st1" d="M85.7,22.8L81,23c-0.3,0-0.5,0-0.9,0.1c-0.3,0-0.7,0-1,0c-0.3,0-0.6,0-0.9,0c-0.3,0-0.5-0.1-0.7-0.2
		c-0.2,0-0.3-0.2-0.4-0.4c-0.1-0.2-0.1-0.5,0-0.9l0.3-1.4c0.5,0.1,1.2,0.2,2.1,0.3c0.8,0.1,1.7,0.1,2.5,0.2c0.8,0,1.6,0,2.3,0.1
		c0.7,0,1.2,0,1.4,0c1.3,0,2.5,0,3.7,0c1.2,0,2.4,0,3.5-0.1v-6.1c0-0.5,0-0.9-0.1-1.2S92.4,13,92,12.8c-0.2-0.1-0.4-0.2-0.6-0.3
		s-0.2-0.4-0.2-0.8l0.1-0.8l2.6,0.3c0.7,0.1,1.1,0.3,1.2,0.7c0.2,0.4,0.2,0.7,0.2,0.9v7.8l7.5-0.3c0.4,0,0.9,0,1.6-0.1
		c0.6,0,1.3-0.1,1.9-0.1c0.6-0.1,1.2-0.1,1.7-0.1c0.5,0,0.8-0.1,1-0.1c0.9-0.1,1.6-0.1,2.1-0.1s0.9,0.1,1.2,0.3l1.4,1.3
		c0.2,0.2,0.3,0.4,0.3,0.5c0,0.2,0,0.3,0,0.4c-0.1,0.2-0.2,0.3-0.3,0.5c-0.1,0.2-0.3,0.2-0.5,0.1l-2.6-0.4c-0.5,0-1.2-0.1-1.9-0.1
		s-1.5,0-2.3,0c-0.8,0-1.6,0-2.3,0c-0.8,0-1.4,0-2,0L85.7,22.8z M106.6,5.2c0,0.1,0,0.1,0,0.2s0,0.2,0,0.3c0,0.1,0,0.2,0,0.4
		c-0.1,0.6-0.2,1.3-0.4,2.3c-0.2,1-0.5,2-0.8,3c-0.3,1.1-0.6,2.1-0.9,3c-0.3,0.9-0.6,1.6-0.8,2c-0.1,0.3-0.3,0.5-0.6,0.6
		c-0.2,0.1-0.5,0.1-0.7,0.1c-0.2-0.1-0.4-0.2-0.5-0.4c-0.1-0.2-0.1-0.4-0.1-0.7c0.4-1.5,0.8-3.2,1.2-5c0.3-1.8,0.6-3.4,0.8-4.9
		l-4.1,0c-0.1,0-0.8,0-2.2,0.1c-1.4,0-3,0.1-4.9,0.1c-0.5,0-1,0-1.4,0c-0.4,0-0.9,0-1.3,0s-0.9,0-1.4,0c-0.5,0-0.9,0-1.4,0
		c-0.3,0-0.6,0-1,0c-0.4,0-0.8-0.1-1.2-0.2c-0.2,0-0.3-0.1-0.4-0.3c-0.1-0.2-0.1-0.4,0-0.7l0.3-1.6c0.5,0.2,1,0.3,1.7,0.4
		c0.7,0.1,1.4,0.2,2.1,0.2c0.7,0,1.4,0,2,0.1c0.7,0,1.2,0,1.6,0c0.6,0,1.2,0,2.1,0c0.8,0,1.6,0,2.4,0c0.8,0,1.4-0.1,2-0.1
		c0.6,0,0.9,0,1,0l5.1-0.3c0.2-0.1,0.5,0,0.9,0c0.4,0.1,0.7,0.3,0.9,0.6c0.1,0.1,0.1,0.2,0.1,0.3c0,0.1,0,0.2,0,0.3
		C106.6,5,106.6,5.1,106.6,5.2z M89.5,29.2c1.7-1.4,3.7-2.1,6.3-2.1c1.1,0,2.2,0.2,3.3,0.5c1,0.4,2,0.9,2.8,1.6
		c0.8,0.7,1.4,1.5,1.9,2.5s0.7,2.1,0.7,3.3c0,1.1-0.2,2.2-0.7,3.1c-0.4,1-1,1.8-1.8,2.5c-0.8,0.7-1.7,1.2-2.8,1.6
		c-1.1,0.4-2.2,0.6-3.4,0.6c-1.3,0-2.4-0.2-3.5-0.6c-1.1-0.4-2-0.9-2.8-1.6c-0.8-0.7-1.4-1.5-1.8-2.5c-0.4-1-0.7-2-0.7-3.1
		C87.1,32.4,87.9,30.5,89.5,29.2z M91.3,31c-1,1.1-1.5,2.4-1.5,3.9c0,1.4,0.5,2.7,1.5,3.8c1,1.1,2.5,1.6,4.5,1.6
		c2,0,3.5-0.5,4.5-1.6s1.4-2.4,1.4-3.8c0-1.5-0.5-2.8-1.5-3.9c-1-1.1-2.5-1.6-4.4-1.6C93.8,29.4,92.3,30,91.3,31z"/>
	<path class="st1" d="M141.8,37.8c0,0.3-0.1,0.6-0.2,1c-0.1,0.4-0.3,0.7-0.5,1c-0.2,0.4-0.3,0.7-0.5,1c-0.2,0.3-0.3,0.5-0.4,0.6
		c-0.1,0.2-0.3,0.2-0.6,0.2c-0.3,0-0.4-0.2-0.4-0.4V28.5c0-0.8-0.1-1.4-0.4-1.7c-0.2-0.3-0.6-0.7-0.9-1c0,0,0,0-0.1,0c0,0,0,0,0-0.1
		l-9.5,0.2c0.4,0.3,0.6,0.6,0.7,1c0.1,0.4,0.1,0.8,0.1,1.2v9.8c0,0.3-0.1,0.6-0.2,1c-0.1,0.4-0.3,0.7-0.5,1c-0.2,0.4-0.3,0.7-0.5,1
		c-0.2,0.3-0.3,0.5-0.4,0.6c-0.1,0.2-0.3,0.2-0.6,0.2c-0.3,0-0.4-0.2-0.4-0.4V28.5c0-0.7-0.1-1.2-0.3-1.6c-0.2-0.3-0.5-0.7-0.8-1
		l-1.6,0l-4.7,0.2c-0.3,0-0.5,0-0.9,0.1c-0.3,0-0.7,0-1,0c-0.3,0-0.6,0-0.9,0c-0.3,0-0.5-0.1-0.7-0.2c-0.2,0-0.3-0.2-0.4-0.4
		c-0.1-0.2-0.1-0.5,0-0.9l0.3-1.4c0.5,0.1,1.2,0.2,2.1,0.3c0.8,0.1,1.7,0.1,2.5,0.2c0.8,0,1.6,0,2.3,0.1c0.7,0,1.2,0,1.4,0
		c1.8,0.1,3.4,0.1,5,0.1c1.6,0,3.1,0,4.6-0.1c1.4,0,2.8-0.1,4.1-0.1c1.3,0,2.5-0.1,3.6-0.1c0.4,0,0.9,0,1.6,0c0.6,0,1.3-0.1,1.9-0.1
		c0.6,0,1.2-0.1,1.7-0.1c0.5,0,0.8-0.1,1-0.1c0.9-0.1,1.6-0.1,2.1-0.1c0.5,0,0.9,0.1,1.2,0.3l1.4,1.3c0.2,0.2,0.3,0.4,0.3,0.5
		c0,0.2,0,0.3,0,0.4c-0.1,0.2-0.2,0.3-0.3,0.5c-0.1,0.2-0.3,0.2-0.5,0.1l-2.6-0.4c-0.5-0.1-1.2-0.1-1.9-0.1c-0.7,0-1.5-0.1-2.3-0.1
		c-0.8,0-1.5,0-2.3,0s-1.4,0-2,0c0.6,0.3,0.9,0.7,1.1,1.1c0.1,0.4,0.2,0.8,0.2,1.3V37.8z M127.1,6.2c1.6-1.5,3.8-2.3,6.6-2.3
		c1.3,0,2.6,0.2,3.7,0.6s2,1,2.9,1.7c0.8,0.7,1.4,1.5,1.8,2.5c0.4,1,0.7,2.1,0.7,3.2c0,1.3-0.2,2.4-0.7,3.4c-0.5,1-1.1,1.8-1.9,2.5
		c-0.8,0.7-1.7,1.2-2.8,1.6c-1.1,0.3-2.3,0.5-3.5,0.5c-2.6,0-4.8-0.7-6.5-2.1c-1.7-1.4-2.5-3.4-2.5-5.9
		C124.6,9.7,125.5,7.7,127.1,6.2z M129,7.8c-1.1,1.1-1.7,2.5-1.7,4.2c0,1.8,0.6,3.2,1.7,4.2s2.7,1.6,4.7,1.6c2,0,3.5-0.5,4.6-1.6
		s1.7-2.5,1.7-4.2c0-1.7-0.5-3.1-1.6-4.2c-1.1-1.1-2.6-1.7-4.7-1.7C131.7,6.2,130.1,6.7,129,7.8z"/>
</g>
</svg>
