<?xml version="1.0" encoding="utf-8"?>
<!-- Generator: Adobe Illustrator 22.1.0, SVG Export Plug-In . SVG Version: 6.00 Build 0)  -->
<svg version="1.1" id="레이어_1" xmlns="http://www.w3.org/2000/svg" xmlns:xlink="http://www.w3.org/1999/xlink" x="0px"
	 y="0px" viewBox="0 0 156 46" style="enable-background:new 0 0 156 46;" xml:space="preserve">
<style type="text/css">
	.st0{enable-background:new    ;}
	.st1{fill:#FFFFFF;}
</style>
<g class="st0">
	<path class="st1" d="M10.6,35.9L5.9,36c-0.3,0-0.5,0-0.9,0.1c-0.3,0-0.7,0-1,0c-0.3,0-0.6,0-0.9,0c-0.3,0-0.5-0.1-0.7-0.2
		c-0.2,0-0.3-0.2-0.4-0.4c-0.1-0.2-0.1-0.5,0-0.9l0.3-1.4c0.5,0.1,1.2,0.2,2.1,0.3c0.8,0.1,1.7,0.1,2.5,0.2c0.8,0.1,1.6,0.1,2.3,0.1
		c0.7,0,1.2,0,1.4,0c1.6,0,3.1,0,4.5,0c1.5,0,2.9,0,4.2-0.1v-2.7c0-0.5,0-0.9-0.1-1.2s-0.3-0.4-0.8-0.6c-0.2-0.1-0.4-0.2-0.6-0.3
		s-0.2-0.4-0.2-0.8l0.1-0.8l2.6,0.3c0.7,0.1,1.1,0.3,1.2,0.7c0.2,0.4,0.2,0.7,0.2,0.9v4.4l6-0.2c0.4,0,0.9,0,1.6-0.1
		c0.6,0,1.3-0.1,1.9-0.1c0.6-0.1,1.2-0.1,1.7-0.1c0.5,0,0.8-0.1,1-0.1c0.9-0.1,1.6-0.1,2.1-0.1s0.9,0.1,1.2,0.3l1.4,1.3
		c0.2,0.2,0.3,0.4,0.3,0.5c0,0.2,0,0.3,0,0.4c-0.1,0.2-0.2,0.3-0.3,0.5c-0.1,0.2-0.3,0.2-0.5,0.1l-2.6-0.4c-0.5-0.1-1.2-0.1-1.9-0.1
		c-0.7,0-1.5,0-2.3,0c-0.8,0-1.6,0-2.3,0s-1.4,0-2,0L10.6,35.9z M11.2,12.9c0.5-1.1,1.1-2.1,2-2.9c0.8-0.8,1.8-1.4,3-1.8
		c1.1-0.4,2.4-0.7,3.8-0.7c1.3,0,2.6,0.2,3.7,0.7c1.1,0.4,2.1,1,3,1.8c0.8,0.8,1.5,1.7,2,2.9s0.7,2.4,0.7,3.8c0,1.4-0.2,2.7-0.7,3.8
		c-0.5,1.1-1.2,2.1-2,2.9c-0.8,0.8-1.8,1.4-3,1.8c-1.1,0.4-2.4,0.6-3.7,0.6c-1.3,0-2.5-0.2-3.7-0.6c-1.1-0.4-2.2-1-3-1.8
		c-0.8-0.8-1.5-1.7-2-2.9c-0.5-1.1-0.7-2.4-0.7-3.8C10.5,15.3,10.7,14,11.2,12.9z M15.1,11.7c-1.3,1.3-1.9,2.9-1.9,5
		c0,2.2,0.6,3.8,1.9,5c1.3,1.2,2.9,1.8,4.9,1.8c2,0,3.6-0.6,4.8-1.8c1.3-1.2,1.9-2.9,1.9-5c0-2-0.6-3.7-1.8-5
		C23.7,10.4,22,9.8,20,9.8C18,9.8,16.3,10.4,15.1,11.7z"/>
	<path class="st1" d="M48.9,24.2l-4.7,0.1c-0.3,0-0.5,0-0.9,0.1c-0.3,0-0.7,0-1,0c-0.3,0-0.6,0-0.9,0c-0.3,0-0.5-0.1-0.7-0.2
		c-0.2,0-0.3-0.2-0.4-0.4c-0.1-0.2-0.1-0.5,0-0.9l0.3-1.4c0.5,0.1,1.2,0.2,2.1,0.3c0.8,0.1,1.7,0.1,2.5,0.2s1.6,0.1,2.3,0.1
		c0.7,0,1.2,0,1.4,0c1.8,0,3.4,0,5,0c1.6,0,3.1,0,4.6-0.1c1.4,0,2.8-0.1,4.1-0.1c1.3,0,2.5-0.1,3.6-0.1c0.4,0,0.9,0,1.6-0.1
		c0.6,0,1.3-0.1,1.9-0.1c0.6-0.1,1.2-0.1,1.7-0.1c0.5,0,0.8-0.1,1-0.1c0.9-0.1,1.6-0.1,2.1-0.1s0.9,0.1,1.2,0.3l1.4,1.3
		c0.2,0.2,0.3,0.4,0.3,0.5c0,0.2,0,0.3,0,0.4c-0.1,0.2-0.2,0.3-0.3,0.5c-0.1,0.2-0.3,0.2-0.5,0.1L73.8,24c-0.5-0.1-1.2-0.1-1.9-0.1
		c-0.7,0-1.5-0.1-2.3-0.1c-0.8,0-1.6,0-2.3,0c-0.8,0-1.4,0-2,0L48.9,24.2z M52.5,5c-0.3,0-0.7,0-1,0c-0.4,0-0.7,0-1,0
		c-0.3,0-0.6,0-1.1,0c-0.5,0-0.8-0.1-1.1-0.2c-0.2-0.1-0.4-0.2-0.5-0.4c-0.1-0.2-0.1-0.3-0.1-0.6L48,2.3c0.8,0.1,1.6,0.2,2.4,0.3
		c0.8,0.1,1.6,0.1,2.3,0.1c0.8,0,1.5,0,2.3,0c0.8,0,1.6,0,2.4,0l8.9-0.2c0.2,0,0.4,0,0.6,0.1s0.4,0.1,0.5,0.2
		c0.1,0.1,0.2,0.2,0.2,0.4c0.1,0.2,0.1,0.4,0.1,0.7v5.5c0,0.5-0.1,0.9-0.4,1.1c-0.3,0.2-0.8,0.4-1.4,0.4L52,11.1c0,0.2,0,0.5,0,0.7
		c0,0.3,0,0.5,0,0.8v1.5c0,0.4,0,0.8,0.1,1c0.1,0.2,0.4,0.4,0.9,0.4h6.7c1.2,0,2.4-0.1,3.4-0.2c1.1-0.1,1.8-0.3,2.4-0.4
		c0.3-0.1,0.6-0.1,0.7-0.1c0.2,0,0.4,0.1,0.7,0.1l1.5,0.6c0.4,0.2,0.7,0.3,0.8,0.5c0.1,0.1,0.1,0.4,0,0.8c-0.1,0.3-0.1,0.4-0.2,0.5
		c-0.1,0.1-0.1,0.2-0.2,0.3c-0.1,0.1-0.2,0.1-0.3,0.1s-0.3,0-0.5,0H52.9c-0.3,0-0.7,0-1.1-0.1c-0.4,0-0.8-0.1-1.1-0.3
		c-0.4-0.2-0.7-0.4-0.9-0.8c-0.2-0.3-0.4-0.8-0.4-1.3V13c0-0.3,0-0.5,0-0.8c0-0.2,0-0.4-0.1-0.6c-0.1-0.2-0.1-0.3-0.3-0.4
		c-0.1-0.1-0.3-0.2-0.5-0.4c-0.3-0.1-0.5-0.3-0.7-0.5c-0.2-0.2-0.3-0.5-0.3-0.8V8.6l2.5,0.2c0.1,0,0.1,0,0.2,0c0.1,0,0.1,0,0.2,0
		c0.1,0,0.1,0,0.2,0c0.1,0,0.1,0,0.2,0l13.4-0.3c0.3,0,0.5-0.1,0.7-0.2c0.1-0.2,0.2-0.4,0.2-0.8V5.6c0-0.4,0-0.6-0.1-0.7
		c-0.1-0.1-0.3-0.1-0.7-0.1l-6.7,0.1L52.5,5z M68.8,39.1c0,0.5-0.1,0.9-0.3,1.2c-0.2,0.3-0.6,0.5-1.3,0.5l-15.1,0.2
		c0,0.3,0,0.6-0.1,0.8c-0.1,0.2-0.2,0.4-0.3,0.5c-0.2,0.2-0.4,0.3-0.7,0.4c-0.3,0.1-0.6,0-0.8-0.1c-0.1,0-0.3-0.1-0.4-0.2
		c-0.1-0.1-0.2-0.3-0.2-0.4l-0.1-1.4L48.9,31l-0.8-1.5c-0.1-0.2-0.1-0.4,0-0.6c0.2-0.2,0.4-0.3,0.6-0.5c0.3-0.2,0.5-0.3,0.7-0.3
		c0.2,0,0.4,0,0.5,0.1l1.1,1.2l16.3-0.2c0.2,0,0.4,0,0.7,0c0.2,0,0.4,0.1,0.5,0.2c0.1,0.1,0.1,0.2,0.2,0.4c0,0.2,0.1,0.4,0.1,0.7
		V39.1z M66.3,32.4c0-0.4,0-0.6-0.1-0.7s-0.3-0.1-0.7-0.1l-13,0.1c-0.2,0-0.4,0-0.5,0.1c-0.1,0.1-0.2,0.1-0.2,0.2
		c-0.1,0.1-0.1,0.2-0.1,0.3c0,0.1,0,0.2,0,0.4l0.5,6.1l13.3-0.2c0.3,0,0.5-0.1,0.7-0.3c0.2-0.2,0.2-0.4,0.2-0.8V32.4z"/>
	<path class="st1" d="M86.7,22.5c-0.2-0.2-0.2-0.4-0.2-0.8l0.1-0.8l2.6,0.3c0.7,0.1,1.1,0.3,1.2,0.7c0.2,0.4,0.2,0.7,0.2,0.9v11
		c0.6,0,1.2,0,1.7,0c0.6,0,1.1,0,1.7,0c0.6,0,1.1,0,1.6,0c0.5,0,1.1,0,1.6-0.1V22.9c0-0.6,0-1-0.1-1.2s-0.3-0.4-0.8-0.5
		c-0.2-0.1-0.4-0.2-0.6-0.4c-0.2-0.2-0.2-0.4-0.2-0.8l0.1-0.8l2.6,0.3c0.7,0.1,1.1,0.3,1.2,0.7c0.2,0.4,0.2,0.7,0.2,0.9v12.4
		c0.4,0,0.7,0,1.1,0c0.4,0,0.7,0,1.1-0.1c0.4,0,0.7,0,1.1,0c0.4,0,0.7,0,1-0.1c0.4,0,0.9,0,1.6-0.1c0.6,0,1.3-0.1,1.9-0.1
		c0.6-0.1,1.2-0.1,1.7-0.1c0.5,0,0.8-0.1,1-0.1c0.9-0.1,1.6-0.1,2.1-0.1c0.5,0,0.9,0.1,1.2,0.3l1.4,1.3c0.2,0.2,0.3,0.4,0.3,0.5
		c0,0.2,0,0.3,0,0.4c-0.1,0.2-0.2,0.3-0.3,0.5c-0.1,0.2-0.3,0.2-0.5,0.1l-2.6-0.4c-0.5,0-1.2-0.1-1.9-0.1c-0.7,0-1.5,0-2.3,0
		c-0.8,0-1.6,0-2.3,0c-0.8,0-1.4,0-2,0l-16.5,0.4L82.3,36c-0.3,0-0.5,0-0.9,0.1c-0.3,0-0.7,0-1,0c-0.3,0-0.6,0-0.9,0
		c-0.3,0-0.5-0.1-0.7-0.2c-0.2,0-0.3-0.2-0.4-0.4c-0.1-0.2-0.1-0.5,0-0.9l0.3-1.4c0.5,0.1,1.2,0.2,2.1,0.3c0.8,0.1,1.7,0.1,2.5,0.2
		c0.8,0,1.6,0,2.3,0.1c0.7,0,1.2,0,1.4,0h1.1v-9.2c0-0.6,0-1-0.1-1.2s-0.3-0.4-0.8-0.5C87.1,22.8,86.9,22.7,86.7,22.5z M108.7,10.2
		c0,0.1,0,0.1,0,0.2s0,0.2,0,0.3c0,0.1,0,0.2,0,0.4c-0.1,1-0.2,2.1-0.4,3.6c-0.2,1.4-0.4,2.9-0.7,4.5c-0.3,1.5-0.5,3.1-0.9,4.5
		c-0.3,1.5-0.6,2.7-0.9,3.7c-0.1,0.3-0.3,0.5-0.5,0.6c-0.2,0.1-0.4,0.1-0.6,0c-0.2-0.1-0.4-0.2-0.5-0.4c-0.1-0.2-0.2-0.4-0.1-0.7
		c0.3-1.2,0.5-2.5,0.7-3.9c0.2-1.4,0.4-2.7,0.6-4.1c0.2-1.4,0.3-2.7,0.4-4.1c0.1-1.3,0.2-2.6,0.3-3.8l-4.7,0c-0.1,0-0.4,0-0.9,0
		c-0.5,0-1.2,0-2,0.1c-0.8,0-1.7,0.1-2.7,0.1c-1,0-2,0-2.9,0c-0.5,0-1,0-1.4,0s-0.9,0-1.3,0c-0.4,0-0.9,0-1.4,0c-0.5,0-0.9,0-1.4,0
		c-0.3,0-0.6,0-1,0c-0.4,0-0.8-0.1-1.2-0.2c-0.2,0-0.3-0.1-0.4-0.3c0-0.2,0-0.4,0-0.7l0.3-1.6c0.5,0.2,1,0.3,1.7,0.4
		c0.7,0.1,1.4,0.2,2.1,0.2c0.7,0,1.4,0,2,0.1c0.7,0,1.2,0,1.6,0c0.6,0,1.3,0,2.3,0c1,0,1.9,0,2.9,0c1,0,1.8-0.1,2.5-0.1
		c0.7,0,1.1,0,1.2,0l5.5-0.3h0c0.2-0.1,0.5,0,0.9,0c0.4,0.1,0.7,0.3,0.9,0.6c0.1,0.1,0.1,0.2,0.1,0.3c0,0.1,0,0.2,0,0.3
		C108.7,10,108.7,10.1,108.7,10.2z"/>
	<path class="st1" d="M145.6,37.9c0,0.5-0.1,1.1-0.4,1.7s-0.5,1-0.7,1.3l-0.6,1c-0.1,0.2-0.3,0.2-0.5,0.2c-0.2,0-0.4-0.1-0.4-0.3
		v-10l-5.1,0.1c-0.1,0-0.4,0-0.8,0c-0.4,0-0.9,0-1.4,0.1c-0.6,0-1.1,0-1.6,0.1c-0.5,0-0.9,0-1,0l-4.5,0.2c-0.3,0-0.7,0-1,0.1
		c-0.3,0-0.7,0-1,0c-0.1,0-0.3,0-0.5,0c-0.2,0-0.4,0-0.5,0c-0.2,0-0.4-0.1-0.5-0.1s-0.4-0.1-0.5-0.2c-0.2-0.1-0.3-0.2-0.3-0.4
		c0-0.2,0-0.4,0-0.7l0.1-1.4c0.6,0.1,1.3,0.2,2.1,0.3c0.8,0.1,1.7,0.1,2.6,0.1v-4.4c0-0.7-0.1-1.3-0.3-1.6c-0.2-0.3-0.5-0.7-0.8-1
		l-2.5,0l-4.7,0.2c-0.3,0-0.5,0-0.9,0.1c-0.3,0-0.7,0-1,0c-0.3,0-0.6,0-0.9,0c-0.3,0-0.5-0.1-0.7-0.2c-0.2,0-0.3-0.2-0.4-0.4
		c-0.1-0.2-0.1-0.5,0-0.9l0.3-1.4c0.5,0.1,1.2,0.2,2.1,0.3c0.8,0.1,1.7,0.1,2.5,0.2c0.8,0,1.6,0,2.3,0.1c0.7,0,1.2,0,1.4,0
		c1.8,0.1,3.4,0.1,5,0.1c1.6,0,3.1,0,4.6-0.1c1.4,0,2.8-0.1,4.1-0.1c1.3,0,2.5-0.1,3.6-0.1c0.4,0,0.9,0,1.6,0c0.6,0,1.3-0.1,1.9-0.1
		c0.6,0,1.2-0.1,1.7-0.1c0.5,0,0.8-0.1,1-0.1c0.9-0.1,1.6-0.1,2.1-0.1c0.5,0,0.9,0.1,1.2,0.3l1.4,1.3c0.2,0.2,0.3,0.4,0.3,0.5
		c0,0.2,0,0.3,0,0.4c-0.1,0.2-0.2,0.3-0.3,0.5c-0.1,0.2-0.3,0.2-0.5,0.1l-2.6-0.4c-0.5-0.1-1.2-0.1-1.9-0.1c-0.7,0-1.5-0.1-2.3-0.1
		c-0.8,0-1.6,0-2.3,0c-0.8,0-1.4,0-2,0h-0.3c0.5,0.3,0.8,0.7,0.9,1c0.1,0.4,0.1,0.8,0.1,1.2v2.7c0,0.3-0.1,0.6-0.3,1
		c-0.2,0.4-0.3,0.8-0.5,1.1l2.9-0.1c0.2,0,0.3,0,0.4,0.1s0.2,0.1,0.3,0.2s0.2,0.2,0.2,0.3s0.1,0.2,0.1,0.3V37.9z M129,5.4
		c1.4-1.4,3.5-2.1,6.3-2.1c2.7,0,4.8,0.7,6.2,2.1c1.5,1.4,2.2,3.1,2.2,5.1c0,2.1-0.8,3.8-2.3,5.2c-1.5,1.3-3.6,2-6.2,2
		c-2.6,0-4.7-0.7-6.2-2c-1.5-1.3-2.3-3.1-2.3-5.2C126.8,8.5,127.6,6.8,129,5.4z M130.9,7c-0.9,1-1.4,2.1-1.4,3.5
		c0,1.4,0.5,2.6,1.4,3.5c0.9,1,2.4,1.4,4.4,1.4c2,0,3.4-0.5,4.3-1.5c0.9-1,1.4-2.1,1.4-3.5c0-1.3-0.5-2.5-1.4-3.5
		c-0.9-1-2.4-1.5-4.4-1.5C133.3,5.5,131.9,6,130.9,7z M131.5,27.7c0,0.3-0.1,0.7-0.3,1c-0.2,0.4-0.3,0.8-0.5,1.1h2
		c1.3,0,2.4,0,3.4,0c1,0,1.6,0,1.8-0.1l1.9,0v-4.5c0-0.8-0.1-1.3-0.3-1.7c-0.2-0.3-0.5-0.7-0.9-1l-8,0.2c0.4,0.3,0.7,0.6,0.8,1
		c0.1,0.4,0.1,0.8,0.1,1.2V27.7z"/>
</g>
</svg>
