<?xml version="1.0" encoding="utf-8"?>
<!-- Generator: Adobe Illustrator 22.1.0, SVG Export Plug-In . SVG Version: 6.00 Build 0)  -->
<svg version="1.1" id="레이어_1" xmlns="http://www.w3.org/2000/svg" xmlns:xlink="http://www.w3.org/1999/xlink" x="0px"
	 y="0px" viewBox="0 0 156 46" style="enable-background:new 0 0 156 46;" xml:space="preserve">
<style type="text/css">
	.st0{fill:#FFFFFF;}
</style>
<g>
	<path class="st0" d="M10.6,35.9L5.9,36c-0.3,0-0.5,0-0.9,0.1c-0.3,0-0.7,0-1,0c-0.3,0-0.6,0-0.9,0c-0.3,0-0.5-0.1-0.7-0.2
		c-0.2,0-0.3-0.2-0.4-0.4c-0.1-0.2-0.1-0.5,0-0.9l0.3-1.4c0.5,0.1,1.2,0.2,2.1,0.3c0.8,0.1,1.7,0.1,2.5,0.2c0.8,0.1,1.6,0.1,2.3,0.1
		c0.7,0,1.2,0,1.4,0c1.6,0,3.1,0,4.5,0c1.5,0,2.9,0,4.2-0.1v-2.7c0-0.5,0-0.9-0.1-1.2s-0.3-0.4-0.8-0.6c-0.2-0.1-0.4-0.2-0.6-0.3
		s-0.2-0.4-0.2-0.8l0.1-0.8l2.6,0.3c0.7,0.1,1.1,0.3,1.2,0.7c0.2,0.4,0.2,0.7,0.2,0.9v4.4l6-0.2c0.4,0,0.9,0,1.6-0.1
		c0.6,0,1.3-0.1,1.9-0.1c0.6-0.1,1.2-0.1,1.7-0.1c0.5,0,0.8-0.1,1-0.1c0.9-0.1,1.6-0.1,2.1-0.1s0.9,0.1,1.2,0.3l1.4,1.3
		c0.2,0.2,0.3,0.4,0.3,0.5c0,0.2,0,0.3,0,0.4c-0.1,0.2-0.2,0.3-0.3,0.5c-0.1,0.2-0.3,0.2-0.5,0.1l-2.6-0.4c-0.5-0.1-1.2-0.1-1.9-0.1
		c-0.7,0-1.5,0-2.3,0c-0.8,0-1.6,0-2.3,0s-1.4,0-2,0L10.6,35.9z M11.2,12.9c0.5-1.1,1.1-2.1,2-2.9c0.8-0.8,1.8-1.4,3-1.8
		c1.1-0.4,2.4-0.7,3.8-0.7c1.3,0,2.6,0.2,3.7,0.7c1.1,0.4,2.1,1,3,1.8c0.8,0.8,1.5,1.7,2,2.9s0.7,2.4,0.7,3.8c0,1.4-0.2,2.7-0.7,3.8
		c-0.5,1.1-1.2,2.1-2,2.9c-0.8,0.8-1.8,1.4-3,1.8c-1.1,0.4-2.4,0.6-3.7,0.6c-1.3,0-2.5-0.2-3.7-0.6c-1.1-0.4-2.2-1-3-1.8
		c-0.8-0.8-1.5-1.7-2-2.9c-0.5-1.1-0.7-2.4-0.7-3.8C10.5,15.3,10.7,14,11.2,12.9z M15.1,11.7c-1.3,1.3-1.9,2.9-1.9,5
		c0,2.2,0.6,3.8,1.9,5c1.3,1.2,2.9,1.8,4.9,1.8c2,0,3.6-0.6,4.8-1.8c1.3-1.2,1.9-2.9,1.9-5c0-2-0.6-3.7-1.8-5
		C23.7,10.4,22,9.8,20,9.8C18,9.8,16.3,10.4,15.1,11.7z"/>
	<path class="st0" d="M48.9,24.2l-4.7,0.1c-0.3,0-0.5,0-0.9,0.1c-0.3,0-0.7,0-1,0c-0.3,0-0.6,0-0.9,0c-0.3,0-0.5-0.1-0.7-0.2
		c-0.2,0-0.3-0.2-0.4-0.4c-0.1-0.2-0.1-0.5,0-0.9l0.3-1.4c0.5,0.1,1.2,0.2,2.1,0.3c0.8,0.1,1.7,0.1,2.5,0.2c0.8,0.1,1.6,0.1,2.3,0.1
		c0.7,0,1.2,0,1.4,0c1.8,0,3.4,0,5,0c1.6,0,3.1,0,4.6-0.1c1.4,0,2.8-0.1,4.1-0.1c1.3,0,2.5-0.1,3.6-0.1c0.4,0,0.9,0,1.6-0.1
		c0.6,0,1.3-0.1,1.9-0.1c0.6-0.1,1.2-0.1,1.7-0.1c0.5,0,0.8-0.1,1-0.1c0.9-0.1,1.6-0.1,2.1-0.1s0.9,0.1,1.2,0.3l1.4,1.3
		c0.2,0.2,0.3,0.4,0.3,0.5c0,0.2,0,0.3,0,0.4c-0.1,0.2-0.2,0.3-0.3,0.5c-0.1,0.2-0.3,0.2-0.5,0.1L73.8,24c-0.5-0.1-1.2-0.1-1.9-0.1
		c-0.7,0-1.5-0.1-2.3-0.1c-0.8,0-1.6,0-2.3,0c-0.8,0-1.4,0-2,0L48.9,24.2z M52.5,5c-0.3,0-0.7,0-1,0c-0.4,0-0.7,0-1,0
		c-0.3,0-0.6,0-1.1,0c-0.5,0-0.8-0.1-1.1-0.2c-0.2-0.1-0.4-0.2-0.5-0.4c-0.1-0.2-0.1-0.3-0.1-0.6L48,2.3c0.8,0.1,1.6,0.2,2.4,0.3
		c0.8,0.1,1.6,0.1,2.3,0.1c0.8,0,1.5,0,2.3,0c0.8,0,1.6,0,2.4,0l8.9-0.2c0.2,0,0.4,0,0.6,0.1s0.4,0.1,0.5,0.2
		c0.1,0.1,0.2,0.2,0.2,0.4c0.1,0.2,0.1,0.4,0.1,0.7v5.5c0,0.5-0.1,0.9-0.4,1.1c-0.3,0.2-0.8,0.4-1.4,0.4L52,11.1c0,0.2,0,0.5,0,0.7
		c0,0.3,0,0.5,0,0.8v1.5c0,0.4,0,0.8,0.1,1c0.1,0.2,0.4,0.4,0.9,0.4h6.7c1.2,0,2.4-0.1,3.4-0.2c1.1-0.1,1.8-0.3,2.4-0.4
		c0.3-0.1,0.6-0.1,0.7-0.1c0.2,0,0.4,0.1,0.7,0.1l1.5,0.6c0.4,0.2,0.7,0.3,0.8,0.5c0.1,0.1,0.1,0.4,0,0.8c-0.1,0.3-0.1,0.4-0.2,0.5
		c-0.1,0.1-0.1,0.2-0.2,0.3c-0.1,0.1-0.2,0.1-0.3,0.1s-0.3,0-0.5,0H52.9c-0.3,0-0.7,0-1.1-0.1c-0.4,0-0.8-0.1-1.1-0.3
		c-0.4-0.2-0.7-0.4-0.9-0.8c-0.2-0.3-0.4-0.8-0.4-1.3V13c0-0.3,0-0.5,0-0.8c0-0.2,0-0.4-0.1-0.6c-0.1-0.2-0.1-0.3-0.3-0.4
		c-0.1-0.1-0.3-0.2-0.5-0.4c-0.3-0.1-0.5-0.3-0.7-0.5s-0.3-0.5-0.3-0.8V8.6l2.5,0.2c0.1,0,0.1,0,0.2,0c0.1,0,0.1,0,0.2,0
		c0.1,0,0.1,0,0.2,0c0.1,0,0.1,0,0.2,0l13.4-0.3c0.3,0,0.5-0.1,0.7-0.2c0.1-0.2,0.2-0.4,0.2-0.8V5.6c0-0.4,0-0.6-0.1-0.7
		s-0.3-0.1-0.7-0.1l-6.7,0.1L52.5,5z M68.8,39.1c0,0.5-0.1,0.9-0.3,1.2c-0.2,0.3-0.6,0.5-1.3,0.5l-15.1,0.2c0,0.3,0,0.6-0.1,0.8
		c-0.1,0.2-0.2,0.4-0.3,0.5c-0.2,0.2-0.4,0.3-0.7,0.4c-0.3,0.1-0.6,0-0.8-0.1c-0.1,0-0.3-0.1-0.4-0.2c-0.1-0.1-0.2-0.3-0.2-0.4
		l-0.1-1.4L48.9,31l-0.8-1.5c-0.1-0.2-0.1-0.4,0-0.6c0.2-0.2,0.4-0.3,0.6-0.5c0.3-0.2,0.5-0.3,0.7-0.3c0.2,0,0.4,0,0.5,0.1l1.1,1.2
		l16.3-0.2c0.2,0,0.4,0,0.7,0c0.2,0,0.4,0.1,0.5,0.2c0.1,0.1,0.1,0.2,0.2,0.4c0,0.2,0.1,0.4,0.1,0.7V39.1z M66.3,32.4
		c0-0.4,0-0.6-0.1-0.7s-0.3-0.1-0.7-0.1l-13,0.1c-0.2,0-0.4,0-0.5,0.1c-0.1,0.1-0.2,0.1-0.2,0.2c-0.1,0.1-0.1,0.2-0.1,0.3
		c0,0.1,0,0.2,0,0.4l0.5,6.1l13.3-0.2c0.3,0,0.5-0.1,0.7-0.3c0.2-0.2,0.2-0.4,0.2-0.8V32.4z"/>
	<path class="st0" d="M81.5,9.2C83.1,7.7,85.1,7,87.6,7C88.8,7,90,7.2,91,7.6c1,0.4,1.9,1,2.6,1.7c0.7,0.7,1.3,1.6,1.7,2.6
		c0.4,1,0.6,2.1,0.6,3.3c0,2.5-0.8,4.5-2.3,6c-1.6,1.5-3.6,2.2-6.1,2.2c-2.5,0-4.6-0.7-6.1-2.1c-1.6-1.4-2.4-3.4-2.4-6
		C79.1,12.6,79.9,10.7,81.5,9.2z M83.2,10.9c-0.9,1.2-1.4,2.6-1.4,4.2c0,1.6,0.5,3,1.4,4.2c0.9,1.2,2.4,1.7,4.4,1.7
		c2,0,3.4-0.6,4.3-1.7c0.9-1.2,1.4-2.6,1.4-4.2c0-1.6-0.4-3-1.3-4.2c-0.9-1.2-2.3-1.8-4.4-1.8C85.6,9.2,84.2,9.8,83.2,10.9z
		 M89.8,40.8c-0.3,0-0.7,0-1,0c-0.4,0-0.7-0.1-1-0.3c-0.3-0.2-0.6-0.4-0.8-0.7c-0.2-0.3-0.3-0.8-0.3-1.4v-6.2c0-0.6,0-1-0.1-1.4
		s-0.3-0.6-0.8-0.8c-0.3-0.1-0.6-0.2-0.7-0.4c-0.2-0.1-0.2-0.4-0.2-0.7V28l2.6,0.3c0.4,0.1,0.8,0.2,1,0.4s0.4,0.4,0.5,0.6
		c0.1,0.3,0.2,0.5,0.2,0.9c0,0.3,0,0.7,0,1v6.1c0,0.4,0,0.8,0.1,1s0.4,0.3,0.9,0.3h6.6c1.7,0,3.1-0.1,4.3-0.2c1.1-0.1,2-0.3,2.5-0.4
		c0.3-0.1,0.6-0.1,0.8-0.1c0.2,0,0.5,0,0.7,0.1l1.6,0.7c0.4,0.2,0.7,0.3,0.8,0.5c0.1,0.1,0.1,0.4,0,0.8c-0.1,0.4-0.2,0.7-0.4,0.8
		s-0.4,0.1-0.8,0.1H89.8z M106.3,16.4l1.5,0c0.4,0,0.8,0,1.1-0.1c0.3-0.1,0.8-0.2,1.4-0.4c0.3-0.1,0.5-0.2,0.7-0.2
		c0.2-0.1,0.4-0.1,0.5-0.1c0.2,0,0.3,0,0.5,0c0.2,0,0.4,0.1,0.6,0.2l1.5,0.9c0.2,0.1,0.3,0.3,0.3,0.5c0,0.2,0,0.4-0.2,0.6l-0.2,0.3
		c-0.2,0.2-0.4,0.4-0.6,0.4c-0.2,0.1-0.5,0.1-0.7,0c-0.2,0-0.4,0-0.8-0.1c-0.3,0-0.5,0-0.6,0h-5V28c0,0.4-0.1,0.8-0.2,1.2
		c-0.2,0.4-0.3,0.8-0.5,1.2c-0.2,0.4-0.4,0.7-0.6,1c-0.2,0.3-0.3,0.5-0.4,0.6c-0.1,0.2-0.3,0.2-0.5,0.2c-0.2,0-0.3-0.2-0.3-0.4V5.5
		c0-0.5-0.1-1-0.4-1.3c-0.3-0.3-0.6-0.7-1-1c-0.3-0.2-0.3-0.5-0.1-1s0.5-0.5,0.9-0.4l1.8,0.8c0.6,0.3,1,0.6,1.2,0.8
		c0.1,0.2,0.2,0.6,0.2,1.1V16.4z"/>
	<path class="st0" d="M120.3,13.8c0-0.6,0-1-0.1-1.3c-0.1-0.3-0.4-0.6-0.8-0.8c-0.3-0.1-0.6-0.2-0.7-0.4c-0.1-0.1-0.2-0.4-0.2-0.7
		V10l2.6,0.3c0.4,0.1,0.8,0.2,1,0.3s0.4,0.4,0.5,0.6s0.2,0.5,0.2,0.9c0,0.3,0,0.7,0,1.1v13.8c0,0.2,0,0.3,0.1,0.4
		c0.1,0.1,0.2,0.1,0.3,0.1c2.2-0.1,4.2-0.3,6-0.6c1.8-0.3,3.4-0.7,4.7-1.2c0.1,0,0.3,0,0.5,0s0.4,0.1,0.7,0.3
		c0.4,0.3,0.6,0.6,0.5,0.8c-0.1,0.3-0.3,0.5-0.8,0.8c-0.6,0.3-1.4,0.6-2.3,0.9c-0.9,0.3-1.8,0.5-2.9,0.7c-1,0.2-2,0.4-3.1,0.6
		s-2.1,0.3-3,0.3c-0.2,0-0.4,0-0.7,0.1c-0.3,0-0.5,0-0.7,0c-0.4,0-0.8-0.2-1.3-0.7c-0.5-0.4-0.7-0.9-0.7-1.3V13.8z M140.8,19.2h5.9
		V5.5c0-0.5-0.1-1-0.4-1.3c-0.3-0.3-0.6-0.7-1-1c-0.3-0.2-0.3-0.5-0.1-1c0.2-0.4,0.5-0.5,0.9-0.4l1.8,0.8c0.6,0.3,1,0.6,1.2,0.8
		c0.1,0.2,0.2,0.6,0.2,1.1v32.6c0,0.4-0.1,0.8-0.2,1.3c-0.2,0.4-0.3,0.8-0.5,1.2c-0.2,0.4-0.4,0.7-0.6,1c-0.2,0.3-0.3,0.5-0.4,0.6
		c-0.1,0.2-0.3,0.2-0.5,0.2c-0.2,0-0.3-0.1-0.3-0.3V21.4h-5.9v14.2c0,0.4-0.1,0.8-0.2,1.3c-0.2,0.4-0.3,0.8-0.5,1.2
		c-0.2,0.4-0.4,0.7-0.6,1c-0.2,0.3-0.3,0.5-0.4,0.6c-0.1,0.2-0.3,0.2-0.5,0.2c-0.2,0-0.3-0.1-0.3-0.3V8.3c0-0.3,0-0.5-0.1-0.8
		c-0.1-0.2-0.2-0.4-0.3-0.6c-0.1-0.2-0.3-0.3-0.5-0.5s-0.3-0.3-0.5-0.5c-0.3-0.2-0.3-0.5-0.1-1c0.2-0.4,0.5-0.5,0.9-0.4l1.8,0.8
		c0.6,0.3,1,0.6,1.1,0.8c0.1,0.2,0.2,0.6,0.2,1.2V19.2z"/>
</g>
</svg>
