<?xml version="1.0" encoding="utf-8"?>
<!-- Generator: Adobe Illustrator 22.1.0, SVG Export Plug-In . SVG Version: 6.00 Build 0)  -->
<svg version="1.1" id="레이어_1" xmlns="http://www.w3.org/2000/svg" xmlns:xlink="http://www.w3.org/1999/xlink" x="0px"
	 y="0px" viewBox="0 0 156 46" style="enable-background:new 0 0 156 46;" xml:space="preserve">
<style type="text/css">
	.st0{enable-background:new    ;}
	.st1{fill:#FFFFFF;}
</style>
<g class="st0">
	<path class="st1" d="M12.4,16.9c-0.2,0.7-0.4,1.5-0.7,2.3l4.1,4.7c0.3,0.4,0.7,0.8,1,1c0.3,0.3,0.7,0.5,1.2,0.9
		c0.3,0.3,0.6,0.5,0.8,0.8c0.2,0.3,0.4,0.7,0.5,1.2l0.3,1.3c0.1,0.3,0,0.6,0,0.8c-0.1,0.2-0.2,0.3-0.4,0.4c-0.3,0.1-0.5,0.1-0.7,0.1
		S18,30.3,17.8,30l-6.9-8.9c-0.8,1.7-1.7,3.4-3,5.2C6.7,28,5.3,29.6,3.6,31c-0.2,0.2-0.3,0.3-0.5,0.4s-0.3,0.1-0.4,0.1
		c-0.3,0-0.6,0-0.8-0.1c-0.2-0.1-0.3-0.3-0.4-0.5c-0.1-0.2-0.1-0.4,0-0.6s0.2-0.4,0.3-0.4c1.5-1.2,2.7-2.5,3.8-4
		c1.1-1.5,1.9-2.9,2.6-4.4c0.7-1.5,1.2-2.9,1.5-4.2s0.5-2.6,0.5-3.6c0-0.1,0-0.3-0.1-0.5c-0.1-0.2-0.1-0.3-0.2-0.5
		c-0.1-0.1-0.2-0.1-0.3-0.2c-0.1-0.1-0.2-0.1-0.3-0.2c-0.1-0.1-0.2-0.1-0.3-0.2c-0.1-0.1-0.2-0.2-0.3-0.3c-0.3,0-0.5,0-0.8,0.1
		c-0.3,0-0.5,0-0.8,0.1c-0.3,0-0.5,0-0.8,0c-0.3,0-0.6,0-0.8,0c-0.6,0.1-1.2,0.1-1.6,0c-0.4,0-0.7-0.1-0.8-0.2
		c-0.2-0.1-0.3-0.2-0.4-0.4c-0.1-0.2-0.1-0.3,0-0.6L3,9.3c0.5,0.1,1,0.1,1.4,0.2c0.5,0,1,0.1,1.4,0.1c0.5,0,0.9,0.1,1.4,0.1
		c0.5,0,0.9,0,1.4,0c0.4,0.1,0.9,0.1,1.5,0c0.6,0,1.3-0.1,1.9-0.1c0.7-0.1,1.3-0.1,2-0.2c0.6-0.1,1.2-0.1,1.6-0.2
		c0.8-0.1,1.3-0.1,1.7-0.1c0.4,0,0.7,0.1,1,0.3l1,0.6c0.4,0.3,0.7,0.5,0.8,0.7c0.1,0.2,0,0.4-0.1,0.8c-0.2,0.3-0.3,0.5-0.5,0.6
		c-0.2,0.1-0.4,0.1-0.7,0c-0.1,0-0.2,0-0.4-0.1s-0.3-0.1-0.5-0.1c-0.2-0.1-0.4-0.1-0.7-0.1c-0.2,0-0.4-0.1-0.6-0.1
		c-0.9-0.1-1.8-0.1-2.6-0.1c-0.8,0-1.7,0-2.5,0c0.2,0.2,0.4,0.3,0.6,0.5c0.2,0.2,0.3,0.3,0.5,0.4c0.1,0.2,0.1,0.4,0.2,0.7
		c0,0.3,0,0.8-0.1,1.5C12.7,15.4,12.6,16.1,12.4,16.9z M26.5,35.5c0,0.4-0.1,0.8-0.2,1.3c-0.2,0.4-0.3,0.8-0.5,1.2
		c-0.2,0.4-0.4,0.7-0.6,1c-0.2,0.3-0.3,0.5-0.4,0.6c-0.1,0.2-0.3,0.2-0.5,0.2c-0.2,0-0.3-0.1-0.3-0.3V19.8l-5.5,0.2
		c-0.3,0-0.6,0-0.8-0.1c-0.2-0.1-0.4-0.2-0.5-0.5l-0.9-1.3c-0.1-0.2-0.1-0.3,0-0.5c0.2-0.2,0.4-0.3,0.7-0.2l1,0.2
		c0.2,0.1,0.5,0.1,0.8,0.1c0.3,0,0.6,0,0.7,0l4.4-0.1V8.3c0-0.3,0-0.5-0.1-0.8c-0.1-0.2-0.2-0.4-0.3-0.6c-0.1-0.2-0.3-0.3-0.5-0.5
		s-0.3-0.3-0.5-0.5c-0.3-0.2-0.3-0.5-0.1-1c0.2-0.4,0.5-0.5,0.9-0.4l1.8,0.8c0.6,0.3,1,0.6,1.1,0.8c0.1,0.2,0.2,0.6,0.2,1.2V35.5z
		 M34,37.2c0,0.4-0.1,0.8-0.2,1.3c-0.2,0.4-0.3,0.8-0.5,1.2c-0.2,0.4-0.4,0.7-0.6,1c-0.2,0.3-0.3,0.5-0.4,0.6
		c-0.1,0.2-0.3,0.2-0.5,0.2s-0.3-0.1-0.3-0.3V5.5c0-0.5-0.1-1-0.4-1.3s-0.6-0.7-1-1c-0.3-0.2-0.3-0.5-0.1-1c0.2-0.4,0.5-0.5,0.9-0.4
		l1.8,0.8c0.6,0.3,1,0.6,1.2,0.8S34,4.1,34,4.6V37.2z"/>
	<path class="st1" d="M59.6,26.2c0.5,0.3,0.8,0.6,0.9,1c0.1,0.4,0.1,0.8,0.1,1.3v9.4c0,0.3-0.1,0.6-0.2,1c-0.1,0.4-0.3,0.7-0.5,1
		c-0.2,0.4-0.3,0.7-0.5,1s-0.3,0.5-0.4,0.6c-0.1,0.2-0.3,0.2-0.6,0.2c-0.3,0-0.4-0.2-0.4-0.4V28.9c0-0.8-0.1-1.3-0.3-1.7
		c-0.2-0.3-0.5-0.7-0.9-1l-7.9,0.2l-4.7,0.2c-0.3,0-0.5,0-0.9,0.1c-0.3,0-0.7,0-1,0c-0.3,0-0.6,0-0.9,0c-0.3,0-0.5-0.1-0.7-0.2
		c-0.2,0-0.3-0.2-0.4-0.4c-0.1-0.2-0.1-0.5,0-0.9l0.3-1.4c0.5,0.1,1.2,0.2,2.1,0.3c0.8,0.1,1.7,0.1,2.5,0.2c0.8,0,1.6,0,2.3,0.1
		c0.7,0,1.2,0,1.4,0c1.8,0,3.4,0,5,0c1.6,0,3.1-0.1,4.6-0.1c1.4,0,2.8-0.1,4.1-0.1c1.3,0,2.5-0.1,3.6-0.1c0.4,0,0.9,0,1.6-0.1
		c0.6,0,1.3-0.1,1.9-0.1c0.6-0.1,1.2-0.1,1.7-0.1c0.5,0,0.8-0.1,1-0.1c0.9-0.1,1.6-0.1,2.1-0.1c0.5,0,0.9,0.1,1.2,0.3L77,25
		c0.2,0.2,0.3,0.4,0.3,0.5c0,0.2,0,0.3,0,0.4c-0.1,0.2-0.2,0.3-0.3,0.5c-0.1,0.2-0.3,0.2-0.5,0.1l-2.6-0.4C73.3,26.1,72.7,26,72,26
		c-0.7,0-1.5,0-2.3,0c-0.8,0-1.6,0-2.3,0c-0.8,0-1.4,0-2,0L59.6,26.2z M60.1,11.7c-0.2,0.3-0.5,0.7-0.7,1l6.7,3.3
		c0.2,0.1,0.4,0.2,0.7,0.3c0.2,0.1,0.4,0.1,0.7,0.2c0.2,0.1,0.4,0.1,0.6,0.1s0.4,0.1,0.7,0.1c0.4,0.1,0.8,0.2,1.1,0.4
		c0.3,0.1,0.6,0.4,0.9,0.8l0.8,1.1c0.2,0.3,0.3,0.6,0.3,0.7c0,0.2-0.1,0.4-0.3,0.5c-0.2,0.3-0.4,0.4-0.6,0.4c-0.2,0-0.5,0-0.8-0.1
		L58.2,14c-0.9,0.9-1.9,1.8-3,2.5c-1.1,0.8-2.1,1.4-3,2c-1,0.6-1.9,1-2.7,1.4c-0.8,0.4-1.5,0.7-2,0.8c-0.2,0.1-0.4,0.1-0.6,0.2
		c-0.2,0-0.3,0-0.4,0c-0.2,0-0.4-0.1-0.6-0.2c-0.2-0.1-0.2-0.3-0.2-0.6c0-0.2,0-0.4,0.1-0.5c0.1-0.1,0.2-0.2,0.3-0.3
		c0.8-0.3,1.7-0.7,2.9-1.3c1.1-0.6,2.3-1.3,3.4-2c1.1-0.8,2.2-1.6,3.2-2.5c1-0.9,1.8-1.9,2.4-3c0.1-0.1,0.1-0.3,0.1-0.5
		c0-0.2-0.2-0.4-0.4-0.5l-1.6-1.2l-5.7,0.4c-0.6,0.1-1.2,0-1.6,0c-0.4-0.1-0.7-0.2-0.8-0.3c-0.2-0.1-0.3-0.2-0.4-0.3
		c-0.1-0.1-0.1-0.3,0-0.6l0.2-1.7c1,0.2,1.9,0.3,2.7,0.4c0.8,0.1,1.7,0.1,2.6,0.1c1,0,2,0,3,0c1,0,2.1-0.1,3.1-0.1
		c0.4,0,1,0,1.7-0.1c0.7-0.1,1.4-0.1,2-0.2c0.7-0.1,1.3-0.1,1.8-0.1c0.5,0,0.9-0.1,1.1-0.1c0.4,0,0.8,0,1.1-0.1c0.3,0,0.6,0,0.8,0
		c0.2,0,0.4,0,0.5,0c0.1,0,0.3,0.1,0.4,0.2l1,0.6C70,6.8,70.2,7,70.3,7.2c0.1,0.2,0.1,0.4-0.1,0.8c-0.2,0.3-0.3,0.5-0.5,0.6
		c-0.2,0.1-0.4,0.1-0.7,0c-0.1,0-0.2,0-0.4-0.1c-0.2,0-0.3-0.1-0.5-0.1c-0.2,0-0.4-0.1-0.7-0.1c-0.2,0-0.4-0.1-0.6-0.1
		c-1.3-0.1-2.5-0.1-3.7-0.1c-1.2,0-2.5,0-3.8,0.1h-0.1l1,0.4C60.5,8.7,60.8,9,61,9.3c0.2,0.3,0.1,0.8-0.2,1.4
		C60.5,11,60.3,11.4,60.1,11.7z"/>
	<path class="st1" d="M87.1,35.9l-4.7,0.1c-0.3,0-0.5,0-0.9,0.1c-0.3,0-0.7,0-1,0c-0.3,0-0.6,0-0.9,0s-0.5-0.1-0.7-0.2
		c-0.2,0-0.3-0.2-0.4-0.4c-0.1-0.2-0.1-0.5,0-0.9l0.3-1.4c0.5,0.1,1.2,0.2,2.1,0.3c0.8,0.1,1.7,0.1,2.5,0.2c0.8,0.1,1.6,0.1,2.3,0.1
		c0.7,0,1.2,0,1.4,0c1.6,0,3.1,0,4.5,0c1.5,0,2.9,0,4.2-0.1v-2.7c0-0.5,0-0.9-0.1-1.2s-0.3-0.4-0.8-0.6c-0.2-0.1-0.4-0.2-0.6-0.3
		s-0.2-0.4-0.2-0.8l0.1-0.8l2.6,0.3c0.7,0.1,1.1,0.3,1.2,0.7c0.2,0.4,0.2,0.7,0.2,0.9v4.4l6-0.2c0.4,0,0.9,0,1.6-0.1
		s1.3-0.1,1.9-0.1c0.6-0.1,1.2-0.1,1.7-0.1c0.5,0,0.8-0.1,1-0.1c0.9-0.1,1.6-0.1,2.1-0.1s0.9,0.1,1.2,0.3l1.4,1.3
		c0.2,0.2,0.3,0.4,0.3,0.5c0,0.2,0,0.3,0,0.4c-0.1,0.2-0.2,0.3-0.3,0.5c-0.1,0.2-0.3,0.2-0.5,0.1l-2.6-0.4c-0.5-0.1-1.2-0.1-1.9-0.1
		c-0.7,0-1.5,0-2.3,0c-0.8,0-1.6,0-2.3,0c-0.8,0-1.4,0-2,0L87.1,35.9z M87.7,13c0.5-1.1,1.1-2.1,2-2.9c0.8-0.8,1.8-1.4,3-1.8
		c1.1-0.4,2.4-0.7,3.8-0.7c1.3,0,2.6,0.2,3.7,0.7c1.1,0.4,2.1,1,3,1.8c0.8,0.8,1.5,1.7,2,2.9c0.5,1.1,0.7,2.4,0.7,3.8
		c0,1.4-0.2,2.7-0.7,3.8c-0.5,1.1-1.2,2.1-2,2.9c-0.8,0.8-1.8,1.4-3,1.8s-2.4,0.6-3.7,0.6c-1.3,0-2.5-0.2-3.7-0.6
		c-1.1-0.4-2.2-1-3-1.8c-0.8-0.8-1.5-1.7-2-2.9c-0.5-1.1-0.7-2.4-0.7-3.8C87,15.3,87.2,14.1,87.7,13z M91.6,11.8
		c-1.3,1.3-1.9,2.9-1.9,5c0,2.2,0.6,3.8,1.9,5s2.9,1.8,4.9,1.8c2,0,3.6-0.6,4.8-1.8c1.3-1.2,1.9-2.9,1.9-5c0-2-0.6-3.7-1.8-5
		c-1.2-1.3-2.8-1.9-4.9-1.9C94.4,9.8,92.8,10.5,91.6,11.8z"/>
	<path class="st1" d="M125.3,24.3l-4.7,0.1c-0.3,0-0.5,0-0.9,0.1c-0.3,0-0.7,0-1,0c-0.3,0-0.6,0-0.9,0c-0.3,0-0.5-0.1-0.7-0.2
		c-0.2,0-0.3-0.2-0.4-0.4c-0.1-0.2-0.1-0.5,0-0.9l0.3-1.4c0.5,0.1,1.2,0.2,2.1,0.3c0.8,0.1,1.7,0.1,2.5,0.2s1.6,0.1,2.3,0.1
		c0.7,0,1.2,0,1.4,0c1.8,0,3.4,0,5,0c1.6,0,3.1,0,4.6-0.1c1.4,0,2.8-0.1,4.1-0.1c1.3,0,2.5-0.1,3.6-0.1c0.4,0,0.9,0,1.6-0.1
		s1.3-0.1,1.9-0.1c0.6-0.1,1.2-0.1,1.7-0.1c0.5,0,0.8-0.1,1-0.1c0.9-0.1,1.6-0.1,2.1-0.1s0.9,0.1,1.2,0.3l1.4,1.3
		c0.2,0.2,0.3,0.4,0.3,0.5c0,0.2,0,0.3,0,0.4c-0.1,0.2-0.2,0.3-0.3,0.5c-0.1,0.2-0.3,0.2-0.5,0.1l-2.6-0.4c-0.5-0.1-1.2-0.1-1.9-0.1
		c-0.7,0-1.5-0.1-2.3-0.1c-0.8,0-1.6,0-2.3,0c-0.8,0-1.4,0-2,0L125.3,24.3z M128.9,5c-0.3,0-0.7,0-1,0c-0.4,0-0.7,0-1,0
		c-0.3,0-0.6,0-1.1,0c-0.5,0-0.8-0.1-1.1-0.2c-0.2-0.1-0.4-0.2-0.5-0.4c-0.1-0.2-0.1-0.3-0.1-0.6l0.3-1.6c0.8,0.1,1.6,0.2,2.4,0.3
		c0.8,0.1,1.6,0.1,2.3,0.1c0.8,0,1.5,0,2.3,0c0.8,0,1.6,0,2.4,0l8.9-0.2c0.2,0,0.4,0,0.6,0.1c0.2,0,0.4,0.1,0.5,0.2
		c0.1,0.1,0.2,0.2,0.2,0.4c0.1,0.2,0.1,0.4,0.1,0.7v5.5c0,0.5-0.1,0.9-0.4,1.1c-0.3,0.2-0.8,0.4-1.4,0.4l-13.9,0.2
		c0,0.2,0,0.5,0,0.7c0,0.3,0,0.5,0,0.8v1.5c0,0.4,0,0.8,0.1,1c0.1,0.2,0.4,0.4,0.9,0.4h6.7c1.2,0,2.4-0.1,3.4-0.2
		c1.1-0.1,1.8-0.3,2.4-0.4c0.3-0.1,0.6-0.1,0.7-0.1c0.2,0,0.4,0.1,0.7,0.1l1.5,0.6c0.4,0.2,0.7,0.3,0.8,0.5c0.1,0.1,0.1,0.4,0,0.8
		c-0.1,0.3-0.1,0.4-0.2,0.5c-0.1,0.1-0.1,0.2-0.2,0.3c-0.1,0.1-0.2,0.1-0.3,0.1s-0.3,0-0.5,0h-15.1c-0.3,0-0.7,0-1.1-0.1
		c-0.4,0-0.8-0.1-1.1-0.3s-0.7-0.4-0.9-0.8c-0.2-0.3-0.4-0.8-0.4-1.3V13c0-0.3,0-0.5,0-0.8c0-0.2,0-0.4-0.1-0.6
		c-0.1-0.2-0.1-0.3-0.3-0.4c-0.1-0.1-0.3-0.2-0.5-0.4c-0.3-0.1-0.5-0.3-0.7-0.5c-0.2-0.2-0.3-0.5-0.3-0.8V8.7l2.5,0.2
		c0.1,0,0.1,0,0.2,0c0.1,0,0.1,0,0.2,0c0.1,0,0.1,0,0.2,0s0.1,0,0.2,0l13.4-0.3c0.3,0,0.5-0.1,0.7-0.2c0.1-0.2,0.2-0.4,0.2-0.8V5.6
		c0-0.4,0-0.6-0.1-0.7c-0.1-0.1-0.3-0.1-0.7-0.1l-6.7,0.1L128.9,5z M145.3,39.2c0,0.5-0.1,0.9-0.3,1.2c-0.2,0.3-0.6,0.5-1.3,0.5
		l-15.1,0.2c0,0.3,0,0.6-0.1,0.8c-0.1,0.2-0.2,0.4-0.3,0.5c-0.2,0.2-0.4,0.3-0.7,0.4c-0.3,0.1-0.6,0-0.8-0.1c-0.1,0-0.3-0.1-0.4-0.2
		c-0.1-0.1-0.2-0.3-0.2-0.4l-0.1-1.4l-0.8-9.6l-0.8-1.5c-0.1-0.2-0.1-0.4,0-0.6s0.4-0.3,0.6-0.5c0.3-0.2,0.5-0.3,0.7-0.3
		c0.2,0,0.4,0,0.5,0.1l1.1,1.2l16.3-0.2c0.2,0,0.4,0,0.7,0c0.2,0,0.4,0.1,0.5,0.2c0.1,0.1,0.1,0.2,0.2,0.4c0,0.2,0.1,0.4,0.1,0.7
		V39.2z M142.8,32.4c0-0.4,0-0.6-0.1-0.7s-0.3-0.1-0.7-0.1l-13,0.1c-0.2,0-0.4,0-0.5,0.1c-0.1,0.1-0.2,0.1-0.2,0.2
		c-0.1,0.1-0.1,0.2-0.1,0.3c0,0.1,0,0.2,0,0.4l0.5,6.1l13.3-0.2c0.3,0,0.5-0.1,0.7-0.3c0.2-0.2,0.2-0.4,0.2-0.8V32.4z"/>
</g>
</svg>
