<?xml version="1.0" encoding="utf-8"?>
<!-- Generator: Adobe Illustrator 22.1.0, SVG Export Plug-In . SVG Version: 6.00 Build 0)  -->
<svg version="1.1" id="레이어_1" xmlns="http://www.w3.org/2000/svg" xmlns:xlink="http://www.w3.org/1999/xlink" x="0px"
	 y="0px" viewBox="0 0 156 46" style="enable-background:new 0 0 156 46;" xml:space="preserve">
<style type="text/css">
	.st0{enable-background:new    ;}
	.st1{fill:#FFFFFF;}
</style>
<g class="st0">
	<path class="st1" d="M11.6,22.8L6.9,23C6.6,23,6.3,23,6,23c-0.3,0-0.7,0-1,0c-0.3,0-0.6,0-0.9,0c-0.3,0-0.5-0.1-0.7-0.2
		c-0.2,0-0.3-0.2-0.4-0.4c-0.1-0.2-0.1-0.5,0-0.9l0.3-1.4c0.5,0.1,1.2,0.2,2.1,0.3c0.8,0.1,1.7,0.1,2.5,0.2c0.8,0,1.6,0,2.3,0.1
		c0.7,0,1.2,0,1.4,0c1.3,0,2.5,0,3.7,0c1.2,0,2.4,0,3.5-0.1v-6.1c0-0.5,0-0.9-0.1-1.2s-0.3-0.4-0.8-0.6c-0.2-0.1-0.4-0.2-0.6-0.3
		s-0.2-0.4-0.2-0.8l0.1-0.8l2.6,0.3c0.7,0.1,1.1,0.3,1.2,0.7c0.2,0.4,0.2,0.7,0.2,0.9v7.8l7.5-0.3c0.4,0,0.9,0,1.6-0.1
		c0.6,0,1.3-0.1,1.9-0.1c0.6-0.1,1.2-0.1,1.7-0.1c0.5,0,0.8-0.1,1-0.1c0.9-0.1,1.6-0.1,2.1-0.1s0.9,0.1,1.2,0.3l1.4,1.3
		c0.2,0.2,0.3,0.4,0.3,0.5c0,0.2,0,0.3,0,0.4c-0.1,0.2-0.2,0.3-0.3,0.5c-0.1,0.2-0.3,0.2-0.5,0.1l-2.6-0.4c-0.5,0-1.2-0.1-1.9-0.1
		c-0.7,0-1.5,0-2.3,0c-0.8,0-1.6,0-2.3,0s-1.4,0-2,0L11.6,22.8z M32.5,5.2c0,0.1,0,0.1,0,0.2s0,0.2,0,0.3c0,0.1,0,0.2,0,0.4
		c-0.1,0.6-0.2,1.3-0.4,2.3c-0.2,1-0.5,2-0.8,3c-0.3,1.1-0.6,2.1-0.9,3c-0.3,0.9-0.6,1.6-0.8,2c-0.1,0.3-0.3,0.5-0.6,0.6
		C28.7,17,28.5,17,28.3,17c-0.2-0.1-0.4-0.2-0.5-0.4c-0.1-0.2-0.1-0.4-0.1-0.7c0.4-1.5,0.8-3.2,1.2-5c0.3-1.8,0.6-3.4,0.8-4.9
		l-4.1,0c-0.1,0-0.8,0-2.2,0.1c-1.4,0-3,0.1-4.9,0.1c-0.5,0-1,0-1.4,0c-0.4,0-0.9,0-1.3,0c-0.4,0-0.9,0-1.4,0c-0.5,0-0.9,0-1.4,0
		c-0.3,0-0.6,0-1,0c-0.4,0-0.8-0.1-1.2-0.2c-0.2,0-0.3-0.1-0.4-0.3c-0.1-0.2-0.1-0.4,0-0.7l0.3-1.6c0.5,0.2,1,0.3,1.7,0.4
		C13,4,13.7,4.1,14.4,4.1c0.7,0,1.4,0,2,0.1c0.7,0,1.2,0,1.6,0c0.6,0,1.2,0,2.1,0c0.8,0,1.6,0,2.4,0c0.8,0,1.4-0.1,2-0.1
		c0.6,0,0.9,0,1,0l5.1-0.3c0.2-0.1,0.5,0,0.9,0c0.4,0.1,0.7,0.3,0.9,0.6c0.1,0.1,0.1,0.2,0.1,0.3c0,0.1,0,0.2,0,0.3
		C32.5,5,32.5,5.1,32.5,5.2z M15.5,29.2c1.7-1.4,3.7-2.1,6.3-2.1c1.1,0,2.2,0.2,3.3,0.5c1,0.4,2,0.9,2.8,1.6
		c0.8,0.7,1.4,1.5,1.9,2.5s0.7,2.1,0.7,3.3c0,1.1-0.2,2.2-0.7,3.1c-0.4,1-1,1.8-1.8,2.5c-0.8,0.7-1.7,1.2-2.8,1.6
		c-1.1,0.4-2.2,0.6-3.4,0.6c-1.3,0-2.4-0.2-3.5-0.6c-1.1-0.4-2-0.9-2.8-1.6c-0.8-0.7-1.4-1.5-1.8-2.5c-0.4-1-0.7-2-0.7-3.1
		C13,32.4,13.8,30.5,15.5,29.2z M17.2,31c-1,1.1-1.5,2.4-1.5,3.9c0,1.4,0.5,2.7,1.5,3.8c1,1.1,2.5,1.6,4.5,1.6c2,0,3.5-0.5,4.5-1.6
		c1-1.1,1.4-2.4,1.4-3.8c0-1.5-0.5-2.8-1.5-3.9c-1-1.1-2.5-1.6-4.4-1.6C19.7,29.4,18.2,30,17.2,31z"/>
	<path class="st1" d="M53.8,17.3c-0.2,0.6-0.4,1.1-0.7,1.7l5.8,5.7c0.2,0.2,0.4,0.4,0.5,0.5c0.2,0.1,0.3,0.3,0.5,0.4
		c0.2,0.1,0.3,0.3,0.5,0.4c0.2,0.1,0.4,0.2,0.6,0.3c0.4,0.3,0.7,0.5,0.9,0.7c0.2,0.2,0.4,0.6,0.6,1.2l0.3,1.3c0.1,0.4,0.1,0.6,0,0.8
		c-0.1,0.2-0.2,0.3-0.4,0.4c-0.3,0.1-0.5,0.2-0.7,0.2c-0.2,0-0.4-0.2-0.6-0.4l-9-9.9c-1,1.8-2.3,3.6-3.8,5.4
		c-1.5,1.8-3.2,3.4-5.1,4.7c-0.2,0.2-0.4,0.3-0.6,0.4c-0.2,0.1-0.3,0.1-0.4,0.1c-0.3,0.1-0.5,0-0.7-0.1s-0.4-0.3-0.5-0.7
		c-0.1-0.1-0.1-0.3,0-0.5c0.1-0.2,0.2-0.3,0.3-0.4c1.6-1.1,3-2.3,4.2-3.7c1.2-1.4,2.3-2.8,3.1-4.2c0.9-1.4,1.6-2.7,2.1-4
		s0.8-2.4,1-3.3c0-0.2,0-0.3,0-0.5c0-0.2-0.1-0.3-0.3-0.5c-0.2-0.1-0.4-0.3-0.7-0.5c-0.3-0.2-0.6-0.4-0.9-0.6l-4.5,0.4
		c-0.6,0.1-1.2,0-1.6,0c-0.4-0.1-0.7-0.2-0.8-0.3c-0.2-0.1-0.3-0.2-0.4-0.3c-0.1-0.1-0.1-0.3,0-0.6L43,9.7c1,0.2,2,0.3,2.9,0.4
		s1.9,0.1,2.8,0.1c0.4,0,0.7,0,1,0c0.3,0,0.7,0,1.1,0c0.3,0,0.7,0,1.1,0c0.4,0,0.9-0.1,1.4-0.1c0.4,0,0.9,0,1.5-0.1
		c0.6-0.1,1.2-0.1,1.8-0.1c0.6-0.1,1.1-0.1,1.5-0.1c0.4,0,0.8-0.1,0.9-0.1c0.4,0,0.8,0,1.1-0.1c0.3,0,0.6,0,0.8,0
		c0.2,0,0.4,0,0.5,0.1c0.1,0,0.3,0.1,0.4,0.1l1,0.6c0.4,0.3,0.7,0.6,0.8,0.7c0.1,0.2,0.1,0.4-0.1,0.8c-0.2,0.3-0.3,0.5-0.5,0.6
		c-0.2,0.1-0.4,0.1-0.7,0c-0.1,0-0.2,0-0.4-0.1c-0.2,0-0.3-0.1-0.5-0.1c-0.2,0-0.4-0.1-0.7-0.1c-0.2,0-0.4-0.1-0.6-0.1
		C58.8,12,57.7,12,56.8,12c-0.9,0-2,0-3.4,0h-0.2c0.3,0.2,0.5,0.4,0.8,0.5c0.3,0.2,0.4,0.4,0.5,0.5c0.1,0.2,0.1,0.5,0.1,0.9
		s-0.1,1-0.3,1.6C54.2,16.2,54,16.7,53.8,17.3z M72.1,37.2c0,0.4-0.1,0.8-0.2,1.3c-0.2,0.4-0.3,0.8-0.5,1.2c-0.2,0.4-0.4,0.7-0.5,1
		s-0.3,0.5-0.4,0.6c-0.1,0.2-0.3,0.2-0.5,0.2c-0.2,0-0.3-0.1-0.3-0.3V5.5c0-0.5-0.1-1-0.4-1.3s-0.6-0.7-1-1c-0.3-0.2-0.3-0.5-0.1-1
		s0.5-0.5,0.9-0.4l1.8,0.8c0.6,0.3,1,0.6,1.1,0.8s0.2,0.6,0.2,1.1V37.2z"/>
	<path class="st1" d="M89.3,15.6c-0.4,1.1-0.8,2.2-1.2,3.2l6.2,6c0.2,0.2,0.4,0.4,0.5,0.5c0.2,0.1,0.3,0.3,0.5,0.4
		c0.2,0.1,0.3,0.2,0.5,0.3c0.2,0.1,0.4,0.2,0.6,0.4c0.4,0.3,0.7,0.5,0.9,0.7c0.2,0.2,0.4,0.6,0.6,1.2l0.3,1.3c0.1,0.4,0.1,0.6,0,0.8
		c-0.1,0.2-0.2,0.3-0.4,0.4C97.7,31,97.5,31,97.3,31c-0.2,0-0.4-0.2-0.6-0.4l-9.3-10.2c-0.7,1.4-1.5,2.7-2.4,3.9
		c-0.8,1.2-1.7,2.3-2.5,3.2c-0.8,1-1.6,1.8-2.3,2.4s-1.3,1.2-1.8,1.5c-0.2,0.1-0.3,0.2-0.5,0.3c-0.2,0.1-0.3,0.1-0.4,0.1
		c-0.2,0-0.4-0.1-0.6-0.2s-0.4-0.3-0.4-0.6c0-0.2,0-0.3,0.1-0.5c0.1-0.2,0.1-0.3,0.2-0.4c0.9-0.7,2-1.7,3.1-2.9
		c1.1-1.3,2.3-2.7,3.3-4.3c1-1.6,1.9-3.4,2.7-5.3c0.8-1.9,1.3-3.8,1.6-5.7c0-0.2,0-0.4-0.1-0.5c-0.1-0.2-0.3-0.4-0.6-0.7l-0.8-0.5
		c-0.3-0.2-0.3-0.5-0.1-0.9s0.4-0.6,0.7-0.5c0.5,0.2,1.1,0.4,1.6,0.5c0.6,0.2,1,0.4,1.5,0.5c0.3,0.2,0.5,0.4,0.6,0.7
		c0.1,0.3,0,0.8-0.1,1.5C90,13.3,89.7,14.5,89.3,15.6z M105.8,22.1l2.3-0.1c0.4,0,0.8,0,1.1-0.1c0.3-0.1,0.8-0.2,1.4-0.4
		c0.3-0.1,0.5-0.2,0.7-0.2c0.2-0.1,0.4-0.1,0.5-0.1c0.2,0,0.3,0,0.5,0c0.2,0,0.3,0.1,0.6,0.2l1.5,0.9c0.2,0.1,0.3,0.3,0.3,0.5
		c0,0.2,0,0.4-0.2,0.6l-0.2,0.3c-0.2,0.2-0.4,0.4-0.6,0.4c-0.2,0.1-0.5,0.1-0.7,0c-0.2,0-0.4,0-0.8-0.1c-0.3,0-0.5,0-0.6,0h-5.8
		v13.1c0,0.4-0.1,0.8-0.2,1.3c-0.2,0.4-0.3,0.8-0.5,1.2c-0.2,0.4-0.4,0.7-0.6,1c-0.2,0.3-0.3,0.5-0.4,0.6c-0.1,0.2-0.3,0.2-0.5,0.2
		c-0.2,0-0.3-0.1-0.3-0.3V5.5c0-0.5-0.1-1-0.4-1.3s-0.6-0.7-1-1c-0.3-0.2-0.3-0.5-0.1-1c0.2-0.4,0.5-0.5,0.9-0.4l1.8,0.8
		c0.6,0.3,1,0.6,1.2,0.8s0.2,0.6,0.2,1.1V22.1z"/>
	<path class="st1" d="M122.8,9.9c-1.5,0.1-2.9,0.1-4.2,0.2c-0.7,0-1.2,0-1.7,0c-0.4,0-0.8-0.1-1-0.3c-0.2-0.1-0.3-0.2-0.3-0.4
		c0-0.1,0-0.3,0-0.6l0.2-1.6c1,0.2,2,0.3,3,0.4c1,0.1,2,0.1,2.9,0.1c0.7,0,1.3,0,2,0s1.3,0,2,0V5.2c0-0.6-0.1-1-0.2-1.2
		c-0.1-0.2-0.4-0.5-0.7-0.8c-0.2-0.1-0.2-0.4,0-0.7c0.2-0.3,0.4-0.5,0.6-0.4l1.6,0.5c0.6,0.2,1,0.5,1.1,0.8c0.1,0.3,0.2,0.7,0.2,1.2
		v3.2c1.3-0.1,2.5-0.1,3.7-0.2c1.2-0.1,1.9-0.2,2.2-0.3C135.1,7,135.7,7,136,7c0.3,0,0.6,0.1,0.9,0.3l1,0.6c0.3,0.3,0.5,0.5,0.6,0.7
		s0,0.4-0.2,0.8s-0.3,0.5-0.4,0.6c-0.1,0.1-0.3,0.1-0.6,0c-0.1,0-0.3-0.1-0.5-0.1s-0.4-0.1-0.5-0.1c-0.2-0.1-0.4-0.1-0.6-0.1
		c-0.2,0-0.4-0.1-0.6-0.1c-0.6,0-1.3,0-2-0.1c-0.7,0-1.3,0-2,0c-0.7,0-1.4,0.1-2,0.1c-0.7,0-1.4,0.1-2,0.1
		C125.7,9.7,124.3,9.8,122.8,9.9z M121.2,13.4c1.4-1.3,3.4-1.9,5.8-1.9c2.3,0,4.1,0.6,5.6,1.9c1.5,1.3,2.2,3,2.2,5.1
		c0,2.1-0.7,3.8-2.2,5.1c-1.5,1.3-3.3,1.9-5.6,1.9c-2.4,0-4.4-0.6-5.8-1.9c-1.4-1.3-2.1-3-2.1-5.1C119,16.4,119.7,14.7,121.2,13.4z
		 M123,15.1c-0.9,0.9-1.4,2-1.4,3.4c0,1.5,0.5,2.7,1.5,3.5c1,0.8,2.3,1.3,3.8,1.3c1.7,0,2.9-0.4,3.8-1.3s1.4-2,1.4-3.5
		s-0.4-2.6-1.3-3.4c-0.9-0.9-2.2-1.3-3.9-1.3S124,14.2,123,15.1z M129.6,29.7c1.6-1.3,3.6-2,6.1-2c1.1,0,2.2,0.2,3.2,0.5
		c1,0.4,1.9,0.8,2.6,1.5c0.8,0.6,1.4,1.4,1.8,2.3c0.4,0.9,0.7,1.9,0.7,3c0,1.1-0.2,2-0.6,2.9c-0.4,0.9-1,1.7-1.7,2.3
		c-0.7,0.6-1.6,1.1-2.6,1.5c-1,0.4-2.1,0.5-3.3,0.5c-2.5,0-4.6-0.7-6.1-2.1c-1.6-1.4-2.3-3.1-2.3-5.2
		C127.3,32.7,128.1,31,129.6,29.7z M131.3,31.4c-0.9,1-1.4,2.1-1.4,3.5c0,1.3,0.5,2.5,1.4,3.5c1,1,2.4,1.5,4.4,1.5
		c2,0,3.5-0.5,4.4-1.5s1.3-2.2,1.3-3.5c0-1.4-0.5-2.5-1.4-3.5c-0.9-1-2.4-1.4-4.3-1.4C133.7,30,132.2,30.5,131.3,31.4z M144.9,16.2
		l1.7-0.1c0.4,0,0.8,0,1.1-0.1c0.3-0.1,0.8-0.2,1.5-0.4c0.3-0.1,0.5-0.1,0.7-0.2c0.2-0.1,0.3-0.1,0.5-0.1c0.2,0,0.3,0,0.5,0
		c0.2,0,0.3,0.1,0.6,0.2l1.5,0.9c0.2,0.1,0.4,0.3,0.4,0.5s0,0.4-0.2,0.6l-0.3,0.3c-0.1,0.2-0.3,0.4-0.6,0.4c-0.2,0.1-0.5,0.1-0.7,0
		c-0.2,0-0.5,0-0.8-0.1c-0.3,0-0.5,0-0.6,0h-5.3v5c0,0.4-0.1,0.8-0.2,1.3c-0.2,0.4-0.3,0.8-0.5,1.2c-0.2,0.4-0.4,0.7-0.5,1
		c-0.2,0.3-0.3,0.5-0.4,0.6c-0.1,0.2-0.3,0.3-0.5,0.2s-0.4-0.2-0.4-0.4V5.5c0-0.5-0.1-1-0.4-1.3s-0.6-0.7-1-1
		c-0.3-0.2-0.3-0.5-0.1-1c0.2-0.4,0.5-0.5,0.9-0.4l1.8,0.8c0.6,0.3,1,0.6,1.1,0.8s0.2,0.6,0.2,1.1V16.2z"/>
</g>
</svg>
