<?xml version="1.0" encoding="utf-8"?>
<!-- Generator: Adobe Illustrator 22.1.0, SVG Export Plug-In . SVG Version: 6.00 Build 0)  -->
<svg version="1.1" id="레이어_1" xmlns="http://www.w3.org/2000/svg" xmlns:xlink="http://www.w3.org/1999/xlink" x="0px"
	 y="0px" viewBox="0 0 188 46" style="enable-background:new 0 0 188 46;" xml:space="preserve">
<style type="text/css">
	.st0{enable-background:new    ;}
	.st1{fill:#FFFFFF;}
</style>
<g class="st0">
	<path class="st1" d="M10,35.9l-4.7,0.1c-0.3,0-0.5,0-0.9,0.1c-0.3,0-0.7,0-1,0c-0.3,0-0.6,0-0.9,0c-0.3,0-0.5-0.1-0.7-0.2
		c-0.2,0-0.3-0.2-0.4-0.4c-0.1-0.2-0.1-0.5,0-0.9l0.3-1.4c0.5,0.1,1.2,0.2,2.1,0.3c0.8,0.1,1.7,0.1,2.5,0.2c0.8,0.1,1.6,0.1,2.3,0.1
		c0.7,0,1.2,0,1.4,0c1.6,0,3.1,0,4.5,0c1.5,0,2.9,0,4.2-0.1v-2.7c0-0.5,0-0.9-0.1-1.2s-0.3-0.4-0.8-0.6c-0.2-0.1-0.4-0.2-0.6-0.3
		s-0.2-0.4-0.2-0.8l0.1-0.8l2.6,0.3c0.7,0.1,1.1,0.3,1.2,0.7c0.2,0.4,0.2,0.7,0.2,0.9v4.4l6-0.2c0.4,0,0.9,0,1.6-0.1
		c0.6,0,1.3-0.1,1.9-0.1c0.6-0.1,1.2-0.1,1.7-0.1c0.5,0,0.8-0.1,1-0.1c0.9-0.1,1.6-0.1,2.1-0.1s0.9,0.1,1.2,0.3l1.4,1.3
		c0.2,0.2,0.3,0.4,0.3,0.5c0,0.2,0,0.3,0,0.4c-0.1,0.2-0.2,0.3-0.3,0.5c-0.1,0.2-0.3,0.2-0.5,0.1L35,35.8c-0.5-0.1-1.2-0.1-1.9-0.1
		c-0.7,0-1.5,0-2.3,0c-0.8,0-1.6,0-2.3,0s-1.4,0-2,0L10,35.9z M10.6,13c0.5-1.1,1.1-2.1,2-2.9c0.8-0.8,1.8-1.4,3-1.8
		c1.1-0.4,2.4-0.7,3.8-0.7c1.3,0,2.6,0.2,3.7,0.7c1.1,0.4,2.1,1,3,1.8c0.8,0.8,1.5,1.7,2,2.9s0.7,2.4,0.7,3.8c0,1.4-0.2,2.7-0.7,3.8
		c-0.5,1.1-1.2,2.1-2,2.9c-0.8,0.8-1.8,1.4-3,1.8c-1.1,0.4-2.4,0.6-3.7,0.6c-1.3,0-2.5-0.2-3.7-0.6c-1.1-0.4-2.2-1-3-1.8
		c-0.8-0.8-1.5-1.7-2-2.9c-0.5-1.1-0.7-2.4-0.7-3.8C9.9,15.3,10.1,14.1,10.6,13z M14.4,11.8c-1.3,1.3-1.9,2.9-1.9,5
		c0,2.2,0.6,3.8,1.9,5c1.3,1.2,2.9,1.8,4.9,1.8c2,0,3.6-0.6,4.8-1.8c1.3-1.2,1.9-2.9,1.9-5c0-2-0.6-3.7-1.8-5
		c-1.2-1.3-2.8-1.9-4.9-1.9C17.3,9.8,15.7,10.5,14.4,11.8z"/>
	<path class="st1" d="M48.2,24.3l-4.7,0.1c-0.3,0-0.5,0-0.9,0.1c-0.3,0-0.7,0-1,0c-0.3,0-0.6,0-0.9,0c-0.3,0-0.5-0.1-0.7-0.2
		c-0.2,0-0.3-0.2-0.4-0.4c-0.1-0.2-0.1-0.5,0-0.9l0.3-1.4c0.5,0.1,1.2,0.2,2.1,0.3c0.8,0.1,1.7,0.1,2.5,0.2s1.6,0.1,2.3,0.1
		c0.7,0,1.2,0,1.4,0c1.8,0,3.4,0,5,0c1.6,0,3.1,0,4.6-0.1c1.4,0,2.8-0.1,4.1-0.1c1.3,0,2.5-0.1,3.6-0.1c0.4,0,0.9,0,1.6-0.1
		c0.6,0,1.3-0.1,1.9-0.1c0.6-0.1,1.2-0.1,1.7-0.1c0.5,0,0.8-0.1,1-0.1c0.9-0.1,1.6-0.1,2.1-0.1s0.9,0.1,1.2,0.3l1.4,1.3
		c0.2,0.2,0.3,0.4,0.3,0.5c0,0.2,0,0.3,0,0.4c-0.1,0.2-0.2,0.3-0.3,0.5c-0.1,0.2-0.3,0.2-0.5,0.1l-2.6-0.4C72.7,24,72,24,71.3,24
		c-0.7,0-1.5-0.1-2.3-0.1c-0.8,0-1.6,0-2.3,0c-0.8,0-1.4,0-2,0L48.2,24.3z M51.8,5c-0.3,0-0.7,0-1,0c-0.4,0-0.7,0-1,0
		c-0.3,0-0.6,0-1.1,0c-0.5,0-0.8-0.1-1.1-0.2c-0.2-0.1-0.4-0.2-0.5-0.4C47.1,4.4,47,4.2,47.1,4l0.3-1.6c0.8,0.1,1.6,0.2,2.4,0.3
		c0.8,0.1,1.6,0.1,2.3,0.1c0.8,0,1.5,0,2.3,0c0.8,0,1.6,0,2.4,0l8.9-0.2c0.2,0,0.4,0,0.6,0.1s0.4,0.1,0.5,0.2
		C66.9,2.9,66.9,3,67,3.2c0.1,0.2,0.1,0.4,0.1,0.7v5.5c0,0.5-0.1,0.9-0.4,1.1c-0.3,0.2-0.8,0.4-1.4,0.4l-13.9,0.2c0,0.2,0,0.5,0,0.7
		c0,0.3,0,0.5,0,0.8v1.5c0,0.4,0,0.8,0.1,1c0.1,0.2,0.4,0.4,0.9,0.4h6.7c1.2,0,2.4-0.1,3.4-0.2c1.1-0.1,1.8-0.3,2.4-0.4
		c0.3-0.1,0.6-0.1,0.7-0.1c0.2,0,0.4,0.1,0.7,0.1l1.5,0.6c0.4,0.2,0.7,0.3,0.8,0.5c0.1,0.1,0.1,0.4,0,0.8c-0.1,0.3-0.1,0.4-0.2,0.5
		c-0.1,0.1-0.1,0.2-0.2,0.3c-0.1,0.1-0.2,0.1-0.3,0.1s-0.3,0-0.5,0H52.2c-0.3,0-0.7,0-1.1-0.1c-0.4,0-0.8-0.1-1.1-0.3
		c-0.4-0.2-0.7-0.4-0.9-0.8c-0.2-0.3-0.4-0.8-0.4-1.3V13c0-0.3,0-0.5,0-0.8c0-0.2,0-0.4-0.1-0.6c-0.1-0.2-0.1-0.3-0.3-0.4
		c-0.1-0.1-0.3-0.2-0.5-0.4c-0.3-0.1-0.5-0.3-0.7-0.5C47.1,10.1,47,9.8,47,9.5V8.7l2.5,0.2c0.1,0,0.1,0,0.2,0c0.1,0,0.1,0,0.2,0
		C49.9,9,50,9,50,9c0.1,0,0.1,0,0.2,0l13.4-0.3c0.3,0,0.5-0.1,0.7-0.2c0.1-0.2,0.2-0.4,0.2-0.8V5.6c0-0.4,0-0.6-0.1-0.7
		c-0.1-0.1-0.3-0.1-0.7-0.1L57,4.9L51.8,5z M68.2,39.2c0,0.5-0.1,0.9-0.3,1.2c-0.2,0.3-0.6,0.5-1.3,0.5l-15.1,0.2
		c0,0.3,0,0.6-0.1,0.8c-0.1,0.2-0.2,0.4-0.3,0.5c-0.2,0.2-0.4,0.3-0.7,0.4c-0.3,0.1-0.6,0-0.8-0.1c-0.1,0-0.3-0.1-0.4-0.2
		c-0.1-0.1-0.2-0.3-0.2-0.4l-0.1-1.4L48.3,31l-0.8-1.5c-0.1-0.2-0.1-0.4,0-0.6c0.2-0.2,0.4-0.3,0.6-0.5c0.3-0.2,0.5-0.3,0.7-0.3
		c0.2,0,0.4,0,0.5,0.1l1.1,1.2l16.3-0.2c0.2,0,0.4,0,0.7,0c0.2,0,0.4,0.1,0.5,0.2c0.1,0.1,0.1,0.2,0.2,0.4c0,0.2,0.1,0.4,0.1,0.7
		V39.2z M65.6,32.4c0-0.4,0-0.6-0.1-0.7s-0.3-0.1-0.7-0.1l-13,0.1c-0.2,0-0.4,0-0.5,0.1c-0.1,0.1-0.2,0.1-0.2,0.2
		C51,32.1,51,32.2,51,32.3c0,0.1,0,0.2,0,0.4l0.5,6.1l13.3-0.2c0.3,0,0.5-0.1,0.7-0.3c0.2-0.2,0.2-0.4,0.2-0.8V32.4z"/>
	<path class="st1" d="M95.5,12.7c-0.1,0.9-0.3,2.2-0.5,3.8s-0.6,3.4-1,5.3c-0.4,1.9-0.9,3.9-1.4,5.8c-0.5,1.9-1,3.6-1.5,5
		c-0.1,0.3-0.4,0.6-0.6,0.7c-0.3,0.1-0.6,0.2-0.8,0.1c-0.3,0-0.5-0.1-0.7-0.3c-0.2-0.2-0.2-0.5-0.1-0.8c0.5-1.5,0.9-3.1,1.4-4.9
		c0.4-1.8,0.9-3.6,1.2-5.3c0.3-1.8,0.6-3.5,0.9-5.1c0.2-1.6,0.4-3.1,0.4-4.3c-0.9,0-1.7,0.1-2.6,0.1c-0.9,0-1.5,0.1-1.9,0.1
		C87,12.9,85.8,13,84.6,13c-1.2,0-2.4,0.1-3.7,0.2c-0.6,0.1-1.1,0.1-1.5,0c-0.4,0-0.6-0.1-0.8-0.1c-0.2-0.1-0.3-0.2-0.4-0.4
		c-0.1-0.2-0.1-0.5,0-0.8l0.2-1.4c1,0.2,1.9,0.3,2.6,0.3c0.8,0.1,1.8,0.1,2.9,0.1c0.5,0,0.9,0,1.3,0c0.4,0,0.7,0,1,0
		c0.3,0,0.6,0,1,0c0.3,0,0.7-0.1,1.1-0.1c0.6,0,1.4,0,2.5-0.1c1-0.1,1.9-0.1,2.7-0.2c0,0,0.1,0,0.1,0c0.1,0,0.1,0,0.1,0
		c0.3,0,0.6,0,0.9,0.1c0.3,0.1,0.5,0.2,0.7,0.3c0.1,0.1,0.2,0.2,0.2,0.3c0.1,0.1,0.1,0.2,0.1,0.3L95.5,12.7z M106.8,21.9l1.8-0.1
		c0.4,0,0.8,0,1.1-0.1c0.3-0.1,0.8-0.2,1.4-0.4c0.3-0.1,0.5-0.2,0.7-0.2c0.2-0.1,0.4-0.1,0.5-0.1c0.2,0,0.3,0,0.5,0
		c0.2,0,0.3,0.1,0.6,0.2l1.5,0.9c0.2,0.1,0.3,0.3,0.3,0.5c0,0.2,0,0.4-0.2,0.6l-0.2,0.3c-0.2,0.2-0.4,0.4-0.6,0.4
		c-0.2,0.1-0.5,0.1-0.7,0c-0.2,0-0.4,0-0.8-0.1c-0.3,0-0.5,0-0.6,0h-5.3v13.4c0,0.4-0.1,0.8-0.2,1.3c-0.2,0.4-0.3,0.8-0.5,1.2
		c-0.2,0.4-0.4,0.7-0.6,1c-0.2,0.3-0.3,0.5-0.4,0.6c-0.1,0.2-0.3,0.2-0.5,0.2c-0.2,0-0.3-0.1-0.3-0.3V5.5c0-0.5-0.1-1-0.4-1.3
		s-0.6-0.7-1-1c-0.3-0.2-0.3-0.5-0.1-1c0.2-0.4,0.5-0.5,0.9-0.4l1.8,0.8c0.6,0.3,1,0.6,1.2,0.8s0.2,0.6,0.2,1.1V21.9z"/>
	<path class="st1" d="M135.6,24.8c0.4,0.3,0.7,0.6,0.8,1c0.1,0.4,0.1,0.8,0.1,1.2v10.8c0,0.3-0.1,0.6-0.2,1c-0.1,0.4-0.3,0.7-0.5,1
		c-0.2,0.4-0.3,0.7-0.5,1c-0.2,0.3-0.3,0.5-0.4,0.6c-0.1,0.2-0.3,0.2-0.6,0.2c-0.3,0-0.4-0.2-0.4-0.4V27.5c0-0.7-0.1-1.3-0.3-1.6
		c-0.2-0.3-0.5-0.7-0.8-1l-8.1,0.2l-4.7,0.2c-0.3,0-0.5,0-0.9,0.1c-0.3,0-0.7,0-1,0c-0.3,0-0.6,0-0.9,0c-0.3,0-0.5-0.1-0.7-0.2
		c-0.2,0-0.3-0.2-0.4-0.4c-0.1-0.2-0.1-0.5,0-0.9l0.3-1.4c0.5,0.1,1.2,0.2,2.1,0.3c0.8,0.1,1.7,0.1,2.5,0.2c0.8,0,1.6,0,2.3,0.1
		c0.7,0,1.2,0,1.4,0c1.8,0,3.4,0,5,0c1.6,0,3.1-0.1,4.6-0.1c1.4,0,2.8-0.1,4.1-0.1c1.3,0,2.5-0.1,3.6-0.1c0.4,0,0.9,0,1.6-0.1
		s1.3-0.1,1.9-0.1c0.6-0.1,1.2-0.1,1.7-0.1s0.8-0.1,1-0.1c0.9-0.1,1.6-0.1,2.1-0.1c0.5,0,0.9,0.1,1.2,0.3l1.4,1.3
		c0.2,0.2,0.3,0.4,0.3,0.5c0,0.2,0,0.3,0,0.4c-0.1,0.2-0.2,0.3-0.3,0.5s-0.3,0.2-0.5,0.1l-2.6-0.4c-0.5-0.1-1.2-0.1-1.9-0.1
		c-0.7,0-1.5,0-2.3,0c-0.8,0-1.6,0-2.3,0c-0.8,0-1.4,0-2,0L135.6,24.8z M133,7.8c-0.1,0.6-0.2,1.4-0.5,2.4c-0.2,1-0.5,2.1-0.8,3.3
		c-0.3,1.1-0.6,2.2-0.9,3.2c-0.3,1-0.6,1.7-0.8,2.1c-0.1,0.3-0.3,0.5-0.6,0.6c-0.2,0.1-0.5,0.1-0.7,0.1c-0.2-0.1-0.4-0.2-0.5-0.4
		c-0.1-0.2-0.1-0.4-0.1-0.7c0.2-0.8,0.4-1.6,0.6-2.5c0.2-0.9,0.4-1.9,0.6-2.9c0.2-1,0.4-1.9,0.5-2.8c0.1-0.9,0.3-1.8,0.3-2.6
		c-0.5,0-1.1,0-1.7,0.1c-0.6,0-1.1,0-1.7,0.1c-0.5,0-1,0-1.5,0s-0.8,0-1.2,0c-0.3,0-0.6,0-1,0c-0.4,0-0.8-0.1-1.2-0.2
		c-0.2,0-0.3-0.1-0.4-0.3c-0.1-0.2-0.1-0.4,0-0.7l0.3-1.5c0.8,0.2,1.5,0.3,2.2,0.4c0.7,0.1,1.4,0.1,2,0.1c0.5,0,1.1,0,1.8-0.1
		c0.7,0,1.7-0.1,3-0.3c0.2-0.1,0.5-0.1,0.9,0c0.4,0.1,0.8,0.3,1,0.6c0.1,0.1,0.1,0.2,0.1,0.3c0,0.1,0,0.2,0,0.3L133,7.8z M146.2,7.8
		c-0.1,0.6-0.2,1.4-0.5,2.4c-0.2,1.1-0.5,2.2-0.8,3.3c-0.3,1.1-0.6,2.2-0.9,3.2c-0.3,1-0.6,1.7-0.8,2.1c-0.1,0.3-0.3,0.5-0.6,0.6
		c-0.2,0.1-0.5,0.1-0.7,0.1c-0.2-0.1-0.4-0.2-0.5-0.4c-0.1-0.2-0.1-0.4-0.1-0.7c0.2-0.8,0.4-1.6,0.6-2.5c0.2-0.9,0.4-1.9,0.5-2.9
		c0.2-1,0.3-1.9,0.4-2.9c0.1-0.9,0.2-1.8,0.3-2.6c-0.6,0-1.1,0-1.7,0.1c-0.6,0-1.2,0-1.7,0.1c-0.6,0-1.1,0-1.6,0c-0.5,0-0.9,0-1.2,0
		c-0.3,0-0.6,0-1,0c-0.4,0-0.8-0.1-1.2-0.2c-0.2,0-0.3-0.1-0.4-0.3c-0.1-0.2-0.1-0.4,0-0.7l0.3-1.5c0.8,0.2,1.5,0.3,2.1,0.4
		c0.6,0.1,1.2,0.1,1.9,0.1c0.5,0,1.2,0,2.1-0.1c0.9,0,2-0.1,3.2-0.3c0.2-0.1,0.5-0.1,0.9,0c0.4,0.1,0.8,0.3,1,0.6
		c0.1,0.1,0.1,0.2,0.1,0.3c0,0.1,0,0.2,0,0.3L146.2,7.8z"/>
	<path class="st1" d="M172.3,12.7c-0.1,0.9-0.2,2.2-0.5,3.8c-0.3,1.7-0.6,3.4-0.9,5.3c-0.4,1.9-0.8,3.9-1.3,5.8
		c-0.5,1.9-1,3.6-1.5,5c-0.1,0.3-0.4,0.6-0.7,0.7c-0.3,0.1-0.6,0.2-0.9,0.1c-0.3,0-0.5-0.1-0.7-0.3s-0.2-0.5-0.1-0.8
		c0.5-1.5,1-3.1,1.4-4.9s0.9-3.6,1.2-5.3c0.3-1.8,0.6-3.5,0.8-5.1c0.2-1.6,0.4-3.1,0.4-4.3c-0.4,0-0.8,0-1.1,0c-0.4,0-0.7,0-1.1,0.1
		c-0.4,0-0.7,0-1.1,0.1c-0.4,0-0.8,0-1.2,0c-1.3,0-2.7,0.1-4,0.1c-1.3,0.1-2.6,0.1-3.9,0.2c-0.6,0.1-1.1,0.1-1.5,0
		c-0.4,0-0.6-0.1-0.8-0.1c-0.2-0.1-0.3-0.2-0.4-0.4c-0.1-0.2-0.1-0.5,0-0.8l0.3-1.4c1,0.2,1.9,0.3,2.6,0.3c0.8,0.1,1.8,0.1,2.9,0.1
		c0.5,0,0.9,0,1.3,0c0.4,0,0.8,0,1.2,0c0.4,0,0.7,0,1.1,0c0.4,0,0.8-0.1,1.2-0.1c0.6,0,1.4,0,2.5-0.1c1-0.1,1.9-0.1,2.7-0.2
		c0,0,0.1,0,0.1,0c0.1,0,0.1,0,0.1,0c0.2,0,0.3,0,0.5,0c0.2,0,0.3,0.1,0.4,0.1c0.1,0,0.3,0.1,0.4,0.1c0.1,0.1,0.2,0.1,0.3,0.1
		c0.1,0.1,0.1,0.2,0.2,0.3c0,0.1,0.1,0.2,0.1,0.3L172.3,12.7z M184.5,37.2c0,0.4-0.1,0.8-0.2,1.3c-0.2,0.4-0.3,0.8-0.5,1.2
		c-0.2,0.4-0.4,0.7-0.6,1c-0.2,0.3-0.3,0.5-0.4,0.6c-0.1,0.2-0.3,0.2-0.5,0.2c-0.2,0-0.3-0.1-0.3-0.3V5.5c0-0.5-0.1-1-0.4-1.3
		c-0.3-0.3-0.6-0.7-1-1c-0.3-0.2-0.3-0.5-0.1-1c0.2-0.4,0.5-0.5,0.9-0.4l1.8,0.8c0.6,0.3,1,0.6,1.2,0.8s0.2,0.6,0.2,1.1V37.2z"/>
</g>
</svg>
