<?xml version="1.0" encoding="utf-8"?>
<!-- Generator: Adobe Illustrator 22.1.0, SVG Export Plug-In . SVG Version: 6.00 Build 0)  -->
<svg version="1.1" id="레이어_1" xmlns="http://www.w3.org/2000/svg" xmlns:xlink="http://www.w3.org/1999/xlink" x="0px"
	 y="0px" viewBox="0 0 198 44" style="enable-background:new 0 0 198 44;" xml:space="preserve">
<style type="text/css">
	.st0{enable-background:new    ;}
	.st1{fill:#FFFFFF;}
</style>
<g class="st0">
	<path class="st1" d="M7.3,26.7c0,0.4,0,0.7,0.1,0.8c0.1,0.1,0.4,0.2,0.8,0.2c2.6-0.2,5.1-0.5,7.6-1c2.5-0.5,4.4-1.1,5.8-1.8
		c0.2-0.1,0.4-0.1,0.7-0.2c0.3,0,0.6,0.1,1,0.3c0.6,0.4,0.9,0.8,0.8,1.1c0,0.4-0.4,0.7-1.1,1.1c-2.2,1.2-4.8,2.1-7.5,2.7
		c-2.8,0.6-5.5,1-8.2,1.3c-0.2,0-0.4,0-0.7,0.1c-0.3,0-0.5,0-0.7,0c-0.3,0-0.5-0.1-0.8-0.2c-0.3-0.1-0.6-0.3-0.9-0.5
		C4,30.2,3.7,30,3.6,29.7c-0.2-0.3-0.3-0.5-0.3-0.8V14.2c0-0.7,0-1.2-0.1-1.4c-0.1-0.2-0.3-0.4-0.6-0.5c-0.4-0.2-0.6-0.3-0.7-0.5
		c-0.1-0.1-0.1-0.3-0.1-0.6V9.8l2.5,0.3h6.6c0.3,0,0.7,0,1.2,0c0.6,0,1.1,0,1.8-0.1c0.6,0,1.3-0.1,1.8-0.1c0.6-0.1,1.1-0.1,1.4-0.2
		c0.4-0.1,0.8-0.1,1-0.1c0.3,0,0.5,0.1,0.8,0.3l0.8,0.5c0.6,0.4,0.9,0.6,1,0.8c0.1,0.2,0.1,0.5-0.1,0.8c-0.3,0.5-0.5,0.8-0.7,0.9
		c-0.2,0.1-0.6,0.1-1.2,0.1H7.3c0,0.1,0,0.2,0,0.4c0,0.1,0,0.2,0,0.3V26.7z M26.2,5.1c0-0.6-0.1-1-0.3-1.4c-0.2-0.3-0.6-0.7-1.1-1
		c-0.2-0.1-0.3-0.3-0.3-0.5c0-0.2,0.1-0.5,0.2-0.7c0.1-0.2,0.3-0.4,0.5-0.5c0.2-0.1,0.5-0.1,0.8,0l2.9,1.3c0.7,0.3,1.1,0.6,1.2,0.8
		s0.2,0.6,0.2,1.1v17l0.5,0c0.4,0,0.8,0,1.2-0.1c0.4-0.1,0.9-0.2,1.6-0.4c0.3-0.1,0.5-0.2,0.7-0.2c0.2-0.1,0.4-0.1,0.5-0.1
		c0.2,0,0.3,0,0.5,0c0.2,0,0.4,0.1,0.6,0.2l2.1,1.3c0.2,0.1,0.4,0.3,0.4,0.5c0,0.2,0,0.4-0.2,0.6l-0.8,0.9c-0.2,0.2-0.4,0.4-0.7,0.4
		c-0.3,0-0.6,0-0.8-0.1S35.2,24.1,35,24c-0.2,0-0.5-0.1-0.8-0.1h-4v12.3c0,0.6-0.1,1.1-0.4,1.6c-0.2,0.5-0.5,1-0.9,1.5
		c-0.3,0.4-0.7,0.8-1,1.2c-0.3,0.3-0.6,0.6-0.8,0.7c-0.2,0.2-0.4,0.2-0.6,0.2s-0.3-0.2-0.3-0.4V5.1z"/>
	<path class="st1" d="M46.6,20.9c0,0.1,0,0.2,0.1,0.3c0.1,0.1,0.2,0.1,0.3,0.1c2.8-0.1,5.5-0.4,8-0.9c2.5-0.5,4.7-1.2,6.6-2
		c0.1-0.1,0.3-0.1,0.5-0.1c0.2,0,0.5,0.1,0.7,0.3c0.4,0.3,0.7,0.6,0.9,1c0.2,0.4,0,0.7-0.5,1c-2.9,1.4-5.7,2.4-8.5,2.9
		c-2.8,0.5-5.4,0.9-8,1.1c-0.2,0-0.5,0-1,0c-0.5,0-0.8,0-1,0c-0.4,0-0.8-0.2-1.3-0.7c-0.5-0.4-0.7-0.9-0.7-1.3v-4.9
		c0-0.3,0-0.5,0-0.7s0-0.4-0.1-0.6c-0.1-0.2-0.1-0.3-0.3-0.5c-0.1-0.1-0.3-0.3-0.5-0.4c-0.3-0.1-0.5-0.3-0.7-0.5
		c-0.2-0.2-0.3-0.5-0.3-0.8v-1.8l3.4,0.2l9.1-0.2c0.3,0,0.5-0.1,0.7-0.2c0.1-0.2,0.2-0.4,0.2-0.8l0.1-2.9c0-0.4,0-0.6-0.1-0.7
		c-0.1-0.1-0.3-0.1-0.7-0.1L46.4,8c-0.3,0-0.7,0-1,0c-0.4,0-0.7,0-1,0c-0.3,0-0.7,0-1.4,0c-0.7,0-1.2-0.1-1.5-0.3
		c-0.2-0.1-0.3-0.2-0.3-0.4c0-0.2,0-0.3,0-0.6l0.3-2.3c1.1,0.2,2.4,0.4,4,0.4c1.6,0,3.2,0,4.8,0l6.9-0.2c0.2,0,0.4,0,0.7,0
		c0.2,0,0.4,0.1,0.5,0.2c0.1,0.1,0.2,0.3,0.2,0.4c0,0.2,0.1,0.4,0.1,0.7L58.1,14c-0.1,0.5-0.2,0.9-0.5,1.1c-0.3,0.2-0.7,0.4-1.4,0.4
		l-9.7,0.1V20.9z M51.3,31.4c0.3-1,0.9-1.8,1.7-2.5c0.7-0.7,1.7-1.3,2.8-1.7c1.1-0.4,2.5-0.7,4.1-0.7c1.4,0,2.7,0.2,3.8,0.7
		c1.1,0.4,2,1,2.8,1.7c0.8,0.7,1.3,1.6,1.7,2.5c0.4,1,0.6,2,0.6,3c0,1-0.2,1.9-0.5,2.9c-0.4,1-0.9,1.8-1.6,2.5
		c-0.7,0.7-1.7,1.3-2.8,1.8c-1.1,0.4-2.4,0.7-3.9,0.7c-1.5,0-2.8-0.2-3.9-0.6c-1.1-0.4-2.1-1-2.8-1.7c-0.8-0.7-1.3-1.6-1.7-2.5
		c-0.4-0.9-0.6-1.9-0.6-3S50.9,32.4,51.3,31.4z M56,31c-0.8,0.9-1.3,2-1.3,3.3c0,1.3,0.4,2.4,1.3,3.3c0.8,0.9,2.1,1.4,3.8,1.4
		c1.6,0,2.8-0.5,3.7-1.4c0.8-0.9,1.2-2,1.2-3.3c0-1.3-0.4-2.4-1.2-3.3c-0.8-0.9-2.1-1.4-3.7-1.4C58.1,29.7,56.9,30.2,56,31z
		 M65.7,5.1c0-0.6-0.1-1-0.3-1.4c-0.2-0.3-0.6-0.7-1.1-1C64.1,2.6,64,2.5,64,2.2C64,2,64,1.8,64.1,1.5c0.1-0.2,0.3-0.4,0.5-0.5
		c0.2-0.1,0.5-0.1,0.8,0l2.9,1.3c0.7,0.3,1.1,0.6,1.2,0.8s0.2,0.6,0.2,1.1v10l0.8,0c0.4,0,0.8,0,1.2-0.1c0.4-0.1,0.9-0.2,1.6-0.4
		c0.3-0.1,0.5-0.2,0.7-0.2c0.2-0.1,0.4-0.1,0.5-0.1c0.2,0,0.3,0,0.5,0s0.4,0.1,0.6,0.2l2.1,1.3c0.2,0.1,0.4,0.3,0.4,0.5
		c0,0.2,0,0.4-0.2,0.6L77.1,17c-0.2,0.2-0.4,0.4-0.7,0.4c-0.3,0-0.6,0-0.8-0.1s-0.5-0.1-0.7-0.2S74.3,17,74,17h-4.3V21
		c0,0.6-0.1,1.1-0.4,1.6c-0.2,0.5-0.5,1-0.9,1.5c-0.3,0.4-0.7,0.8-1,1.2c-0.3,0.4-0.6,0.6-0.8,0.7c-0.2,0.2-0.4,0.2-0.6,0.2
		s-0.3-0.2-0.3-0.4V5.1z"/>
	<path class="st1" d="M94.3,36c0,0.3-0.1,0.6-0.2,1c-0.2,0.4-0.3,0.8-0.6,1.2c-0.2,0.4-0.4,0.7-0.6,1.1c-0.2,0.3-0.4,0.5-0.4,0.7
		c-0.3,0.3-0.7,0.5-1.2,0.4c-0.5-0.1-0.8-0.3-0.8-0.8v-9.9c0-0.6-0.1-1.2-0.2-1.5s-0.4-0.7-0.6-0.9l-1.1,0.1c-0.4,0.1-1,0.1-1.6,0.1
		c-0.6,0-1.3,0.1-2,0.1c-0.7,0-1.4,0.1-2,0.1c-0.7,0-1.2,0-1.7,0c-0.3,0-0.6,0-0.9,0c-0.4,0-0.7-0.1-1.1-0.3
		c-0.2-0.1-0.3-0.2-0.4-0.4c-0.1-0.2-0.1-0.4,0-0.8l0.3-2.1c1.1,0.2,2.5,0.3,4.2,0.4c1.7,0,3.3,0,4.9-0.2c1-0.1,2.2-0.2,3.5-0.3
		s2.6-0.3,4-0.5c1.4-0.2,2.7-0.4,4-0.7c1.3-0.3,2.5-0.6,3.5-0.9c0.1,0,0.2,0,0.5,0.1c0.2,0.1,0.4,0.2,0.6,0.3c0.4,0.3,0.8,0.6,0.9,1
		s0.1,0.7-0.2,0.8c-1.6,0.6-3.5,1.2-5.6,1.6s-4.2,0.8-6.1,1.1c0.5,0.4,0.8,0.7,0.9,1.1c0.1,0.4,0.1,0.8,0.1,1.2V36z M94.1,10.3
		c-0.3,0.6-0.6,1.2-0.9,1.7l2.9,2.1c0.5,0.3,0.9,0.6,1.3,0.8c0.3,0.2,0.8,0.4,1.3,0.6c0.4,0.2,0.7,0.4,1,0.6c0.2,0.2,0.5,0.5,0.7,1
		l0.8,1.5c0.2,0.6,0.3,1,0.3,1.2c0,0.2-0.2,0.5-0.5,0.7c-0.3,0.2-0.5,0.3-0.8,0.2s-0.6-0.2-1-0.6l-7.3-6c-1.2,1.6-2.5,3.1-3.8,4.3
		c-1.4,1.3-2.6,2.2-3.7,2.8c-0.2,0.1-0.4,0.2-0.7,0.3c-0.3,0.1-0.5,0.2-0.7,0.2c-0.4,0-0.7-0.1-0.9-0.3c-0.2-0.2-0.3-0.5-0.4-0.8
		c-0.1-0.2,0-0.4,0-0.6s0.2-0.4,0.3-0.5c0.8-0.6,1.7-1.2,2.5-2c0.9-0.8,1.7-1.6,2.5-2.6c0.8-0.9,1.5-1.9,2.2-3
		c0.7-1.1,1.2-2.3,1.6-3.5c0.1-0.2,0.1-0.3,0.1-0.5c0-0.2-0.2-0.4-0.5-0.6l-1.1-0.8C89,6.4,89,6.2,89,6c0-0.2,0.1-0.4,0.2-0.7
		c0.1-0.2,0.2-0.4,0.3-0.5c0.1-0.2,0.3-0.2,0.4-0.2c0.3,0.1,0.6,0.2,1,0.3c0.4,0.1,0.8,0.2,1.3,0.4c0.4,0.1,0.8,0.3,1.2,0.4
		C93.7,5.8,94,5.9,94.2,6c0.3,0.2,0.5,0.4,0.7,0.8c0.1,0.4,0.1,0.9-0.1,1.6C94.6,9.1,94.3,9.7,94.1,10.3z M106.9,5.1
		c0-0.6-0.1-1-0.3-1.4c-0.2-0.3-0.6-0.7-1.1-1c-0.2-0.1-0.3-0.3-0.3-0.5c0-0.2,0.1-0.5,0.2-0.7c0.1-0.2,0.3-0.4,0.5-0.5
		s0.5-0.1,0.8,0l2.9,1.3c0.7,0.3,1.1,0.6,1.2,0.8s0.2,0.6,0.2,1.1v32c0,0.6-0.1,1.1-0.4,1.6c-0.2,0.5-0.5,1-0.9,1.5
		c-0.3,0.4-0.7,0.8-1,1.2c-0.3,0.3-0.6,0.6-0.8,0.7c-0.2,0.2-0.4,0.2-0.6,0.2c-0.2,0-0.3-0.2-0.3-0.4V5.1z"/>
	<path class="st1" d="M122.9,36.3c-0.3,0-0.6,0-0.9,0.1c-0.4,0-0.7,0-1.1,0c-0.4,0-0.7,0-1,0c-0.3,0-0.6-0.1-0.8-0.1
		c-0.3-0.1-0.4-0.2-0.5-0.4c-0.1-0.2-0.1-0.5,0-0.8l0.5-2.4c0.6,0.1,1.3,0.2,2.2,0.3c0.9,0.1,1.8,0.1,2.7,0.1
		c0.9,0.1,1.7,0.1,2.5,0.1c0.7,0,1.3,0,1.5,0c1.5,0,2.9,0,4.1,0c1.3,0,2.4,0,3.6,0v-1.6c0-0.5,0-0.9-0.1-1.2
		c-0.1-0.3-0.3-0.5-0.8-0.6c-0.2-0.1-0.4-0.2-0.6-0.3s-0.2-0.4-0.2-0.8l0.1-1.5l3.9,0.3c0.7,0.1,1.1,0.3,1.2,0.7
		c0.2,0.4,0.2,0.7,0.2,0.9v4c1.3,0,2.4-0.1,3.4-0.1c1,0,2-0.1,2.9-0.1c0.9-0.1,1.7-0.1,2.6-0.2c0.8-0.1,1.7-0.1,2.6-0.2
		c0.4,0,0.9-0.1,1.2-0.1s0.7-0.1,1-0.1c0.3,0,0.5,0,0.7,0.1s0.4,0.1,0.5,0.2l1.7,1.4c0.3,0.3,0.5,0.6,0.5,0.9c0,0.3,0,0.5-0.2,0.8
		c-0.2,0.4-0.4,0.6-0.6,0.7s-0.4,0.1-0.6,0.1c-0.2,0-0.6-0.1-1.2-0.2c-0.6-0.1-1.2-0.2-1.6-0.3c-0.6,0-1.4-0.1-2.5-0.1
		c-1.1,0-2.3,0-3.6,0c-1.3,0-2.8,0-4.2,0c-1.5,0-2.9,0.1-4.3,0.1L122.9,36.3z M127.5,12.7c0.4-1.1,1.1-2.1,1.9-3
		c0.8-0.8,1.9-1.5,3.1-2c1.2-0.5,2.6-0.7,4.2-0.7c1.5,0,2.9,0.2,4.1,0.7c1.2,0.5,2.2,1.2,3.1,2c0.8,0.8,1.5,1.8,1.9,3
		c0.4,1.1,0.7,2.4,0.7,3.7c0,1.4-0.2,2.6-0.7,3.8c-0.5,1.1-1.1,2.1-2,2.9c-0.8,0.8-1.9,1.5-3.1,2c-1.2,0.5-2.5,0.7-4,0.7
		c-1.6,0-3-0.2-4.2-0.7c-1.2-0.5-2.2-1.1-3.1-2c-0.8-0.8-1.5-1.8-1.9-3c-0.4-1.1-0.7-2.4-0.7-3.7C126.9,15.1,127.1,13.9,127.5,12.7z
		 M132.5,11.9c-1.1,1.1-1.6,2.6-1.6,4.5c0,1.9,0.5,3.4,1.6,4.5c1.1,1.1,2.5,1.6,4.3,1.6c1.8,0,3.2-0.5,4.2-1.6
		c1-1.1,1.6-2.6,1.6-4.5c0-1.9-0.5-3.4-1.6-4.5c-1.1-1.1-2.5-1.6-4.2-1.6C135,10.3,133.5,10.8,132.5,11.9z"/>
	<path class="st1" d="M162.4,24.8c-0.3,0-0.6,0-0.9,0.1c-0.4,0-0.7,0-1.1,0c-0.4,0-0.7,0-1,0c-0.3,0-0.6-0.1-0.8-0.1
		c-0.3-0.1-0.4-0.2-0.5-0.4c-0.1-0.2-0.1-0.5,0-0.8l0.5-2.4c0.6,0.1,1.3,0.2,2.2,0.3c0.9,0.1,1.8,0.1,2.7,0.1
		c0.9,0.1,1.7,0.1,2.5,0.1c0.7,0,1.3,0,1.5,0c2,0,3.8,0,5.5,0c1.6,0,3.2,0,4.6-0.1c1.5,0,2.9-0.1,4-0.1c1.2-0.1,2.3-0.1,3.2-0.2
		c1,0,1.9-0.1,2.8-0.1c0.9-0.1,1.9-0.2,2.9-0.3c0.4,0,0.9-0.1,1.2-0.1c0.4,0,0.7,0,1,0c0.3,0,0.5,0,0.7,0.1s0.4,0.1,0.5,0.2l1.7,1.4
		c0.3,0.3,0.5,0.6,0.5,0.9c0,0.3,0,0.5-0.2,0.8c-0.2,0.4-0.4,0.6-0.6,0.7c-0.2,0.1-0.4,0.1-0.6,0.1c-0.2,0-0.6-0.1-1.2-0.2
		c-0.6-0.1-1.2-0.2-1.6-0.3c-0.6,0-1.4-0.1-2.5-0.1c-1.1,0-2.3,0-3.6,0c-1.3,0-2.8,0-4.2,0c-1.5,0-2.9,0.1-4.3,0.1L162.4,24.8z
		 M170.9,5.1c-0.3,0-0.7,0-1.1,0c-0.4,0-0.7,0-1,0c-0.3,0-0.7,0-1.3,0.1c-0.5,0-0.9,0-1.2-0.1c-0.3-0.1-0.6-0.3-0.8-0.6
		c-0.2-0.3-0.2-0.5-0.2-0.8l0.4-2c1.4,0.3,2.7,0.4,3.8,0.4c1.1,0,2.2,0.1,3.3,0.1c1,0,2,0,2.9,0c0.9,0,1.8,0,2.8,0
		c0.9,0,1.8-0.1,2.7-0.1c0.9,0,1.9-0.1,2.9-0.1c0.3,0,0.6,0,0.9,0.1c0.3,0.1,0.5,0.2,0.7,0.3c0.1,0.1,0.2,0.3,0.3,0.5
		c0.1,0.2,0.2,0.5,0.2,0.8v5.5c0,0.6-0.2,1.1-0.6,1.4c-0.4,0.3-1,0.5-1.9,0.5l-13.1,0.2V14c0,0.4,0.1,0.6,0.2,0.8
		c0.1,0.1,0.4,0.2,0.8,0.2h5.9c1.1,0,2.2-0.1,3.2-0.2c1-0.1,1.9-0.3,2.4-0.4c0.3-0.1,0.6-0.1,0.9-0.1c0.3,0,0.6,0.1,0.9,0.2l1.5,0.6
		c0.6,0.3,1,0.5,1.1,0.7c0.2,0.2,0.2,0.6,0.1,1c-0.1,0.5-0.2,0.8-0.5,0.9c-0.2,0.1-0.7,0.2-1.3,0.2h-15.2c-0.4,0-0.8,0-1.3-0.1
		c-0.4-0.1-0.9-0.2-1.3-0.4c-0.4-0.2-0.7-0.5-1-0.9s-0.4-0.9-0.4-1.5v-2.4c0-0.4,0-0.7-0.1-1c0-0.2-0.2-0.4-0.4-0.5
		c-0.4-0.2-0.7-0.4-0.9-0.6c-0.2-0.3-0.4-0.6-0.4-0.9V8.2l3,0.3l13.8-0.2c0.2,0,0.4,0,0.4-0.1c0.1-0.1,0.1-0.3,0.1-0.5V5.5
		c0-0.2,0-0.3-0.1-0.4c-0.1-0.1-0.2-0.1-0.5-0.1L170.9,5.1z M187.6,39.2c0,0.5-0.1,0.9-0.3,1.2c-0.2,0.3-0.6,0.5-1.3,0.5l-15,0.2
		c0,0.3,0,0.6-0.1,0.8c-0.1,0.2-0.2,0.4-0.3,0.5c-0.3,0.3-0.7,0.5-1.3,0.6s-1,0-1.5-0.4c-0.1-0.1-0.2-0.2-0.4-0.4
		c-0.1-0.2-0.2-0.4-0.2-0.6l-0.2-1.3l-0.8-9.3l-0.8-1.4c-0.1-0.3-0.1-0.5,0-0.8c0.2-0.3,0.5-0.6,1-0.9c0.5-0.3,0.9-0.4,1.3-0.4
		c0.4,0,0.7,0.2,0.9,0.4l1,1l16.3-0.3c0.2,0,0.5,0,0.7,0.1c0.2,0,0.4,0.1,0.6,0.2c0.1,0.1,0.2,0.2,0.2,0.4s0.1,0.4,0.1,0.7V39.2z
		 M183.7,32.5c0-0.4,0-0.6-0.1-0.7s-0.3-0.1-0.8-0.1l-11.5,0.2c-0.3,0-0.4,0-0.5,0.1c-0.1,0.1-0.2,0.1-0.3,0.2
		c-0.1,0.1-0.1,0.2-0.1,0.3s0,0.2,0,0.4l0.4,5.4l11.9-0.2c0.3,0,0.5-0.1,0.7-0.2c0.2-0.2,0.2-0.4,0.2-0.8V32.5z"/>
</g>
</svg>
