<?xml version="1.0" encoding="utf-8"?>
<!-- Generator: Adobe Illustrator 22.1.0, SVG Export Plug-In . SVG Version: 6.00 Build 0)  -->
<svg version="1.1" id="레이어_1" xmlns="http://www.w3.org/2000/svg" xmlns:xlink="http://www.w3.org/1999/xlink" x="0px"
	 y="0px" viewBox="0 0 120 44" style="enable-background:new 0 0 120 44;" xml:space="preserve">
<style type="text/css">
	.st0{enable-background:new    ;}
	.st1{fill:#FFFFFF;}
</style>
<g class="st0">
	<path class="st1" d="M5.9,37.1c-0.3,0-0.6,0-0.9,0.1c-0.4,0-0.7,0-1.1,0c-0.4,0-0.7,0-1,0c-0.3,0-0.6-0.1-0.8-0.1
		c-0.3-0.1-0.4-0.2-0.5-0.4c-0.1-0.2-0.1-0.5,0-0.8l0.5-2.4c0.6,0.1,1.3,0.2,2.2,0.3C5,33.7,6,33.8,6.9,33.8
		c0.9,0.1,1.7,0.1,2.5,0.1c0.7,0,1.3,0,1.5,0h4.6V24c0-0.6-0.1-1-0.2-1.2c-0.1-0.2-0.5-0.4-1-0.6c-0.3-0.1-0.5-0.2-0.7-0.4
		c-0.2-0.2-0.2-0.5-0.2-0.9l0.1-1.3l4.3,0.4c0.7,0.1,1.2,0.3,1.3,0.7c0.2,0.4,0.2,0.7,0.2,0.9v12.1c0.3,0,0.5,0,0.7,0
		c0.2,0,0.5,0,0.7,0c1.5,0,2.9-0.1,4-0.1c1.2-0.1,2.3-0.1,3.2-0.2c1,0,1.9-0.1,2.8-0.1c0.9-0.1,1.9-0.2,2.9-0.3
		c0.4,0,0.9-0.1,1.2-0.1s0.7-0.1,1-0.1c0.3,0,0.5,0,0.7,0.1s0.4,0.1,0.5,0.2l1.7,1.4c0.3,0.3,0.5,0.6,0.5,0.9c0,0.3,0,0.5-0.2,0.8
		c-0.2,0.4-0.4,0.6-0.6,0.7S38.5,37,38.3,37c-0.2,0-0.6-0.1-1.2-0.2c-0.6-0.1-1.2-0.2-1.6-0.3c-0.6,0-1.4-0.1-2.5-0.1
		c-1.1,0-2.3,0-3.6,0c-1.3,0-2.8,0-4.2,0c-1.5,0-2.9,0.1-4.3,0.1L5.9,37.1z M32.3,11.6c-0.1,1-0.3,2.2-0.6,3.6
		c-0.3,1.4-0.5,2.9-0.9,4.4c-0.3,1.5-0.7,3-1.1,4.5c-0.4,1.4-0.9,2.7-1.3,3.7c-0.3,0.5-0.6,0.8-0.9,0.9c-0.4,0.1-0.7,0.2-1.1,0.1
		s-0.6-0.3-0.8-0.6s-0.2-0.7-0.1-1.1c0.8-2.5,1.4-5.1,1.8-7.7c0.5-2.6,0.8-5,1-7.3l-17.6,0.3c-0.3,0-0.6,0-1.1-0.1s-0.9-0.1-1.2-0.2
		c-0.4-0.1-0.7-0.3-0.8-0.5c-0.1-0.3-0.2-0.6-0.1-0.9l0.4-2.1C8.3,8.7,8.9,8.9,9.7,9c0.7,0.1,1.5,0.2,2.2,0.3
		c0.8,0.1,1.5,0.1,2.2,0.1c0.7,0,1.3,0,1.7,0c0.3,0,0.8,0,1.3,0s1,0,1.6,0c0.6,0,1.1,0,1.7,0c0.6,0,1.1,0,1.6-0.1c0.6,0,1.2,0,1.9,0
		c0.6,0,1.3-0.1,1.9-0.1c0.6,0,1.3-0.1,1.9-0.1c0.6,0,1.3-0.1,2-0.1c0.4-0.1,0.8-0.1,1.3,0c0.5,0.1,0.9,0.4,1.1,0.7
		c0.1,0.1,0.1,0.3,0.2,0.4c0,0.1,0.1,0.2,0.1,0.3L32.3,11.6z"/>
	<path class="st1" d="M45.4,25.1c-0.3,0-0.6,0-0.9,0.1s-0.7,0-1.1,0c-0.4,0-0.7,0-1,0c-0.3,0-0.6-0.1-0.8-0.1
		c-0.3-0.1-0.4-0.2-0.5-0.4c-0.1-0.2-0.1-0.5,0-0.8l0.5-2.4c0.6,0.1,1.3,0.2,2.2,0.3c0.9,0.1,1.8,0.1,2.7,0.1
		c0.9,0.1,1.7,0.1,2.5,0.1c0.7,0,1.3,0,1.5,0c2,0,3.8,0,5.5,0c1.6,0,3.2,0,4.6-0.1c1.5,0,2.9-0.1,4-0.1c1.2-0.1,2.3-0.1,3.2-0.2
		c1,0,1.9-0.1,2.8-0.1c0.9-0.1,1.9-0.2,2.9-0.3c0.4,0,0.9-0.1,1.2-0.1s0.7-0.1,1-0.1c0.3,0,0.5,0,0.7,0.1s0.4,0.1,0.5,0.2l1.7,1.4
		c0.3,0.3,0.5,0.6,0.5,0.9c0,0.3,0,0.5-0.2,0.8c-0.2,0.4-0.4,0.6-0.6,0.7C78.2,25,78,25.1,77.8,25c-0.2,0-0.6-0.1-1.2-0.2
		c-0.6-0.1-1.2-0.2-1.6-0.3c-0.6,0-1.4-0.1-2.5-0.1c-1.1,0-2.3,0-3.6,0c-1.3,0-2.8,0-4.2,0c-1.5,0-2.9,0.1-4.3,0.1L45.4,25.1z
		 M53,42.2c-0.3,0-0.7,0-1.1-0.1c-0.4,0-0.7-0.1-1.1-0.3c-0.3-0.2-0.6-0.4-0.8-0.7c-0.2-0.3-0.3-0.8-0.3-1.4v-5.9
		c0-0.7,0-1.2-0.1-1.6c-0.1-0.4-0.4-0.6-0.8-0.8c-0.3-0.1-0.6-0.2-0.8-0.4c-0.2-0.1-0.3-0.4-0.3-0.7v-1.6l4,0.5
		c0.5,0.1,0.8,0.2,1.1,0.4c0.3,0.2,0.5,0.4,0.6,0.7c0.1,0.3,0.2,0.6,0.2,0.9c0,0.3,0,0.7,0,1v5.6c0,0.4,0,0.8,0.1,1
		c0.1,0.2,0.4,0.3,0.9,0.3h6.8c1.3,0,2.5-0.1,3.6-0.2c1.1-0.1,2-0.3,2.6-0.5c0.3-0.1,0.6-0.1,0.8-0.1s0.5,0.1,0.9,0.2l1.7,0.7
		c0.6,0.3,1,0.5,1.1,0.7c0.1,0.2,0.1,0.5,0,0.9c-0.1,0.5-0.3,0.8-0.5,1c-0.2,0.2-0.6,0.3-1.3,0.3H53z M71.1,7.4C71,7.6,71,7.8,71,8
		c-0.1,0.6-0.3,1.4-0.5,2.2S70,12,69.8,12.9c-0.3,0.9-0.5,1.7-0.8,2.6c-0.3,0.9-0.6,1.6-0.9,2.3c-0.2,0.5-0.5,0.8-0.9,0.9
		c-0.4,0.1-0.8,0.2-1.2,0.1c-0.4-0.1-0.7-0.3-0.9-0.6s-0.2-0.7-0.1-1.1c0.4-1.2,0.7-2.6,1.1-4.1c0.3-1.6,0.6-3.1,0.8-4.7L51.7,8.6
		c-0.3,0-0.6,0-1.1-0.1s-0.9-0.1-1.2-0.2c-0.4-0.1-0.7-0.2-0.8-0.5c-0.1-0.2-0.2-0.5-0.1-0.9l0.4-2c1.1,0.3,2.3,0.5,3.7,0.6
		c1.4,0.1,2.6,0.1,3.5,0.1c0.7,0,1.6,0,2.6,0c1,0,2-0.1,3-0.1l6.8-0.3c0.4-0.1,0.8,0,1.3,0.1c0.5,0.1,0.9,0.3,1.2,0.7
		C71,6.1,71,6.2,71.1,6.4c0,0.1,0.1,0.2,0.1,0.3C71.1,6.9,71.1,7.1,71.1,7.4z"/>
	<path class="st1" d="M93.2,12c-0.3,0.9-0.6,1.7-1,2.5l4.5,3.8c0.2,0.2,0.4,0.4,0.6,0.5c0.2,0.1,0.4,0.3,0.6,0.4
		c0.2,0.1,0.4,0.2,0.7,0.3c0.2,0.1,0.4,0.2,0.7,0.3c0.4,0.3,0.7,0.5,0.9,0.7c0.2,0.2,0.4,0.6,0.5,1.1l0.5,1.6
		c0.2,0.6,0.2,1.1,0.2,1.2c-0.1,0.2-0.3,0.4-0.6,0.6c-0.3,0.2-0.6,0.2-0.8,0.2c-0.3,0-0.6-0.2-1-0.6l-8-7.9c-1.3,2.2-2.8,4-4.4,5.4
		c-1.6,1.5-2.9,2.5-3.9,3.1c-0.2,0.1-0.4,0.2-0.7,0.4c-0.3,0.1-0.5,0.2-0.7,0.2c-0.4,0-0.7-0.1-0.9-0.4c-0.2-0.2-0.3-0.5-0.4-0.8
		c0-0.2,0-0.4,0.1-0.6s0.2-0.4,0.3-0.5c0.6-0.4,1.4-1,2.3-1.9c1-0.9,2-2,3-3.3c1-1.3,1.9-2.7,2.8-4.3s1.4-3.3,1.7-5
		c0-0.2,0-0.4-0.1-0.6c-0.1-0.2-0.3-0.4-0.6-0.7l-0.9-0.6c-0.1-0.1-0.2-0.2-0.2-0.5c0-0.2,0.1-0.4,0.2-0.7c0.1-0.2,0.2-0.4,0.3-0.6
		s0.3-0.2,0.4-0.2c0.3,0.1,0.6,0.2,1,0.3c0.4,0.1,0.8,0.2,1.2,0.3c0.4,0.1,0.8,0.3,1.2,0.4c0.4,0.1,0.7,0.2,0.9,0.3
		c0.3,0.2,0.5,0.5,0.6,1C94.1,8,94.1,8.6,94,9.3C93.8,10.2,93.5,11.1,93.2,12z M92.7,41.8c-0.3,0-0.7,0-1.1-0.1
		c-0.4,0-0.7-0.1-1.1-0.3c-0.3-0.2-0.6-0.4-0.8-0.7c-0.2-0.3-0.3-0.8-0.3-1.4v-6.1c0-0.7,0-1.2-0.1-1.6c-0.1-0.4-0.4-0.6-0.8-0.8
		c-0.3-0.1-0.6-0.2-0.8-0.4c-0.2-0.1-0.3-0.4-0.3-0.7v-1.6l4,0.5c0.5,0.1,0.8,0.2,1.1,0.4c0.3,0.2,0.5,0.4,0.6,0.7
		c0.1,0.3,0.2,0.6,0.2,0.9c0,0.3,0,0.7,0,1v5.8c0,0.4,0,0.8,0.1,1c0.1,0.2,0.4,0.3,0.9,0.3h6c1.3,0,2.5-0.1,3.6-0.2
		c1.1-0.1,2-0.3,2.6-0.5c0.3-0.1,0.6-0.1,0.8-0.1s0.5,0.1,0.9,0.2l1.7,0.7c0.6,0.3,1,0.5,1.1,0.7c0.1,0.2,0.1,0.5,0,0.9
		c-0.1,0.5-0.3,0.8-0.5,1c-0.2,0.2-0.6,0.3-1.3,0.3H92.7z M106.2,6c0-0.6-0.1-1-0.3-1.4c-0.2-0.3-0.6-0.7-1.1-1
		c-0.2-0.1-0.3-0.3-0.3-0.5c0-0.2,0.1-0.5,0.2-0.7c0.1-0.2,0.3-0.4,0.5-0.5c0.2-0.1,0.5-0.1,0.8,0l2.9,1.3c0.7,0.3,1.1,0.6,1.2,0.8
		s0.2,0.6,0.2,1.1v13l0.8,0c0.4,0,0.8,0,1.2-0.1c0.4-0.1,0.9-0.2,1.6-0.4c0.3-0.1,0.5-0.2,0.7-0.2c0.2-0.1,0.4-0.1,0.5-0.1
		c0.2,0,0.3,0,0.5,0s0.4,0.1,0.6,0.2l2.1,1.3c0.2,0.1,0.4,0.3,0.4,0.5c0,0.2,0,0.4-0.2,0.6l-0.8,0.9c-0.2,0.2-0.4,0.4-0.7,0.4
		c-0.3,0-0.6,0-0.8-0.1s-0.5-0.1-0.7-0.2c-0.2,0-0.5-0.1-0.8-0.1h-4.3v7.2c0,0.6-0.1,1.1-0.4,1.6c-0.2,0.5-0.5,1-0.9,1.5
		c-0.3,0.4-0.7,0.8-1,1.2c-0.3,0.4-0.6,0.6-0.8,0.7c-0.2,0.2-0.4,0.2-0.6,0.2c-0.2,0-0.3-0.2-0.3-0.4V6z"/>
</g>
</svg>
